<mxfile host="app.diagrams.net" agent="Mozilla/5.0 (Windows NT 10.0; Win64; x64) AppleWebKit/537.36 (KHTML, like Gecko) Chrome/140.0.0.0 Safari/537.36 Edg/140.0.0.0" version="28.2.3">
  <diagram name="หน้า-1" id="eUxiDGaph87goB3MmdU6">
    <mxGraphModel dx="3545" dy="1965" grid="1" gridSize="10" guides="1" tooltips="1" connect="1" arrows="1" fold="1" page="1" pageScale="1" pageWidth="2336" pageHeight="1654" math="0" shadow="0">
      <root>
        <mxCell id="0" />
        <mxCell id="1" parent="0" />
        <mxCell id="IIilCcqDhFFno7Ei3CsS-19" value="Student function" style="swimlane;whiteSpace=wrap;html=1;startSize=23;" parent="1" vertex="1">
          <mxGeometry x="960" y="2938" width="200" height="360" as="geometry">
            <mxRectangle x="400" y="200" width="130" height="30" as="alternateBounds" />
          </mxGeometry>
        </mxCell>
        <mxCell id="IIilCcqDhFFno7Ei3CsS-20" value="Upload" style="rounded=1;whiteSpace=wrap;html=1;" parent="IIilCcqDhFFno7Ei3CsS-19" vertex="1">
          <mxGeometry x="40" y="40" width="120" height="40" as="geometry" />
        </mxCell>
        <mxCell id="IIilCcqDhFFno7Ei3CsS-81" value="Get thesis" style="rounded=1;whiteSpace=wrap;html=1;" parent="IIilCcqDhFFno7Ei3CsS-19" vertex="1">
          <mxGeometry x="40" y="120" width="120" height="40" as="geometry" />
        </mxCell>
        <mxCell id="gGhK-Ux7Nj4NmBZuGKMW-30" value="Delete theis" style="rounded=1;whiteSpace=wrap;html=1;" parent="IIilCcqDhFFno7Ei3CsS-19" vertex="1">
          <mxGeometry x="40" y="200" width="120" height="40" as="geometry" />
        </mxCell>
        <mxCell id="IIilCcqDhFFno7Ei3CsS-51" value="Statistics" style="rounded=1;whiteSpace=wrap;html=1;" parent="IIilCcqDhFFno7Ei3CsS-19" vertex="1">
          <mxGeometry x="40" y="280" width="120" height="40" as="geometry" />
        </mxCell>
        <mxCell id="IIilCcqDhFFno7Ei3CsS-24" value="Teacher function" style="swimlane;whiteSpace=wrap;html=1;startSize=23;" parent="1" vertex="1">
          <mxGeometry x="240" y="2938" width="200" height="200" as="geometry">
            <mxRectangle x="400" y="200" width="130" height="30" as="alternateBounds" />
          </mxGeometry>
        </mxCell>
        <mxCell id="IIilCcqDhFFno7Ei3CsS-25" value="Get student thesis" style="rounded=1;whiteSpace=wrap;html=1;" parent="IIilCcqDhFFno7Ei3CsS-24" vertex="1">
          <mxGeometry x="40" y="40" width="120" height="40" as="geometry" />
        </mxCell>
        <mxCell id="IIilCcqDhFFno7Ei3CsS-83" value="Check thesis" style="rounded=1;whiteSpace=wrap;html=1;" parent="IIilCcqDhFFno7Ei3CsS-24" vertex="1">
          <mxGeometry x="40" y="120" width="120" height="40" as="geometry" />
        </mxCell>
        <mxCell id="IIilCcqDhFFno7Ei3CsS-52" value="Thesis API" style="swimlane;whiteSpace=wrap;html=1;" parent="1" vertex="1">
          <mxGeometry x="1240" y="2858" width="220" height="450" as="geometry">
            <mxRectangle x="400" y="200" width="130" height="30" as="alternateBounds" />
          </mxGeometry>
        </mxCell>
        <mxCell id="IIilCcqDhFFno7Ei3CsS-64" value="Create thesis" style="rounded=1;whiteSpace=wrap;html=1;" parent="IIilCcqDhFFno7Ei3CsS-52" vertex="1">
          <mxGeometry x="40" y="40" width="120" height="40" as="geometry" />
        </mxCell>
        <mxCell id="IIilCcqDhFFno7Ei3CsS-67" value="Update thesis" style="rounded=1;whiteSpace=wrap;html=1;" parent="IIilCcqDhFFno7Ei3CsS-52" vertex="1">
          <mxGeometry x="40" y="120" width="120" height="40" as="geometry" />
        </mxCell>
        <mxCell id="IIilCcqDhFFno7Ei3CsS-66" value="Get thesis" style="rounded=1;whiteSpace=wrap;html=1;" parent="IIilCcqDhFFno7Ei3CsS-52" vertex="1">
          <mxGeometry x="40" y="200" width="120" height="40" as="geometry" />
        </mxCell>
        <mxCell id="IIilCcqDhFFno7Ei3CsS-45" value="Delete theis" style="rounded=1;whiteSpace=wrap;html=1;" parent="IIilCcqDhFFno7Ei3CsS-52" vertex="1">
          <mxGeometry x="40" y="280" width="120" height="40" as="geometry" />
        </mxCell>
        <mxCell id="IIilCcqDhFFno7Ei3CsS-73" value="Get statistic" style="rounded=1;whiteSpace=wrap;html=1;" parent="IIilCcqDhFFno7Ei3CsS-52" vertex="1">
          <mxGeometry x="40" y="360" width="120" height="40" as="geometry" />
        </mxCell>
        <mxCell id="IIilCcqDhFFno7Ei3CsS-54" value="Teacher API" style="swimlane;whiteSpace=wrap;html=1;" parent="1" vertex="1">
          <mxGeometry x="480" y="2938" width="200" height="200" as="geometry">
            <mxRectangle x="400" y="200" width="130" height="30" as="alternateBounds" />
          </mxGeometry>
        </mxCell>
        <mxCell id="IIilCcqDhFFno7Ei3CsS-65" value="Get student thesis" style="rounded=1;whiteSpace=wrap;html=1;" parent="IIilCcqDhFFno7Ei3CsS-54" vertex="1">
          <mxGeometry x="40" y="40" width="120" height="40" as="geometry" />
        </mxCell>
        <mxCell id="IIilCcqDhFFno7Ei3CsS-68" value="Approve" style="rounded=1;whiteSpace=wrap;html=1;" parent="IIilCcqDhFFno7Ei3CsS-54" vertex="1">
          <mxGeometry x="40" y="120" width="120" height="40" as="geometry" />
        </mxCell>
        <mxCell id="IIilCcqDhFFno7Ei3CsS-78" style="edgeStyle=orthogonalEdgeStyle;rounded=0;orthogonalLoop=1;jettySize=auto;html=1;" parent="1" source="IIilCcqDhFFno7Ei3CsS-74" target="IIilCcqDhFFno7Ei3CsS-20" edge="1">
          <mxGeometry relative="1" as="geometry">
            <Array as="points">
              <mxPoint x="990" y="2998" />
              <mxPoint x="990" y="2998" />
            </Array>
          </mxGeometry>
        </mxCell>
        <mxCell id="IIilCcqDhFFno7Ei3CsS-82" style="edgeStyle=orthogonalEdgeStyle;rounded=0;orthogonalLoop=1;jettySize=auto;html=1;entryX=0;entryY=0.5;entryDx=0;entryDy=0;" parent="1" source="IIilCcqDhFFno7Ei3CsS-74" target="IIilCcqDhFFno7Ei3CsS-81" edge="1">
          <mxGeometry relative="1" as="geometry">
            <Array as="points">
              <mxPoint x="920" y="2998" />
              <mxPoint x="920" y="3078" />
            </Array>
          </mxGeometry>
        </mxCell>
        <mxCell id="gGhK-Ux7Nj4NmBZuGKMW-32" style="edgeStyle=orthogonalEdgeStyle;rounded=0;orthogonalLoop=1;jettySize=auto;html=1;entryX=0;entryY=0.5;entryDx=0;entryDy=0;" parent="1" source="IIilCcqDhFFno7Ei3CsS-74" target="gGhK-Ux7Nj4NmBZuGKMW-30" edge="1">
          <mxGeometry relative="1" as="geometry">
            <Array as="points">
              <mxPoint x="920" y="2998" />
              <mxPoint x="920" y="3158" />
            </Array>
          </mxGeometry>
        </mxCell>
        <mxCell id="pTliONvsRdd1u_FoCx2j-20" style="edgeStyle=orthogonalEdgeStyle;rounded=0;orthogonalLoop=1;jettySize=auto;html=1;entryX=0;entryY=0.5;entryDx=0;entryDy=0;" parent="1" source="IIilCcqDhFFno7Ei3CsS-74" target="IIilCcqDhFFno7Ei3CsS-51" edge="1">
          <mxGeometry relative="1" as="geometry">
            <Array as="points">
              <mxPoint x="920" y="2998" />
              <mxPoint x="920" y="3238" />
            </Array>
          </mxGeometry>
        </mxCell>
        <mxCell id="IIilCcqDhFFno7Ei3CsS-74" value="Student" style="html=1;dashed=0;whiteSpace=wrap;" parent="1" vertex="1">
          <mxGeometry x="760" y="2978" width="120" height="40" as="geometry" />
        </mxCell>
        <mxCell id="IIilCcqDhFFno7Ei3CsS-79" style="edgeStyle=orthogonalEdgeStyle;rounded=0;orthogonalLoop=1;jettySize=auto;html=1;entryX=0;entryY=0.5;entryDx=0;entryDy=0;" parent="1" source="IIilCcqDhFFno7Ei3CsS-75" target="IIilCcqDhFFno7Ei3CsS-25" edge="1">
          <mxGeometry relative="1" as="geometry" />
        </mxCell>
        <mxCell id="IIilCcqDhFFno7Ei3CsS-84" style="edgeStyle=orthogonalEdgeStyle;rounded=0;orthogonalLoop=1;jettySize=auto;html=1;entryX=0;entryY=0.5;entryDx=0;entryDy=0;" parent="1" source="IIilCcqDhFFno7Ei3CsS-75" target="IIilCcqDhFFno7Ei3CsS-83" edge="1">
          <mxGeometry relative="1" as="geometry" />
        </mxCell>
        <mxCell id="IIilCcqDhFFno7Ei3CsS-75" value="Teacher" style="html=1;dashed=0;whiteSpace=wrap;" parent="1" vertex="1">
          <mxGeometry x="40" y="2978" width="120" height="40" as="geometry" />
        </mxCell>
        <mxCell id="IIilCcqDhFFno7Ei3CsS-80" style="edgeStyle=orthogonalEdgeStyle;rounded=0;orthogonalLoop=1;jettySize=auto;html=1;entryX=0;entryY=0.5;entryDx=0;entryDy=0;" parent="1" source="IIilCcqDhFFno7Ei3CsS-20" target="IIilCcqDhFFno7Ei3CsS-64" edge="1">
          <mxGeometry relative="1" as="geometry">
            <Array as="points">
              <mxPoint x="1200" y="2998" />
              <mxPoint x="1200" y="2918" />
            </Array>
          </mxGeometry>
        </mxCell>
        <mxCell id="IIilCcqDhFFno7Ei3CsS-85" style="edgeStyle=orthogonalEdgeStyle;rounded=0;orthogonalLoop=1;jettySize=auto;html=1;exitX=1;exitY=0.25;exitDx=0;exitDy=0;entryX=0;entryY=0.25;entryDx=0;entryDy=0;" parent="1" source="IIilCcqDhFFno7Ei3CsS-25" target="IIilCcqDhFFno7Ei3CsS-65" edge="1">
          <mxGeometry relative="1" as="geometry">
            <mxPoint x="520" y="2998" as="targetPoint" />
            <Array as="points">
              <mxPoint x="460" y="2988" />
              <mxPoint x="460" y="2988" />
            </Array>
          </mxGeometry>
        </mxCell>
        <mxCell id="IIilCcqDhFFno7Ei3CsS-86" style="edgeStyle=orthogonalEdgeStyle;rounded=0;orthogonalLoop=1;jettySize=auto;html=1;entryX=1;entryY=0.75;entryDx=0;entryDy=0;" parent="1" source="IIilCcqDhFFno7Ei3CsS-65" target="IIilCcqDhFFno7Ei3CsS-25" edge="1">
          <mxGeometry relative="1" as="geometry">
            <Array as="points">
              <mxPoint x="450" y="3008" />
              <mxPoint x="450" y="3008" />
            </Array>
          </mxGeometry>
        </mxCell>
        <mxCell id="IIilCcqDhFFno7Ei3CsS-87" style="edgeStyle=orthogonalEdgeStyle;rounded=0;orthogonalLoop=1;jettySize=auto;html=1;entryX=0;entryY=0.5;entryDx=0;entryDy=0;" parent="1" source="IIilCcqDhFFno7Ei3CsS-83" target="IIilCcqDhFFno7Ei3CsS-68" edge="1">
          <mxGeometry relative="1" as="geometry" />
        </mxCell>
        <mxCell id="eRz7YMECNyyjDCqZuOSM-86" style="edgeStyle=orthogonalEdgeStyle;rounded=0;orthogonalLoop=1;jettySize=auto;html=1;entryX=0;entryY=0.5;entryDx=0;entryDy=0;" parent="1" source="IIilCcqDhFFno7Ei3CsS-20" target="IIilCcqDhFFno7Ei3CsS-67" edge="1">
          <mxGeometry relative="1" as="geometry">
            <Array as="points">
              <mxPoint x="1150" y="2998" />
              <mxPoint x="1150" y="2998" />
            </Array>
          </mxGeometry>
        </mxCell>
        <mxCell id="eRz7YMECNyyjDCqZuOSM-87" style="edgeStyle=orthogonalEdgeStyle;rounded=0;orthogonalLoop=1;jettySize=auto;html=1;entryX=0;entryY=0.5;entryDx=0;entryDy=0;" parent="1" source="IIilCcqDhFFno7Ei3CsS-81" target="IIilCcqDhFFno7Ei3CsS-66" edge="1">
          <mxGeometry relative="1" as="geometry">
            <Array as="points">
              <mxPoint x="1150" y="3078" />
              <mxPoint x="1150" y="3078" />
            </Array>
          </mxGeometry>
        </mxCell>
        <mxCell id="gGhK-Ux7Nj4NmBZuGKMW-31" style="edgeStyle=orthogonalEdgeStyle;rounded=0;orthogonalLoop=1;jettySize=auto;html=1;entryX=0;entryY=0.5;entryDx=0;entryDy=0;" parent="1" source="gGhK-Ux7Nj4NmBZuGKMW-30" target="IIilCcqDhFFno7Ei3CsS-45" edge="1">
          <mxGeometry relative="1" as="geometry" />
        </mxCell>
        <mxCell id="gGhK-Ux7Nj4NmBZuGKMW-41" value="Notification API" style="swimlane;whiteSpace=wrap;html=1;" parent="1" vertex="1">
          <mxGeometry x="1520" y="3018" width="200" height="200" as="geometry">
            <mxRectangle x="400" y="200" width="130" height="30" as="alternateBounds" />
          </mxGeometry>
        </mxCell>
        <mxCell id="IIilCcqDhFFno7Ei3CsS-69" value="Create notification" style="rounded=1;whiteSpace=wrap;html=1;" parent="gGhK-Ux7Nj4NmBZuGKMW-41" vertex="1">
          <mxGeometry x="40" y="40" width="120" height="40" as="geometry" />
        </mxCell>
        <mxCell id="IIilCcqDhFFno7Ei3CsS-70" value="Send notification" style="rounded=1;whiteSpace=wrap;html=1;" parent="gGhK-Ux7Nj4NmBZuGKMW-41" vertex="1">
          <mxGeometry x="40" y="120" width="120" height="40" as="geometry" />
        </mxCell>
        <mxCell id="4nZbFx58Cz5zcJhAMKUK-26" value="User Structor" style="swimlane;whiteSpace=wrap;html=1;startSize=40;" parent="1" vertex="1">
          <mxGeometry x="40" y="40" width="1680" height="1000" as="geometry" />
        </mxCell>
        <mxCell id="IIilCcqDhFFno7Ei3CsS-1" value="User function" style="swimlane;whiteSpace=wrap;html=1;" parent="4nZbFx58Cz5zcJhAMKUK-26" vertex="1">
          <mxGeometry x="240" y="200" width="200" height="600" as="geometry">
            <mxRectangle x="400" y="200" width="130" height="30" as="alternateBounds" />
          </mxGeometry>
        </mxCell>
        <mxCell id="IIilCcqDhFFno7Ei3CsS-5" value="Browse" style="rounded=1;whiteSpace=wrap;html=1;" parent="IIilCcqDhFFno7Ei3CsS-1" vertex="1">
          <mxGeometry x="40" y="200" width="120" height="40" as="geometry" />
        </mxCell>
        <mxCell id="IIilCcqDhFFno7Ei3CsS-7" value="Login" style="rounded=1;whiteSpace=wrap;html=1;" parent="IIilCcqDhFFno7Ei3CsS-1" vertex="1">
          <mxGeometry x="40" y="120" width="120" height="40" as="geometry" />
        </mxCell>
        <mxCell id="IIilCcqDhFFno7Ei3CsS-8" value="Register" style="rounded=1;whiteSpace=wrap;html=1;" parent="IIilCcqDhFFno7Ei3CsS-1" vertex="1">
          <mxGeometry x="40" y="40" width="120" height="40" as="geometry" />
        </mxCell>
        <mxCell id="IIilCcqDhFFno7Ei3CsS-9" value="API Before login Server" style="swimlane;whiteSpace=wrap;html=1;" parent="4nZbFx58Cz5zcJhAMKUK-26" vertex="1">
          <mxGeometry x="600" y="120" width="440" height="520" as="geometry">
            <mxRectangle x="400" y="200" width="130" height="30" as="alternateBounds" />
          </mxGeometry>
        </mxCell>
        <mxCell id="eRz7YMECNyyjDCqZuOSM-28" style="edgeStyle=orthogonalEdgeStyle;rounded=0;orthogonalLoop=1;jettySize=auto;html=1;entryX=0;entryY=0.25;entryDx=0;entryDy=0;exitX=1;exitY=0.25;exitDx=0;exitDy=0;" parent="IIilCcqDhFFno7Ei3CsS-9" source="IIilCcqDhFFno7Ei3CsS-11" target="IIilCcqDhFFno7Ei3CsS-12" edge="1">
          <mxGeometry relative="1" as="geometry">
            <Array as="points">
              <mxPoint x="250" y="50" />
              <mxPoint x="250" y="50" />
            </Array>
          </mxGeometry>
        </mxCell>
        <mxCell id="eRz7YMECNyyjDCqZuOSM-30" value="Username" style="edgeLabel;html=1;align=center;verticalAlign=middle;resizable=0;points=[];" parent="eRz7YMECNyyjDCqZuOSM-28" vertex="1" connectable="0">
          <mxGeometry x="-0.195" y="1" relative="1" as="geometry">
            <mxPoint x="12" y="1" as="offset" />
          </mxGeometry>
        </mxCell>
        <mxCell id="eRz7YMECNyyjDCqZuOSM-39" style="edgeStyle=orthogonalEdgeStyle;rounded=0;orthogonalLoop=1;jettySize=auto;html=1;entryX=0.25;entryY=0;entryDx=0;entryDy=0;exitX=0.25;exitY=1;exitDx=0;exitDy=0;" parent="IIilCcqDhFFno7Ei3CsS-9" source="IIilCcqDhFFno7Ei3CsS-11" target="IIilCcqDhFFno7Ei3CsS-33" edge="1">
          <mxGeometry relative="1" as="geometry" />
        </mxCell>
        <mxCell id="eRz7YMECNyyjDCqZuOSM-72" value="Password" style="edgeLabel;html=1;align=center;verticalAlign=middle;resizable=0;points=[];" parent="eRz7YMECNyyjDCqZuOSM-39" vertex="1" connectable="0">
          <mxGeometry x="-0.05" y="1" relative="1" as="geometry">
            <mxPoint x="-11" as="offset" />
          </mxGeometry>
        </mxCell>
        <mxCell id="IIilCcqDhFFno7Ei3CsS-11" value="Create account" style="rounded=1;whiteSpace=wrap;html=1;" parent="IIilCcqDhFFno7Ei3CsS-9" vertex="1">
          <mxGeometry x="40" y="40" width="120" height="40" as="geometry" />
        </mxCell>
        <mxCell id="eRz7YMECNyyjDCqZuOSM-79" style="edgeStyle=orthogonalEdgeStyle;rounded=0;orthogonalLoop=1;jettySize=auto;html=1;entryX=1;entryY=0.75;entryDx=0;entryDy=0;exitX=0.75;exitY=1;exitDx=0;exitDy=0;" parent="IIilCcqDhFFno7Ei3CsS-9" source="IIilCcqDhFFno7Ei3CsS-12" target="eRz7YMECNyyjDCqZuOSM-20" edge="1">
          <mxGeometry relative="1" as="geometry">
            <Array as="points">
              <mxPoint x="370" y="230" />
            </Array>
          </mxGeometry>
        </mxCell>
        <mxCell id="eRz7YMECNyyjDCqZuOSM-81" value="True /False" style="edgeLabel;html=1;align=center;verticalAlign=middle;resizable=0;points=[];" parent="eRz7YMECNyyjDCqZuOSM-79" vertex="1" connectable="0">
          <mxGeometry x="0.5032" y="2" relative="1" as="geometry">
            <mxPoint as="offset" />
          </mxGeometry>
        </mxCell>
        <mxCell id="IIilCcqDhFFno7Ei3CsS-12" value="Compare account" style="rounded=1;whiteSpace=wrap;html=1;" parent="IIilCcqDhFFno7Ei3CsS-9" vertex="1">
          <mxGeometry x="280" y="40" width="120" height="40" as="geometry" />
        </mxCell>
        <mxCell id="eRz7YMECNyyjDCqZuOSM-78" style="edgeStyle=orthogonalEdgeStyle;rounded=0;orthogonalLoop=1;jettySize=auto;html=1;entryX=0.25;entryY=1;entryDx=0;entryDy=0;exitX=1;exitY=0.25;exitDx=0;exitDy=0;" parent="IIilCcqDhFFno7Ei3CsS-9" source="eRz7YMECNyyjDCqZuOSM-20" target="IIilCcqDhFFno7Ei3CsS-12" edge="1">
          <mxGeometry relative="1" as="geometry" />
        </mxCell>
        <mxCell id="eRz7YMECNyyjDCqZuOSM-80" value="Username" style="edgeLabel;html=1;align=center;verticalAlign=middle;resizable=0;points=[];" parent="eRz7YMECNyyjDCqZuOSM-78" vertex="1" connectable="0">
          <mxGeometry x="-0.6102" relative="1" as="geometry">
            <mxPoint x="15" as="offset" />
          </mxGeometry>
        </mxCell>
        <mxCell id="eRz7YMECNyyjDCqZuOSM-20" value="Login" style="rounded=1;whiteSpace=wrap;html=1;" parent="IIilCcqDhFFno7Ei3CsS-9" vertex="1">
          <mxGeometry x="40" y="200" width="120" height="40" as="geometry" />
        </mxCell>
        <mxCell id="eRz7YMECNyyjDCqZuOSM-37" style="edgeStyle=orthogonalEdgeStyle;rounded=0;orthogonalLoop=1;jettySize=auto;html=1;entryX=0.25;entryY=0;entryDx=0;entryDy=0;exitX=0.25;exitY=1;exitDx=0;exitDy=0;" parent="IIilCcqDhFFno7Ei3CsS-9" source="IIilCcqDhFFno7Ei3CsS-33" target="eRz7YMECNyyjDCqZuOSM-20" edge="1">
          <mxGeometry relative="1" as="geometry" />
        </mxCell>
        <mxCell id="eRz7YMECNyyjDCqZuOSM-75" value="Password" style="edgeLabel;html=1;align=center;verticalAlign=middle;resizable=0;points=[];" parent="eRz7YMECNyyjDCqZuOSM-37" vertex="1" connectable="0">
          <mxGeometry x="-0.04" y="-1" relative="1" as="geometry">
            <mxPoint as="offset" />
          </mxGeometry>
        </mxCell>
        <mxCell id="eRz7YMECNyyjDCqZuOSM-38" style="edgeStyle=orthogonalEdgeStyle;rounded=0;orthogonalLoop=1;jettySize=auto;html=1;exitX=0.75;exitY=0;exitDx=0;exitDy=0;entryX=0.75;entryY=1;entryDx=0;entryDy=0;" parent="IIilCcqDhFFno7Ei3CsS-9" source="eRz7YMECNyyjDCqZuOSM-20" target="IIilCcqDhFFno7Ei3CsS-33" edge="1">
          <mxGeometry relative="1" as="geometry">
            <Array as="points">
              <mxPoint x="130" y="180" />
              <mxPoint x="130" y="180" />
            </Array>
          </mxGeometry>
        </mxCell>
        <mxCell id="eRz7YMECNyyjDCqZuOSM-74" value="Hash word" style="edgeLabel;html=1;align=center;verticalAlign=middle;resizable=0;points=[];" parent="eRz7YMECNyyjDCqZuOSM-38" vertex="1" connectable="0">
          <mxGeometry x="-0.02" y="1" relative="1" as="geometry">
            <mxPoint as="offset" />
          </mxGeometry>
        </mxCell>
        <mxCell id="eRz7YMECNyyjDCqZuOSM-40" style="edgeStyle=orthogonalEdgeStyle;rounded=0;orthogonalLoop=1;jettySize=auto;html=1;entryX=0.5;entryY=1;entryDx=0;entryDy=0;exitX=0.5;exitY=0;exitDx=0;exitDy=0;" parent="IIilCcqDhFFno7Ei3CsS-9" source="IIilCcqDhFFno7Ei3CsS-33" target="IIilCcqDhFFno7Ei3CsS-11" edge="1">
          <mxGeometry relative="1" as="geometry" />
        </mxCell>
        <mxCell id="eRz7YMECNyyjDCqZuOSM-73" value="Hash word" style="edgeLabel;html=1;align=center;verticalAlign=middle;resizable=0;points=[];" parent="eRz7YMECNyyjDCqZuOSM-40" vertex="1" connectable="0">
          <mxGeometry x="-0.1167" relative="1" as="geometry">
            <mxPoint x="20" y="8" as="offset" />
          </mxGeometry>
        </mxCell>
        <mxCell id="IIilCcqDhFFno7Ei3CsS-33" value="Hash function" style="rounded=1;whiteSpace=wrap;html=1;" parent="IIilCcqDhFFno7Ei3CsS-9" vertex="1">
          <mxGeometry x="40" y="120" width="120" height="40" as="geometry" />
        </mxCell>
        <mxCell id="eRz7YMECNyyjDCqZuOSM-29" style="edgeStyle=orthogonalEdgeStyle;rounded=0;orthogonalLoop=1;jettySize=auto;html=1;entryX=1;entryY=0.75;entryDx=0;entryDy=0;exitX=0;exitY=0.75;exitDx=0;exitDy=0;" parent="IIilCcqDhFFno7Ei3CsS-9" source="IIilCcqDhFFno7Ei3CsS-12" target="IIilCcqDhFFno7Ei3CsS-11" edge="1">
          <mxGeometry relative="1" as="geometry">
            <mxPoint x="170" y="60" as="sourcePoint" />
            <mxPoint x="250" y="60" as="targetPoint" />
            <Array as="points">
              <mxPoint x="230" y="70" />
              <mxPoint x="230" y="70" />
            </Array>
          </mxGeometry>
        </mxCell>
        <mxCell id="eRz7YMECNyyjDCqZuOSM-31" value="True / False" style="edgeLabel;html=1;align=center;verticalAlign=middle;resizable=0;points=[];" parent="eRz7YMECNyyjDCqZuOSM-29" vertex="1" connectable="0">
          <mxGeometry x="0.035" y="1" relative="1" as="geometry">
            <mxPoint x="2" y="-1" as="offset" />
          </mxGeometry>
        </mxCell>
        <mxCell id="IIilCcqDhFFno7Ei3CsS-39" value="Get Thesis" style="rounded=1;whiteSpace=wrap;html=1;" parent="IIilCcqDhFFno7Ei3CsS-9" vertex="1">
          <mxGeometry x="160" y="280" width="120" height="40" as="geometry" />
        </mxCell>
        <mxCell id="IIilCcqDhFFno7Ei3CsS-40" value="Get thesis by keyword / Catagory" style="rounded=1;whiteSpace=wrap;html=1;" parent="IIilCcqDhFFno7Ei3CsS-9" vertex="1">
          <mxGeometry x="160" y="360" width="120" height="40" as="geometry" />
        </mxCell>
        <mxCell id="IIilCcqDhFFno7Ei3CsS-14" value="Database" style="swimlane;whiteSpace=wrap;html=1;" parent="4nZbFx58Cz5zcJhAMKUK-26" vertex="1">
          <mxGeometry x="1440" y="120" width="200" height="600" as="geometry">
            <mxRectangle x="400" y="200" width="130" height="30" as="alternateBounds" />
          </mxGeometry>
        </mxCell>
        <mxCell id="IIilCcqDhFFno7Ei3CsS-58" value="user" style="html=1;dashed=0;whiteSpace=wrap;shape=partialRectangle;right=0;" parent="IIilCcqDhFFno7Ei3CsS-14" vertex="1">
          <mxGeometry x="40" y="40" width="120" height="40" as="geometry" />
        </mxCell>
        <mxCell id="IIilCcqDhFFno7Ei3CsS-59" value="thesis" style="html=1;dashed=0;whiteSpace=wrap;shape=partialRectangle;right=0;" parent="IIilCcqDhFFno7Ei3CsS-14" vertex="1">
          <mxGeometry x="40" y="120" width="120" height="40" as="geometry" />
        </mxCell>
        <mxCell id="IIilCcqDhFFno7Ei3CsS-60" value="statistic" style="html=1;dashed=0;whiteSpace=wrap;shape=partialRectangle;right=0;" parent="IIilCcqDhFFno7Ei3CsS-14" vertex="1">
          <mxGeometry x="40" y="360" width="120" height="40" as="geometry" />
        </mxCell>
        <mxCell id="4nZbFx58Cz5zcJhAMKUK-2" value="thesis-storage" style="html=1;dashed=0;whiteSpace=wrap;shape=partialRectangle;right=0;" parent="IIilCcqDhFFno7Ei3CsS-14" vertex="1">
          <mxGeometry x="40" y="200" width="120" height="40" as="geometry" />
        </mxCell>
        <mxCell id="4nZbFx58Cz5zcJhAMKUK-236" value="comment" style="html=1;dashed=0;whiteSpace=wrap;shape=partialRectangle;right=0;" parent="IIilCcqDhFFno7Ei3CsS-14" vertex="1">
          <mxGeometry x="40" y="440" width="120" height="40" as="geometry" />
        </mxCell>
        <mxCell id="58ij7AsYlfpfPglQp_S_-12" value="sub comment" style="html=1;dashed=0;whiteSpace=wrap;shape=partialRectangle;right=0;" parent="IIilCcqDhFFno7Ei3CsS-14" vertex="1">
          <mxGeometry x="40" y="520" width="120" height="40" as="geometry" />
        </mxCell>
        <mxCell id="IIilCcqDhFFno7Ei3CsS-34" style="edgeStyle=orthogonalEdgeStyle;rounded=0;orthogonalLoop=1;jettySize=auto;html=1;entryX=0;entryY=0.5;entryDx=0;entryDy=0;" parent="4nZbFx58Cz5zcJhAMKUK-26" source="IIilCcqDhFFno7Ei3CsS-32" target="IIilCcqDhFFno7Ei3CsS-5" edge="1">
          <mxGeometry relative="1" as="geometry" />
        </mxCell>
        <mxCell id="IIilCcqDhFFno7Ei3CsS-35" style="edgeStyle=orthogonalEdgeStyle;rounded=0;orthogonalLoop=1;jettySize=auto;html=1;entryX=0;entryY=0.5;entryDx=0;entryDy=0;" parent="4nZbFx58Cz5zcJhAMKUK-26" source="IIilCcqDhFFno7Ei3CsS-32" target="4nZbFx58Cz5zcJhAMKUK-235" edge="1">
          <mxGeometry relative="1" as="geometry">
            <mxPoint x="280" y="740" as="targetPoint" />
          </mxGeometry>
        </mxCell>
        <mxCell id="IIilCcqDhFFno7Ei3CsS-36" style="edgeStyle=orthogonalEdgeStyle;rounded=0;orthogonalLoop=1;jettySize=auto;html=1;entryX=0;entryY=0.5;entryDx=0;entryDy=0;" parent="4nZbFx58Cz5zcJhAMKUK-26" source="IIilCcqDhFFno7Ei3CsS-32" target="IIilCcqDhFFno7Ei3CsS-8" edge="1">
          <mxGeometry relative="1" as="geometry" />
        </mxCell>
        <mxCell id="IIilCcqDhFFno7Ei3CsS-37" style="edgeStyle=orthogonalEdgeStyle;rounded=0;orthogonalLoop=1;jettySize=auto;html=1;entryX=0;entryY=0.5;entryDx=0;entryDy=0;" parent="4nZbFx58Cz5zcJhAMKUK-26" source="IIilCcqDhFFno7Ei3CsS-32" target="IIilCcqDhFFno7Ei3CsS-7" edge="1">
          <mxGeometry relative="1" as="geometry" />
        </mxCell>
        <mxCell id="IIilCcqDhFFno7Ei3CsS-32" value="User" style="html=1;dashed=0;whiteSpace=wrap;" parent="4nZbFx58Cz5zcJhAMKUK-26" vertex="1">
          <mxGeometry x="40" y="320" width="120" height="40" as="geometry" />
        </mxCell>
        <mxCell id="yefg0WoXISoBtYHqCvty-1" style="edgeStyle=orthogonalEdgeStyle;rounded=0;orthogonalLoop=1;jettySize=auto;html=1;entryX=0;entryY=0.5;entryDx=0;entryDy=0;" parent="4nZbFx58Cz5zcJhAMKUK-26" source="IIilCcqDhFFno7Ei3CsS-8" target="IIilCcqDhFFno7Ei3CsS-11" edge="1">
          <mxGeometry relative="1" as="geometry">
            <Array as="points">
              <mxPoint x="520" y="260" />
              <mxPoint x="520" y="180" />
            </Array>
          </mxGeometry>
        </mxCell>
        <mxCell id="eRz7YMECNyyjDCqZuOSM-25" value="Username &amp;amp; Password" style="edgeLabel;html=1;align=center;verticalAlign=middle;resizable=0;points=[];" parent="yefg0WoXISoBtYHqCvty-1" vertex="1" connectable="0">
          <mxGeometry x="-0.0738" y="1" relative="1" as="geometry">
            <mxPoint x="1" y="-12" as="offset" />
          </mxGeometry>
        </mxCell>
        <mxCell id="eRz7YMECNyyjDCqZuOSM-5" style="edgeStyle=orthogonalEdgeStyle;rounded=0;orthogonalLoop=1;jettySize=auto;html=1;entryX=0;entryY=0.25;entryDx=0;entryDy=0;exitX=1;exitY=0.25;exitDx=0;exitDy=0;" parent="4nZbFx58Cz5zcJhAMKUK-26" source="IIilCcqDhFFno7Ei3CsS-7" target="eRz7YMECNyyjDCqZuOSM-20" edge="1">
          <mxGeometry relative="1" as="geometry">
            <Array as="points">
              <mxPoint x="440" y="330" />
            </Array>
          </mxGeometry>
        </mxCell>
        <mxCell id="eRz7YMECNyyjDCqZuOSM-15" value="Username &amp;amp; Password" style="edgeLabel;html=1;align=center;verticalAlign=middle;resizable=0;points=[];" parent="eRz7YMECNyyjDCqZuOSM-5" vertex="1" connectable="0">
          <mxGeometry x="-0.1119" relative="1" as="geometry">
            <mxPoint x="17" as="offset" />
          </mxGeometry>
        </mxCell>
        <mxCell id="eRz7YMECNyyjDCqZuOSM-26" style="edgeStyle=orthogonalEdgeStyle;rounded=0;orthogonalLoop=1;jettySize=auto;html=1;entryX=1;entryY=0.75;entryDx=0;entryDy=0;exitX=0;exitY=0.75;exitDx=0;exitDy=0;" parent="4nZbFx58Cz5zcJhAMKUK-26" source="eRz7YMECNyyjDCqZuOSM-20" target="IIilCcqDhFFno7Ei3CsS-7" edge="1">
          <mxGeometry relative="1" as="geometry">
            <Array as="points">
              <mxPoint x="440" y="350" />
            </Array>
          </mxGeometry>
        </mxCell>
        <mxCell id="eRz7YMECNyyjDCqZuOSM-27" value="user_id" style="edgeLabel;html=1;align=center;verticalAlign=middle;resizable=0;points=[];" parent="eRz7YMECNyyjDCqZuOSM-26" vertex="1" connectable="0">
          <mxGeometry x="-0.1446" y="-1" relative="1" as="geometry">
            <mxPoint x="-17" y="1" as="offset" />
          </mxGeometry>
        </mxCell>
        <mxCell id="eRz7YMECNyyjDCqZuOSM-67" style="rounded=0;orthogonalLoop=1;jettySize=auto;html=1;entryX=0.5;entryY=0;entryDx=0;entryDy=0;exitX=0.5;exitY=0;exitDx=0;exitDy=0;edgeStyle=orthogonalEdgeStyle;" parent="4nZbFx58Cz5zcJhAMKUK-26" source="IIilCcqDhFFno7Ei3CsS-11" target="eRz7YMECNyyjDCqZuOSM-66" edge="1">
          <mxGeometry relative="1" as="geometry">
            <Array as="points">
              <mxPoint x="700" y="80" />
              <mxPoint x="1260" y="80" />
            </Array>
          </mxGeometry>
        </mxCell>
        <mxCell id="eRz7YMECNyyjDCqZuOSM-68" value="Username &amp;amp; Hash word" style="edgeLabel;html=1;align=center;verticalAlign=middle;resizable=0;points=[];" parent="eRz7YMECNyyjDCqZuOSM-67" vertex="1" connectable="0">
          <mxGeometry x="0.0683" y="-2" relative="1" as="geometry">
            <mxPoint x="-32" y="-2" as="offset" />
          </mxGeometry>
        </mxCell>
        <mxCell id="eRz7YMECNyyjDCqZuOSM-47" value="API Database" style="swimlane;whiteSpace=wrap;html=1;" parent="4nZbFx58Cz5zcJhAMKUK-26" vertex="1">
          <mxGeometry x="1160" y="120" width="200" height="600" as="geometry">
            <mxRectangle x="400" y="200" width="130" height="30" as="alternateBounds" />
          </mxGeometry>
        </mxCell>
        <mxCell id="eRz7YMECNyyjDCqZuOSM-48" style="edgeStyle=orthogonalEdgeStyle;rounded=0;orthogonalLoop=1;jettySize=auto;html=1;entryX=0;entryY=0.25;entryDx=0;entryDy=0;exitX=1;exitY=0.25;exitDx=0;exitDy=0;" parent="eRz7YMECNyyjDCqZuOSM-47" edge="1">
          <mxGeometry relative="1" as="geometry">
            <mxPoint x="160" y="50" as="sourcePoint" />
            <Array as="points">
              <mxPoint x="250" y="50" />
              <mxPoint x="250" y="50" />
            </Array>
          </mxGeometry>
        </mxCell>
        <mxCell id="eRz7YMECNyyjDCqZuOSM-49" value="Username" style="edgeLabel;html=1;align=center;verticalAlign=middle;resizable=0;points=[];" parent="eRz7YMECNyyjDCqZuOSM-48" vertex="1" connectable="0">
          <mxGeometry x="-0.195" y="1" relative="1" as="geometry">
            <mxPoint x="12" y="1" as="offset" />
          </mxGeometry>
        </mxCell>
        <mxCell id="eRz7YMECNyyjDCqZuOSM-50" style="edgeStyle=orthogonalEdgeStyle;rounded=0;orthogonalLoop=1;jettySize=auto;html=1;entryX=0.25;entryY=0;entryDx=0;entryDy=0;exitX=0.25;exitY=1;exitDx=0;exitDy=0;" parent="eRz7YMECNyyjDCqZuOSM-47" edge="1">
          <mxGeometry relative="1" as="geometry">
            <mxPoint x="70" y="80" as="sourcePoint" />
          </mxGeometry>
        </mxCell>
        <mxCell id="eRz7YMECNyyjDCqZuOSM-58" style="edgeStyle=orthogonalEdgeStyle;rounded=0;orthogonalLoop=1;jettySize=auto;html=1;entryX=0.5;entryY=0;entryDx=0;entryDy=0;" parent="eRz7YMECNyyjDCqZuOSM-47" edge="1">
          <mxGeometry relative="1" as="geometry">
            <mxPoint x="100" y="160" as="sourcePoint" />
          </mxGeometry>
        </mxCell>
        <mxCell id="eRz7YMECNyyjDCqZuOSM-59" style="edgeStyle=orthogonalEdgeStyle;rounded=0;orthogonalLoop=1;jettySize=auto;html=1;exitX=1;exitY=0.25;exitDx=0;exitDy=0;" parent="eRz7YMECNyyjDCqZuOSM-47" edge="1">
          <mxGeometry relative="1" as="geometry">
            <mxPoint x="160" y="140" as="targetPoint" />
            <Array as="points">
              <mxPoint x="180" y="210" />
              <mxPoint x="180" y="140" />
            </Array>
          </mxGeometry>
        </mxCell>
        <mxCell id="eRz7YMECNyyjDCqZuOSM-60" style="edgeStyle=orthogonalEdgeStyle;rounded=0;orthogonalLoop=1;jettySize=auto;html=1;entryX=0.75;entryY=1;entryDx=0;entryDy=0;exitX=0.75;exitY=0;exitDx=0;exitDy=0;" parent="eRz7YMECNyyjDCqZuOSM-47" edge="1">
          <mxGeometry relative="1" as="geometry">
            <mxPoint x="130" y="80" as="targetPoint" />
          </mxGeometry>
        </mxCell>
        <mxCell id="eRz7YMECNyyjDCqZuOSM-66" value="User" style="rounded=1;whiteSpace=wrap;html=1;" parent="eRz7YMECNyyjDCqZuOSM-47" vertex="1">
          <mxGeometry x="40" y="40" width="120" height="40" as="geometry" />
        </mxCell>
        <mxCell id="4nZbFx58Cz5zcJhAMKUK-19" style="edgeStyle=orthogonalEdgeStyle;rounded=0;orthogonalLoop=1;jettySize=auto;html=1;entryX=0.5;entryY=0;entryDx=0;entryDy=0;" parent="eRz7YMECNyyjDCqZuOSM-47" source="gGhK-Ux7Nj4NmBZuGKMW-13" target="IIilCcqDhFFno7Ei3CsS-72" edge="1">
          <mxGeometry relative="1" as="geometry" />
        </mxCell>
        <mxCell id="4nZbFx58Cz5zcJhAMKUK-20" value="View count / thesis id" style="edgeLabel;html=1;align=center;verticalAlign=middle;resizable=0;points=[];" parent="4nZbFx58Cz5zcJhAMKUK-19" vertex="1" connectable="0">
          <mxGeometry x="-0.0278" relative="1" as="geometry">
            <mxPoint as="offset" />
          </mxGeometry>
        </mxCell>
        <mxCell id="gGhK-Ux7Nj4NmBZuGKMW-13" value="Thesis" style="rounded=1;whiteSpace=wrap;html=1;" parent="eRz7YMECNyyjDCqZuOSM-47" vertex="1">
          <mxGeometry x="40" y="120" width="120" height="40" as="geometry" />
        </mxCell>
        <mxCell id="IIilCcqDhFFno7Ei3CsS-72" value="Statistic" style="rounded=1;whiteSpace=wrap;html=1;" parent="eRz7YMECNyyjDCqZuOSM-47" vertex="1">
          <mxGeometry x="40" y="280" width="120" height="40" as="geometry" />
        </mxCell>
        <mxCell id="4nZbFx58Cz5zcJhAMKUK-10" value="Trigger monthly" style="rounded=1;whiteSpace=wrap;html=1;" parent="eRz7YMECNyyjDCqZuOSM-47" vertex="1">
          <mxGeometry x="40" y="360" width="120" height="40" as="geometry" />
        </mxCell>
        <mxCell id="pTliONvsRdd1u_FoCx2j-23" value="Update top thesis" style="rounded=1;whiteSpace=wrap;html=1;" parent="eRz7YMECNyyjDCqZuOSM-47" vertex="1">
          <mxGeometry x="40" y="440" width="120" height="40" as="geometry" />
        </mxCell>
        <mxCell id="4nZbFx58Cz5zcJhAMKUK-11" style="edgeStyle=orthogonalEdgeStyle;rounded=0;orthogonalLoop=1;jettySize=auto;html=1;entryX=0.5;entryY=0;entryDx=0;entryDy=0;" parent="eRz7YMECNyyjDCqZuOSM-47" source="4nZbFx58Cz5zcJhAMKUK-10" target="pTliONvsRdd1u_FoCx2j-23" edge="1">
          <mxGeometry relative="1" as="geometry" />
        </mxCell>
        <mxCell id="eRz7YMECNyyjDCqZuOSM-82" style="edgeStyle=orthogonalEdgeStyle;rounded=0;orthogonalLoop=1;jettySize=auto;html=1;entryX=0;entryY=0.25;entryDx=0;entryDy=0;exitX=1;exitY=0.25;exitDx=0;exitDy=0;" parent="4nZbFx58Cz5zcJhAMKUK-26" source="eRz7YMECNyyjDCqZuOSM-66" target="IIilCcqDhFFno7Ei3CsS-58" edge="1">
          <mxGeometry relative="1" as="geometry">
            <mxPoint x="1420" y="180" as="targetPoint" />
          </mxGeometry>
        </mxCell>
        <mxCell id="eRz7YMECNyyjDCqZuOSM-83" value="Username &amp;amp; Hash word" style="edgeLabel;html=1;align=center;verticalAlign=middle;resizable=0;points=[];" parent="eRz7YMECNyyjDCqZuOSM-82" vertex="1" connectable="0">
          <mxGeometry x="-0.1577" relative="1" as="geometry">
            <mxPoint x="12" as="offset" />
          </mxGeometry>
        </mxCell>
        <mxCell id="eRz7YMECNyyjDCqZuOSM-84" style="edgeStyle=orthogonalEdgeStyle;rounded=0;orthogonalLoop=1;jettySize=auto;html=1;exitX=0;exitY=0.75;exitDx=0;exitDy=0;entryX=1;entryY=0.75;entryDx=0;entryDy=0;" parent="4nZbFx58Cz5zcJhAMKUK-26" source="IIilCcqDhFFno7Ei3CsS-58" target="eRz7YMECNyyjDCqZuOSM-66" edge="1">
          <mxGeometry relative="1" as="geometry">
            <mxPoint x="1390" y="360" as="targetPoint" />
          </mxGeometry>
        </mxCell>
        <mxCell id="eRz7YMECNyyjDCqZuOSM-85" value="List Username" style="edgeLabel;html=1;align=center;verticalAlign=middle;resizable=0;points=[];" parent="eRz7YMECNyyjDCqZuOSM-84" vertex="1" connectable="0">
          <mxGeometry x="0.1101" relative="1" as="geometry">
            <mxPoint x="9" as="offset" />
          </mxGeometry>
        </mxCell>
        <mxCell id="gGhK-Ux7Nj4NmBZuGKMW-4" style="edgeStyle=orthogonalEdgeStyle;rounded=0;orthogonalLoop=1;jettySize=auto;html=1;exitX=0.75;exitY=1;exitDx=0;exitDy=0;entryX=0;entryY=0.75;entryDx=0;entryDy=0;" parent="4nZbFx58Cz5zcJhAMKUK-26" source="IIilCcqDhFFno7Ei3CsS-5" target="IIilCcqDhFFno7Ei3CsS-40" edge="1">
          <mxGeometry relative="1" as="geometry">
            <mxPoint x="470" y="420" as="sourcePoint" />
            <Array as="points">
              <mxPoint x="370" y="510" />
            </Array>
            <mxPoint x="580" y="540" as="targetPoint" />
          </mxGeometry>
        </mxCell>
        <mxCell id="gGhK-Ux7Nj4NmBZuGKMW-20" value="keywork / catagory" style="edgeLabel;html=1;align=center;verticalAlign=middle;resizable=0;points=[];" parent="gGhK-Ux7Nj4NmBZuGKMW-4" vertex="1" connectable="0">
          <mxGeometry x="0.3746" y="-1" relative="1" as="geometry">
            <mxPoint x="54" y="-1" as="offset" />
          </mxGeometry>
        </mxCell>
        <mxCell id="gGhK-Ux7Nj4NmBZuGKMW-14" style="edgeStyle=orthogonalEdgeStyle;rounded=0;orthogonalLoop=1;jettySize=auto;html=1;exitX=0;exitY=0.5;exitDx=0;exitDy=0;" parent="4nZbFx58Cz5zcJhAMKUK-26" source="gGhK-Ux7Nj4NmBZuGKMW-13" target="IIilCcqDhFFno7Ei3CsS-39" edge="1">
          <mxGeometry relative="1" as="geometry">
            <Array as="points">
              <mxPoint x="1080" y="260" />
              <mxPoint x="1080" y="420" />
            </Array>
          </mxGeometry>
        </mxCell>
        <mxCell id="gGhK-Ux7Nj4NmBZuGKMW-15" value="Thesis&amp;nbsp;&lt;span style=&quot;background-color: light-dark(#ffffff, var(--ge-dark-color, #121212)); color: light-dark(rgb(0, 0, 0), rgb(255, 255, 255));&quot;&gt;Data / PDF file&lt;/span&gt;" style="edgeLabel;html=1;align=center;verticalAlign=middle;resizable=0;points=[];" parent="gGhK-Ux7Nj4NmBZuGKMW-14" vertex="1" connectable="0">
          <mxGeometry x="0.13" y="1" relative="1" as="geometry">
            <mxPoint x="-111" y="9" as="offset" />
          </mxGeometry>
        </mxCell>
        <mxCell id="gGhK-Ux7Nj4NmBZuGKMW-16" style="edgeStyle=orthogonalEdgeStyle;rounded=0;orthogonalLoop=1;jettySize=auto;html=1;entryX=1;entryY=0.5;entryDx=0;entryDy=0;exitX=0;exitY=0.5;exitDx=0;exitDy=0;" parent="4nZbFx58Cz5zcJhAMKUK-26" source="gGhK-Ux7Nj4NmBZuGKMW-13" target="IIilCcqDhFFno7Ei3CsS-40" edge="1">
          <mxGeometry relative="1" as="geometry">
            <mxPoint x="1230" y="240" as="sourcePoint" />
            <mxPoint x="1050" y="510" as="targetPoint" />
            <Array as="points">
              <mxPoint x="1080" y="260" />
              <mxPoint x="1080" y="500" />
            </Array>
          </mxGeometry>
        </mxCell>
        <mxCell id="gGhK-Ux7Nj4NmBZuGKMW-17" value="Thesis&amp;nbsp;&lt;span style=&quot;background-color: light-dark(#ffffff, var(--ge-dark-color, #121212)); color: light-dark(rgb(0, 0, 0), rgb(255, 255, 255));&quot;&gt;Data&amp;nbsp;&lt;/span&gt;&lt;span style=&quot;color: light-dark(rgb(0, 0, 0), rgb(255, 255, 255)); background-color: light-dark(#ffffff, var(--ge-dark-color, #121212));&quot;&gt;Search&lt;/span&gt;&amp;nbsp;/ PDF file" style="edgeLabel;html=1;align=center;verticalAlign=middle;resizable=0;points=[];" parent="gGhK-Ux7Nj4NmBZuGKMW-16" vertex="1" connectable="0">
          <mxGeometry x="0.13" y="1" relative="1" as="geometry">
            <mxPoint x="-101" y="43" as="offset" />
          </mxGeometry>
        </mxCell>
        <mxCell id="gGhK-Ux7Nj4NmBZuGKMW-18" style="edgeStyle=orthogonalEdgeStyle;rounded=0;orthogonalLoop=1;jettySize=auto;html=1;exitX=0;exitY=0.25;exitDx=0;exitDy=0;entryX=1;entryY=0.5;entryDx=0;entryDy=0;" parent="4nZbFx58Cz5zcJhAMKUK-26" source="IIilCcqDhFFno7Ei3CsS-40" target="IIilCcqDhFFno7Ei3CsS-5" edge="1">
          <mxGeometry relative="1" as="geometry">
            <mxPoint x="430" y="410" as="targetPoint" />
            <Array as="points">
              <mxPoint x="580" y="490" />
              <mxPoint x="580" y="420" />
            </Array>
          </mxGeometry>
        </mxCell>
        <mxCell id="gGhK-Ux7Nj4NmBZuGKMW-19" value="Thesis Data Search" style="edgeLabel;html=1;align=center;verticalAlign=middle;resizable=0;points=[];" parent="gGhK-Ux7Nj4NmBZuGKMW-18" vertex="1" connectable="0">
          <mxGeometry x="-0.2854" y="3" relative="1" as="geometry">
            <mxPoint x="74" y="-3" as="offset" />
          </mxGeometry>
        </mxCell>
        <mxCell id="eRz7YMECNyyjDCqZuOSM-76" style="edgeStyle=orthogonalEdgeStyle;rounded=0;orthogonalLoop=1;jettySize=auto;html=1;exitX=0;exitY=0.5;exitDx=0;exitDy=0;entryX=1;entryY=0.5;entryDx=0;entryDy=0;" parent="4nZbFx58Cz5zcJhAMKUK-26" source="eRz7YMECNyyjDCqZuOSM-66" target="IIilCcqDhFFno7Ei3CsS-12" edge="1">
          <mxGeometry relative="1" as="geometry">
            <mxPoint x="1040" y="170" as="targetPoint" />
            <Array as="points" />
          </mxGeometry>
        </mxCell>
        <mxCell id="eRz7YMECNyyjDCqZuOSM-77" value="Username" style="edgeLabel;html=1;align=center;verticalAlign=middle;resizable=0;points=[];" parent="eRz7YMECNyyjDCqZuOSM-76" vertex="1" connectable="0">
          <mxGeometry x="0.3543" relative="1" as="geometry">
            <mxPoint x="35" as="offset" />
          </mxGeometry>
        </mxCell>
        <mxCell id="gGhK-Ux7Nj4NmBZuGKMW-22" style="edgeStyle=orthogonalEdgeStyle;rounded=0;orthogonalLoop=1;jettySize=auto;html=1;exitX=0;exitY=0.5;exitDx=0;exitDy=0;entryX=1;entryY=0.5;entryDx=0;entryDy=0;" parent="4nZbFx58Cz5zcJhAMKUK-26" source="IIilCcqDhFFno7Ei3CsS-39" target="IIilCcqDhFFno7Ei3CsS-5" edge="1">
          <mxGeometry relative="1" as="geometry">
            <Array as="points">
              <mxPoint x="400" y="420" />
              <mxPoint x="400" y="420" />
            </Array>
            <mxPoint x="410" y="420" as="targetPoint" />
          </mxGeometry>
        </mxCell>
        <mxCell id="gGhK-Ux7Nj4NmBZuGKMW-23" value="Thesis Data" style="edgeLabel;html=1;align=center;verticalAlign=middle;resizable=0;points=[];" parent="gGhK-Ux7Nj4NmBZuGKMW-22" vertex="1" connectable="0">
          <mxGeometry x="-0.4223" y="2" relative="1" as="geometry">
            <mxPoint x="14" y="-2" as="offset" />
          </mxGeometry>
        </mxCell>
        <mxCell id="gGhK-Ux7Nj4NmBZuGKMW-28" style="edgeStyle=orthogonalEdgeStyle;rounded=0;orthogonalLoop=1;jettySize=auto;html=1;entryX=0.25;entryY=1;entryDx=0;entryDy=0;" parent="4nZbFx58Cz5zcJhAMKUK-26" source="IIilCcqDhFFno7Ei3CsS-71" target="IIilCcqDhFFno7Ei3CsS-5" edge="1">
          <mxGeometry relative="1" as="geometry">
            <Array as="points">
              <mxPoint x="310" y="580" />
            </Array>
            <mxPoint x="340" y="490" as="targetPoint" />
          </mxGeometry>
        </mxCell>
        <mxCell id="gGhK-Ux7Nj4NmBZuGKMW-29" value="PDF File" style="edgeLabel;html=1;align=center;verticalAlign=middle;resizable=0;points=[];" parent="gGhK-Ux7Nj4NmBZuGKMW-28" vertex="1" connectable="0">
          <mxGeometry x="-0.2924" y="1" relative="1" as="geometry">
            <mxPoint x="117" y="-1" as="offset" />
          </mxGeometry>
        </mxCell>
        <mxCell id="gGhK-Ux7Nj4NmBZuGKMW-36" style="edgeStyle=orthogonalEdgeStyle;rounded=0;orthogonalLoop=1;jettySize=auto;html=1;entryX=0;entryY=0.5;entryDx=0;entryDy=0;exitX=1;exitY=0.75;exitDx=0;exitDy=0;" parent="4nZbFx58Cz5zcJhAMKUK-26" source="IIilCcqDhFFno7Ei3CsS-71" target="IIilCcqDhFFno7Ei3CsS-72" edge="1">
          <mxGeometry relative="1" as="geometry">
            <Array as="points">
              <mxPoint x="1120" y="590" />
              <mxPoint x="1120" y="420" />
            </Array>
          </mxGeometry>
        </mxCell>
        <mxCell id="gGhK-Ux7Nj4NmBZuGKMW-37" value="Thesis id / download count" style="edgeLabel;html=1;align=center;verticalAlign=middle;resizable=0;points=[];" parent="gGhK-Ux7Nj4NmBZuGKMW-36" vertex="1" connectable="0">
          <mxGeometry x="-0.7394" y="1" relative="1" as="geometry">
            <mxPoint x="16" y="1" as="offset" />
          </mxGeometry>
        </mxCell>
        <mxCell id="IIilCcqDhFFno7Ei3CsS-71" value="Download thesis" style="rounded=1;whiteSpace=wrap;html=1;" parent="4nZbFx58Cz5zcJhAMKUK-26" vertex="1">
          <mxGeometry x="760" y="560" width="120" height="40" as="geometry" />
        </mxCell>
        <mxCell id="pTliONvsRdd1u_FoCx2j-24" style="edgeStyle=orthogonalEdgeStyle;rounded=0;orthogonalLoop=1;jettySize=auto;html=1;entryX=0;entryY=0.5;entryDx=0;entryDy=0;" parent="4nZbFx58Cz5zcJhAMKUK-26" source="pTliONvsRdd1u_FoCx2j-23" target="IIilCcqDhFFno7Ei3CsS-60" edge="1">
          <mxGeometry relative="1" as="geometry">
            <Array as="points">
              <mxPoint x="1400" y="580" />
              <mxPoint x="1400" y="500" />
            </Array>
          </mxGeometry>
        </mxCell>
        <mxCell id="4nZbFx58Cz5zcJhAMKUK-12" value="Thesis id" style="edgeLabel;html=1;align=center;verticalAlign=middle;resizable=0;points=[];" parent="pTliONvsRdd1u_FoCx2j-24" vertex="1" connectable="0">
          <mxGeometry x="-0.5991" relative="1" as="geometry">
            <mxPoint x="34" y="-30" as="offset" />
          </mxGeometry>
        </mxCell>
        <mxCell id="4nZbFx58Cz5zcJhAMKUK-3" style="edgeStyle=orthogonalEdgeStyle;rounded=0;orthogonalLoop=1;jettySize=auto;html=1;entryX=0;entryY=0.25;entryDx=0;entryDy=0;exitX=1;exitY=0.25;exitDx=0;exitDy=0;startArrow=classic;startFill=1;endArrow=none;endFill=0;" parent="4nZbFx58Cz5zcJhAMKUK-26" source="gGhK-Ux7Nj4NmBZuGKMW-13" target="IIilCcqDhFFno7Ei3CsS-59" edge="1">
          <mxGeometry relative="1" as="geometry" />
        </mxCell>
        <mxCell id="4nZbFx58Cz5zcJhAMKUK-13" value="Thesis Data" style="edgeLabel;html=1;align=center;verticalAlign=middle;resizable=0;points=[];" parent="4nZbFx58Cz5zcJhAMKUK-3" vertex="1" connectable="0">
          <mxGeometry x="-0.1179" y="-3" relative="1" as="geometry">
            <mxPoint x="9" y="-3" as="offset" />
          </mxGeometry>
        </mxCell>
        <mxCell id="pTliONvsRdd1u_FoCx2j-21" style="edgeStyle=orthogonalEdgeStyle;rounded=0;orthogonalLoop=1;jettySize=auto;html=1;exitX=0;exitY=0.5;exitDx=0;exitDy=0;entryX=1;entryY=0.25;entryDx=0;entryDy=0;" parent="4nZbFx58Cz5zcJhAMKUK-26" source="gGhK-Ux7Nj4NmBZuGKMW-13" target="IIilCcqDhFFno7Ei3CsS-71" edge="1">
          <mxGeometry relative="1" as="geometry">
            <Array as="points">
              <mxPoint x="1080" y="260" />
              <mxPoint x="1080" y="570" />
            </Array>
            <mxPoint x="1480" y="420" as="sourcePoint" />
            <mxPoint x="1240" y="440" as="targetPoint" />
          </mxGeometry>
        </mxCell>
        <mxCell id="4nZbFx58Cz5zcJhAMKUK-8" value="PDF file" style="edgeLabel;html=1;align=center;verticalAlign=middle;resizable=0;points=[];" parent="pTliONvsRdd1u_FoCx2j-21" vertex="1" connectable="0">
          <mxGeometry x="-0.0643" y="1" relative="1" as="geometry">
            <mxPoint x="-111" y="135" as="offset" />
          </mxGeometry>
        </mxCell>
        <mxCell id="4nZbFx58Cz5zcJhAMKUK-6" style="edgeStyle=orthogonalEdgeStyle;rounded=0;orthogonalLoop=1;jettySize=auto;html=1;exitX=0;exitY=0.75;exitDx=0;exitDy=0;entryX=1;entryY=0.75;entryDx=0;entryDy=0;" parent="4nZbFx58Cz5zcJhAMKUK-26" source="4nZbFx58Cz5zcJhAMKUK-2" target="gGhK-Ux7Nj4NmBZuGKMW-13" edge="1">
          <mxGeometry relative="1" as="geometry">
            <Array as="points">
              <mxPoint x="1400" y="350" />
              <mxPoint x="1400" y="270" />
            </Array>
          </mxGeometry>
        </mxCell>
        <mxCell id="4nZbFx58Cz5zcJhAMKUK-15" value="PDF file" style="edgeLabel;html=1;align=center;verticalAlign=middle;resizable=0;points=[];" parent="4nZbFx58Cz5zcJhAMKUK-6" vertex="1" connectable="0">
          <mxGeometry x="-0.0024" y="-1" relative="1" as="geometry">
            <mxPoint as="offset" />
          </mxGeometry>
        </mxCell>
        <mxCell id="4nZbFx58Cz5zcJhAMKUK-17" style="edgeStyle=orthogonalEdgeStyle;rounded=0;orthogonalLoop=1;jettySize=auto;html=1;entryX=0;entryY=0.5;entryDx=0;entryDy=0;" parent="4nZbFx58Cz5zcJhAMKUK-26" source="IIilCcqDhFFno7Ei3CsS-72" target="IIilCcqDhFFno7Ei3CsS-60" edge="1">
          <mxGeometry relative="1" as="geometry">
            <Array as="points">
              <mxPoint x="1400" y="420" />
              <mxPoint x="1400" y="500" />
            </Array>
          </mxGeometry>
        </mxCell>
        <mxCell id="4nZbFx58Cz5zcJhAMKUK-18" value="Thesis id / download count" style="edgeLabel;html=1;align=center;verticalAlign=middle;resizable=0;points=[];" parent="4nZbFx58Cz5zcJhAMKUK-17" vertex="1" connectable="0">
          <mxGeometry x="-0.5293" relative="1" as="geometry">
            <mxPoint x="33" y="40" as="offset" />
          </mxGeometry>
        </mxCell>
        <mxCell id="4nZbFx58Cz5zcJhAMKUK-22" style="edgeStyle=orthogonalEdgeStyle;rounded=0;orthogonalLoop=1;jettySize=auto;html=1;entryX=0.5;entryY=0;entryDx=0;entryDy=0;" parent="4nZbFx58Cz5zcJhAMKUK-26" source="IIilCcqDhFFno7Ei3CsS-72" target="IIilCcqDhFFno7Ei3CsS-60" edge="1">
          <mxGeometry relative="1" as="geometry">
            <Array as="points">
              <mxPoint x="1540" y="420" />
            </Array>
          </mxGeometry>
        </mxCell>
        <mxCell id="4nZbFx58Cz5zcJhAMKUK-23" value="View count" style="edgeLabel;html=1;align=center;verticalAlign=middle;resizable=0;points=[];" parent="4nZbFx58Cz5zcJhAMKUK-22" vertex="1" connectable="0">
          <mxGeometry x="0.131" relative="1" as="geometry">
            <mxPoint x="1" as="offset" />
          </mxGeometry>
        </mxCell>
        <mxCell id="gGhK-Ux7Nj4NmBZuGKMW-24" value="Comment API" style="swimlane;whiteSpace=wrap;html=1;" parent="4nZbFx58Cz5zcJhAMKUK-26" vertex="1">
          <mxGeometry x="720" y="680" width="200" height="280" as="geometry">
            <mxRectangle x="400" y="200" width="130" height="30" as="alternateBounds" />
          </mxGeometry>
        </mxCell>
        <mxCell id="4nZbFx58Cz5zcJhAMKUK-235" value="Comment" style="rounded=1;whiteSpace=wrap;html=1;" parent="gGhK-Ux7Nj4NmBZuGKMW-24" vertex="1">
          <mxGeometry x="-440" y="40" width="120" height="40" as="geometry" />
        </mxCell>
        <mxCell id="4nZbFx58Cz5zcJhAMKUK-237" value="Comment" style="rounded=1;whiteSpace=wrap;html=1;" parent="gGhK-Ux7Nj4NmBZuGKMW-24" vertex="1">
          <mxGeometry x="480" y="-40" width="120" height="40" as="geometry" />
        </mxCell>
        <mxCell id="4nZbFx58Cz5zcJhAMKUK-238" style="edgeStyle=orthogonalEdgeStyle;rounded=0;orthogonalLoop=1;jettySize=auto;html=1;exitX=0;exitY=0.25;exitDx=0;exitDy=0;entryX=1;entryY=0.25;entryDx=0;entryDy=0;" parent="gGhK-Ux7Nj4NmBZuGKMW-24" source="4nZbFx58Cz5zcJhAMKUK-254" target="4nZbFx58Cz5zcJhAMKUK-235" edge="1">
          <mxGeometry relative="1" as="geometry">
            <mxPoint x="240" y="-60" as="sourcePoint" />
            <Array as="points">
              <mxPoint x="-130" y="50" />
              <mxPoint x="-130" y="50" />
            </Array>
          </mxGeometry>
        </mxCell>
        <mxCell id="4nZbFx58Cz5zcJhAMKUK-239" value="Comment Data" style="edgeLabel;html=1;align=center;verticalAlign=middle;resizable=0;points=[];" parent="4nZbFx58Cz5zcJhAMKUK-238" vertex="1" connectable="0">
          <mxGeometry x="-0.2535" y="1" relative="1" as="geometry">
            <mxPoint x="-95" y="-1" as="offset" />
          </mxGeometry>
        </mxCell>
        <mxCell id="4nZbFx58Cz5zcJhAMKUK-240" style="edgeStyle=orthogonalEdgeStyle;rounded=0;orthogonalLoop=1;jettySize=auto;html=1;entryX=0;entryY=0.5;entryDx=0;entryDy=0;exitX=1;exitY=0.75;exitDx=0;exitDy=0;" parent="gGhK-Ux7Nj4NmBZuGKMW-24" source="4nZbFx58Cz5zcJhAMKUK-235" target="4nZbFx58Cz5zcJhAMKUK-255" edge="1">
          <mxGeometry relative="1" as="geometry">
            <mxPoint x="-390" y="-190" as="sourcePoint" />
            <Array as="points">
              <mxPoint x="-260" y="70" />
              <mxPoint x="-260" y="140" />
            </Array>
          </mxGeometry>
        </mxCell>
        <mxCell id="4nZbFx58Cz5zcJhAMKUK-241" value="Edit comment&amp;nbsp;&lt;div&gt;/ Comment_id&lt;/div&gt;" style="edgeLabel;html=1;align=center;verticalAlign=middle;resizable=0;points=[];" parent="4nZbFx58Cz5zcJhAMKUK-240" vertex="1" connectable="0">
          <mxGeometry x="0.3212" y="-3" relative="1" as="geometry">
            <mxPoint x="-84" y="-3" as="offset" />
          </mxGeometry>
        </mxCell>
        <mxCell id="4nZbFx58Cz5zcJhAMKUK-242" style="edgeStyle=orthogonalEdgeStyle;rounded=0;orthogonalLoop=1;jettySize=auto;html=1;entryX=0;entryY=0.5;entryDx=0;entryDy=0;exitX=1;exitY=0.75;exitDx=0;exitDy=0;" parent="gGhK-Ux7Nj4NmBZuGKMW-24" source="4nZbFx58Cz5zcJhAMKUK-235" target="4nZbFx58Cz5zcJhAMKUK-256" edge="1">
          <mxGeometry relative="1" as="geometry">
            <Array as="points">
              <mxPoint x="-260" y="70" />
              <mxPoint x="-260" y="220" />
            </Array>
          </mxGeometry>
        </mxCell>
        <mxCell id="4nZbFx58Cz5zcJhAMKUK-243" value="Comment" style="edgeLabel;html=1;align=center;verticalAlign=middle;resizable=0;points=[];" parent="4nZbFx58Cz5zcJhAMKUK-242" vertex="1" connectable="0">
          <mxGeometry x="0.3448" y="1" relative="1" as="geometry">
            <mxPoint x="-73" y="1" as="offset" />
          </mxGeometry>
        </mxCell>
        <mxCell id="4nZbFx58Cz5zcJhAMKUK-244" style="edgeStyle=orthogonalEdgeStyle;rounded=0;orthogonalLoop=1;jettySize=auto;html=1;exitX=0;exitY=0.25;exitDx=0;exitDy=0;entryX=1;entryY=0.25;entryDx=0;entryDy=0;" parent="gGhK-Ux7Nj4NmBZuGKMW-24" source="4nZbFx58Cz5zcJhAMKUK-237" target="4nZbFx58Cz5zcJhAMKUK-254" edge="1">
          <mxGeometry relative="1" as="geometry">
            <mxPoint x="480" y="-390" as="sourcePoint" />
            <Array as="points">
              <mxPoint x="360" y="-30" />
              <mxPoint x="360" y="50" />
            </Array>
          </mxGeometry>
        </mxCell>
        <mxCell id="4nZbFx58Cz5zcJhAMKUK-245" value="Comment Data" style="edgeLabel;html=1;align=center;verticalAlign=middle;resizable=0;points=[];" parent="4nZbFx58Cz5zcJhAMKUK-244" vertex="1" connectable="0">
          <mxGeometry x="0.6735" y="1" relative="1" as="geometry">
            <mxPoint x="35" as="offset" />
          </mxGeometry>
        </mxCell>
        <mxCell id="4nZbFx58Cz5zcJhAMKUK-246" style="edgeStyle=orthogonalEdgeStyle;rounded=0;orthogonalLoop=1;jettySize=auto;html=1;entryX=0;entryY=0.75;entryDx=0;entryDy=0;exitX=1;exitY=0.75;exitDx=0;exitDy=0;" parent="gGhK-Ux7Nj4NmBZuGKMW-24" source="4nZbFx58Cz5zcJhAMKUK-235" target="4nZbFx58Cz5zcJhAMKUK-254" edge="1">
          <mxGeometry relative="1" as="geometry">
            <Array as="points">
              <mxPoint x="-140" y="70" />
              <mxPoint x="-140" y="70" />
            </Array>
          </mxGeometry>
        </mxCell>
        <mxCell id="4nZbFx58Cz5zcJhAMKUK-247" value="Thesis id" style="edgeLabel;html=1;align=center;verticalAlign=middle;resizable=0;points=[];" parent="4nZbFx58Cz5zcJhAMKUK-246" vertex="1" connectable="0">
          <mxGeometry x="0.47" y="-1" relative="1" as="geometry">
            <mxPoint x="-135" as="offset" />
          </mxGeometry>
        </mxCell>
        <mxCell id="4nZbFx58Cz5zcJhAMKUK-248" style="edgeStyle=orthogonalEdgeStyle;rounded=0;orthogonalLoop=1;jettySize=auto;html=1;entryX=0;entryY=0.75;entryDx=0;entryDy=0;exitX=1;exitY=0.5;exitDx=0;exitDy=0;" parent="gGhK-Ux7Nj4NmBZuGKMW-24" source="4nZbFx58Cz5zcJhAMKUK-255" target="4nZbFx58Cz5zcJhAMKUK-237" edge="1">
          <mxGeometry relative="1" as="geometry">
            <mxPoint x="480" y="-370" as="targetPoint" />
            <Array as="points">
              <mxPoint x="400" y="140" />
              <mxPoint x="400" y="-10" />
            </Array>
          </mxGeometry>
        </mxCell>
        <mxCell id="4nZbFx58Cz5zcJhAMKUK-249" value="Edit comment" style="edgeLabel;html=1;align=center;verticalAlign=middle;resizable=0;points=[];" parent="4nZbFx58Cz5zcJhAMKUK-248" vertex="1" connectable="0">
          <mxGeometry x="-0.7517" y="-1" relative="1" as="geometry">
            <mxPoint x="42" y="-1" as="offset" />
          </mxGeometry>
        </mxCell>
        <mxCell id="4nZbFx58Cz5zcJhAMKUK-250" style="edgeStyle=orthogonalEdgeStyle;rounded=0;orthogonalLoop=1;jettySize=auto;html=1;entryX=0;entryY=0.75;entryDx=0;entryDy=0;exitX=1;exitY=0.75;exitDx=0;exitDy=0;" parent="gGhK-Ux7Nj4NmBZuGKMW-24" source="4nZbFx58Cz5zcJhAMKUK-254" target="4nZbFx58Cz5zcJhAMKUK-237" edge="1">
          <mxGeometry relative="1" as="geometry">
            <mxPoint x="480" y="-370" as="targetPoint" />
            <Array as="points">
              <mxPoint x="360" y="70" />
              <mxPoint x="360" y="140" />
              <mxPoint x="400" y="140" />
              <mxPoint x="400" y="-10" />
            </Array>
          </mxGeometry>
        </mxCell>
        <mxCell id="4nZbFx58Cz5zcJhAMKUK-251" value="Thesis id" style="edgeLabel;html=1;align=center;verticalAlign=middle;resizable=0;points=[];" parent="4nZbFx58Cz5zcJhAMKUK-250" vertex="1" connectable="0">
          <mxGeometry x="-0.7095" relative="1" as="geometry">
            <mxPoint x="22" as="offset" />
          </mxGeometry>
        </mxCell>
        <mxCell id="4nZbFx58Cz5zcJhAMKUK-252" style="edgeStyle=orthogonalEdgeStyle;rounded=0;orthogonalLoop=1;jettySize=auto;html=1;entryX=0;entryY=0.75;entryDx=0;entryDy=0;" parent="gGhK-Ux7Nj4NmBZuGKMW-24" source="4nZbFx58Cz5zcJhAMKUK-256" target="4nZbFx58Cz5zcJhAMKUK-237" edge="1">
          <mxGeometry relative="1" as="geometry">
            <mxPoint x="740" y="70" as="targetPoint" />
            <Array as="points">
              <mxPoint x="360" y="220" />
              <mxPoint x="360" y="140" />
              <mxPoint x="400" y="140" />
              <mxPoint x="400" y="-10" />
            </Array>
          </mxGeometry>
        </mxCell>
        <mxCell id="4nZbFx58Cz5zcJhAMKUK-253" value="Comment" style="edgeLabel;html=1;align=center;verticalAlign=middle;resizable=0;points=[];" parent="4nZbFx58Cz5zcJhAMKUK-252" vertex="1" connectable="0">
          <mxGeometry x="-0.7315" y="3" relative="1" as="geometry">
            <mxPoint x="26" y="3" as="offset" />
          </mxGeometry>
        </mxCell>
        <mxCell id="4nZbFx58Cz5zcJhAMKUK-254" value="Get comment" style="rounded=1;whiteSpace=wrap;html=1;" parent="gGhK-Ux7Nj4NmBZuGKMW-24" vertex="1">
          <mxGeometry x="40" y="40" width="120" height="40" as="geometry" />
        </mxCell>
        <mxCell id="4nZbFx58Cz5zcJhAMKUK-255" value="Comment edit" style="rounded=1;whiteSpace=wrap;html=1;" parent="gGhK-Ux7Nj4NmBZuGKMW-24" vertex="1">
          <mxGeometry x="40" y="120" width="120" height="40" as="geometry" />
        </mxCell>
        <mxCell id="4nZbFx58Cz5zcJhAMKUK-256" value="New Comment" style="rounded=1;whiteSpace=wrap;html=1;" parent="gGhK-Ux7Nj4NmBZuGKMW-24" vertex="1">
          <mxGeometry x="40" y="200" width="120" height="40" as="geometry" />
        </mxCell>
        <mxCell id="4nZbFx58Cz5zcJhAMKUK-257" style="edgeStyle=orthogonalEdgeStyle;rounded=0;orthogonalLoop=1;jettySize=auto;html=1;entryX=1;entryY=0.25;entryDx=0;entryDy=0;exitX=0;exitY=0.5;exitDx=0;exitDy=0;startArrow=classic;startFill=1;" parent="4nZbFx58Cz5zcJhAMKUK-26" source="4nZbFx58Cz5zcJhAMKUK-236" target="4nZbFx58Cz5zcJhAMKUK-237" edge="1">
          <mxGeometry relative="1" as="geometry">
            <Array as="points">
              <mxPoint x="1420" y="580" />
              <mxPoint x="1420" y="650" />
            </Array>
          </mxGeometry>
        </mxCell>
        <mxCell id="4nZbFx58Cz5zcJhAMKUK-258" value="Comment Data" style="edgeLabel;html=1;align=center;verticalAlign=middle;resizable=0;points=[];" parent="4nZbFx58Cz5zcJhAMKUK-257" vertex="1" connectable="0">
          <mxGeometry x="0.5929" relative="1" as="geometry">
            <mxPoint x="31" y="-40" as="offset" />
          </mxGeometry>
        </mxCell>
        <mxCell id="58ij7AsYlfpfPglQp_S_-13" style="edgeStyle=orthogonalEdgeStyle;rounded=0;orthogonalLoop=1;jettySize=auto;html=1;exitX=1;exitY=0.75;exitDx=0;exitDy=0;entryX=0;entryY=0.75;entryDx=0;entryDy=0;" parent="4nZbFx58Cz5zcJhAMKUK-26" source="4nZbFx58Cz5zcJhAMKUK-237" target="58ij7AsYlfpfPglQp_S_-12" edge="1">
          <mxGeometry relative="1" as="geometry" />
        </mxCell>
        <mxCell id="58ij7AsYlfpfPglQp_S_-14" value="Comment Data" style="edgeLabel;html=1;align=center;verticalAlign=middle;resizable=0;points=[];" parent="58ij7AsYlfpfPglQp_S_-13" vertex="1" connectable="0">
          <mxGeometry x="-0.0964" y="-2" relative="1" as="geometry">
            <mxPoint x="7" y="-2" as="offset" />
          </mxGeometry>
        </mxCell>
        <mxCell id="4nZbFx58Cz5zcJhAMKUK-27" value="Student Structor" style="swimlane;whiteSpace=wrap;html=1;startSize=40;" parent="1" vertex="1">
          <mxGeometry x="40" y="1080" width="1720" height="1640" as="geometry" />
        </mxCell>
        <mxCell id="4nZbFx58Cz5zcJhAMKUK-28" value="User function" style="swimlane;whiteSpace=wrap;html=1;" parent="4nZbFx58Cz5zcJhAMKUK-27" vertex="1">
          <mxGeometry x="240" y="200" width="200" height="1400" as="geometry">
            <mxRectangle x="400" y="200" width="130" height="30" as="alternateBounds" />
          </mxGeometry>
        </mxCell>
        <mxCell id="4nZbFx58Cz5zcJhAMKUK-31" value="Login" style="rounded=1;whiteSpace=wrap;html=1;" parent="4nZbFx58Cz5zcJhAMKUK-28" vertex="1">
          <mxGeometry x="40" y="120" width="120" height="40" as="geometry" />
        </mxCell>
        <mxCell id="4nZbFx58Cz5zcJhAMKUK-32" value="Register" style="rounded=1;whiteSpace=wrap;html=1;" parent="4nZbFx58Cz5zcJhAMKUK-28" vertex="1">
          <mxGeometry x="40" y="40" width="120" height="40" as="geometry" />
        </mxCell>
        <mxCell id="4nZbFx58Cz5zcJhAMKUK-30" value="Comment" style="rounded=1;whiteSpace=wrap;html=1;" parent="4nZbFx58Cz5zcJhAMKUK-28" vertex="1">
          <mxGeometry x="40" y="320" width="120" height="40" as="geometry" />
        </mxCell>
        <mxCell id="4nZbFx58Cz5zcJhAMKUK-154" value="Student funtion" style="swimlane;whiteSpace=wrap;html=1;" parent="4nZbFx58Cz5zcJhAMKUK-28" vertex="1">
          <mxGeometry x="20" y="920" width="160" height="440" as="geometry">
            <mxRectangle x="400" y="200" width="130" height="30" as="alternateBounds" />
          </mxGeometry>
        </mxCell>
        <mxCell id="4nZbFx58Cz5zcJhAMKUK-145" value="Upload" style="rounded=1;whiteSpace=wrap;html=1;" parent="4nZbFx58Cz5zcJhAMKUK-154" vertex="1">
          <mxGeometry x="20" y="40" width="120" height="40" as="geometry" />
        </mxCell>
        <mxCell id="58ij7AsYlfpfPglQp_S_-1" value="Notification" style="rounded=1;whiteSpace=wrap;html=1;" parent="4nZbFx58Cz5zcJhAMKUK-154" vertex="1">
          <mxGeometry x="20" y="280" width="120" height="40" as="geometry" />
        </mxCell>
        <mxCell id="4nZbFx58Cz5zcJhAMKUK-33" value="API Before login Server" style="swimlane;whiteSpace=wrap;html=1;" parent="4nZbFx58Cz5zcJhAMKUK-27" vertex="1">
          <mxGeometry x="600" y="120" width="440" height="280" as="geometry">
            <mxRectangle x="400" y="200" width="130" height="30" as="alternateBounds" />
          </mxGeometry>
        </mxCell>
        <mxCell id="4nZbFx58Cz5zcJhAMKUK-34" style="edgeStyle=orthogonalEdgeStyle;rounded=0;orthogonalLoop=1;jettySize=auto;html=1;entryX=0;entryY=0.25;entryDx=0;entryDy=0;exitX=1;exitY=0.25;exitDx=0;exitDy=0;" parent="4nZbFx58Cz5zcJhAMKUK-33" source="4nZbFx58Cz5zcJhAMKUK-38" target="4nZbFx58Cz5zcJhAMKUK-41" edge="1">
          <mxGeometry relative="1" as="geometry">
            <Array as="points">
              <mxPoint x="250" y="50" />
              <mxPoint x="250" y="50" />
            </Array>
          </mxGeometry>
        </mxCell>
        <mxCell id="4nZbFx58Cz5zcJhAMKUK-35" value="Username" style="edgeLabel;html=1;align=center;verticalAlign=middle;resizable=0;points=[];" parent="4nZbFx58Cz5zcJhAMKUK-34" vertex="1" connectable="0">
          <mxGeometry x="-0.195" y="1" relative="1" as="geometry">
            <mxPoint x="12" y="1" as="offset" />
          </mxGeometry>
        </mxCell>
        <mxCell id="4nZbFx58Cz5zcJhAMKUK-36" style="edgeStyle=orthogonalEdgeStyle;rounded=0;orthogonalLoop=1;jettySize=auto;html=1;entryX=0.25;entryY=0;entryDx=0;entryDy=0;exitX=0.25;exitY=1;exitDx=0;exitDy=0;" parent="4nZbFx58Cz5zcJhAMKUK-33" source="4nZbFx58Cz5zcJhAMKUK-38" target="4nZbFx58Cz5zcJhAMKUK-51" edge="1">
          <mxGeometry relative="1" as="geometry" />
        </mxCell>
        <mxCell id="4nZbFx58Cz5zcJhAMKUK-37" value="Password" style="edgeLabel;html=1;align=center;verticalAlign=middle;resizable=0;points=[];" parent="4nZbFx58Cz5zcJhAMKUK-36" vertex="1" connectable="0">
          <mxGeometry x="-0.05" y="1" relative="1" as="geometry">
            <mxPoint x="-11" as="offset" />
          </mxGeometry>
        </mxCell>
        <mxCell id="4nZbFx58Cz5zcJhAMKUK-38" value="Create account" style="rounded=1;whiteSpace=wrap;html=1;" parent="4nZbFx58Cz5zcJhAMKUK-33" vertex="1">
          <mxGeometry x="40" y="40" width="120" height="40" as="geometry" />
        </mxCell>
        <mxCell id="4nZbFx58Cz5zcJhAMKUK-39" style="edgeStyle=orthogonalEdgeStyle;rounded=0;orthogonalLoop=1;jettySize=auto;html=1;entryX=1;entryY=0.75;entryDx=0;entryDy=0;exitX=0.75;exitY=1;exitDx=0;exitDy=0;" parent="4nZbFx58Cz5zcJhAMKUK-33" source="4nZbFx58Cz5zcJhAMKUK-41" target="4nZbFx58Cz5zcJhAMKUK-44" edge="1">
          <mxGeometry relative="1" as="geometry">
            <Array as="points">
              <mxPoint x="370" y="230" />
            </Array>
          </mxGeometry>
        </mxCell>
        <mxCell id="4nZbFx58Cz5zcJhAMKUK-40" value="True /False" style="edgeLabel;html=1;align=center;verticalAlign=middle;resizable=0;points=[];" parent="4nZbFx58Cz5zcJhAMKUK-39" vertex="1" connectable="0">
          <mxGeometry x="0.5032" y="2" relative="1" as="geometry">
            <mxPoint as="offset" />
          </mxGeometry>
        </mxCell>
        <mxCell id="4nZbFx58Cz5zcJhAMKUK-41" value="Compare account" style="rounded=1;whiteSpace=wrap;html=1;" parent="4nZbFx58Cz5zcJhAMKUK-33" vertex="1">
          <mxGeometry x="280" y="40" width="120" height="40" as="geometry" />
        </mxCell>
        <mxCell id="4nZbFx58Cz5zcJhAMKUK-42" style="edgeStyle=orthogonalEdgeStyle;rounded=0;orthogonalLoop=1;jettySize=auto;html=1;entryX=0.25;entryY=1;entryDx=0;entryDy=0;exitX=1;exitY=0.25;exitDx=0;exitDy=0;" parent="4nZbFx58Cz5zcJhAMKUK-33" source="4nZbFx58Cz5zcJhAMKUK-44" target="4nZbFx58Cz5zcJhAMKUK-41" edge="1">
          <mxGeometry relative="1" as="geometry" />
        </mxCell>
        <mxCell id="4nZbFx58Cz5zcJhAMKUK-43" value="Username" style="edgeLabel;html=1;align=center;verticalAlign=middle;resizable=0;points=[];" parent="4nZbFx58Cz5zcJhAMKUK-42" vertex="1" connectable="0">
          <mxGeometry x="-0.6102" relative="1" as="geometry">
            <mxPoint x="15" as="offset" />
          </mxGeometry>
        </mxCell>
        <mxCell id="4nZbFx58Cz5zcJhAMKUK-44" value="Login" style="rounded=1;whiteSpace=wrap;html=1;" parent="4nZbFx58Cz5zcJhAMKUK-33" vertex="1">
          <mxGeometry x="40" y="200" width="120" height="40" as="geometry" />
        </mxCell>
        <mxCell id="4nZbFx58Cz5zcJhAMKUK-45" style="edgeStyle=orthogonalEdgeStyle;rounded=0;orthogonalLoop=1;jettySize=auto;html=1;entryX=0.25;entryY=0;entryDx=0;entryDy=0;exitX=0.25;exitY=1;exitDx=0;exitDy=0;" parent="4nZbFx58Cz5zcJhAMKUK-33" source="4nZbFx58Cz5zcJhAMKUK-51" target="4nZbFx58Cz5zcJhAMKUK-44" edge="1">
          <mxGeometry relative="1" as="geometry" />
        </mxCell>
        <mxCell id="4nZbFx58Cz5zcJhAMKUK-46" value="Password" style="edgeLabel;html=1;align=center;verticalAlign=middle;resizable=0;points=[];" parent="4nZbFx58Cz5zcJhAMKUK-45" vertex="1" connectable="0">
          <mxGeometry x="-0.04" y="-1" relative="1" as="geometry">
            <mxPoint as="offset" />
          </mxGeometry>
        </mxCell>
        <mxCell id="4nZbFx58Cz5zcJhAMKUK-47" style="edgeStyle=orthogonalEdgeStyle;rounded=0;orthogonalLoop=1;jettySize=auto;html=1;exitX=0.75;exitY=0;exitDx=0;exitDy=0;entryX=0.75;entryY=1;entryDx=0;entryDy=0;" parent="4nZbFx58Cz5zcJhAMKUK-33" source="4nZbFx58Cz5zcJhAMKUK-44" target="4nZbFx58Cz5zcJhAMKUK-51" edge="1">
          <mxGeometry relative="1" as="geometry">
            <Array as="points">
              <mxPoint x="130" y="180" />
              <mxPoint x="130" y="180" />
            </Array>
          </mxGeometry>
        </mxCell>
        <mxCell id="4nZbFx58Cz5zcJhAMKUK-48" value="Hash word" style="edgeLabel;html=1;align=center;verticalAlign=middle;resizable=0;points=[];" parent="4nZbFx58Cz5zcJhAMKUK-47" vertex="1" connectable="0">
          <mxGeometry x="-0.02" y="1" relative="1" as="geometry">
            <mxPoint as="offset" />
          </mxGeometry>
        </mxCell>
        <mxCell id="4nZbFx58Cz5zcJhAMKUK-49" style="edgeStyle=orthogonalEdgeStyle;rounded=0;orthogonalLoop=1;jettySize=auto;html=1;entryX=0.5;entryY=1;entryDx=0;entryDy=0;exitX=0.5;exitY=0;exitDx=0;exitDy=0;" parent="4nZbFx58Cz5zcJhAMKUK-33" source="4nZbFx58Cz5zcJhAMKUK-51" target="4nZbFx58Cz5zcJhAMKUK-38" edge="1">
          <mxGeometry relative="1" as="geometry" />
        </mxCell>
        <mxCell id="4nZbFx58Cz5zcJhAMKUK-50" value="Hash word" style="edgeLabel;html=1;align=center;verticalAlign=middle;resizable=0;points=[];" parent="4nZbFx58Cz5zcJhAMKUK-49" vertex="1" connectable="0">
          <mxGeometry x="-0.1167" relative="1" as="geometry">
            <mxPoint x="20" y="8" as="offset" />
          </mxGeometry>
        </mxCell>
        <mxCell id="4nZbFx58Cz5zcJhAMKUK-51" value="Hash function" style="rounded=1;whiteSpace=wrap;html=1;" parent="4nZbFx58Cz5zcJhAMKUK-33" vertex="1">
          <mxGeometry x="40" y="120" width="120" height="40" as="geometry" />
        </mxCell>
        <mxCell id="4nZbFx58Cz5zcJhAMKUK-52" style="edgeStyle=orthogonalEdgeStyle;rounded=0;orthogonalLoop=1;jettySize=auto;html=1;entryX=1;entryY=0.75;entryDx=0;entryDy=0;exitX=0;exitY=0.75;exitDx=0;exitDy=0;" parent="4nZbFx58Cz5zcJhAMKUK-33" source="4nZbFx58Cz5zcJhAMKUK-41" target="4nZbFx58Cz5zcJhAMKUK-38" edge="1">
          <mxGeometry relative="1" as="geometry">
            <mxPoint x="170" y="60" as="sourcePoint" />
            <mxPoint x="250" y="60" as="targetPoint" />
            <Array as="points">
              <mxPoint x="230" y="70" />
              <mxPoint x="230" y="70" />
            </Array>
          </mxGeometry>
        </mxCell>
        <mxCell id="4nZbFx58Cz5zcJhAMKUK-53" value="True / False" style="edgeLabel;html=1;align=center;verticalAlign=middle;resizable=0;points=[];" parent="4nZbFx58Cz5zcJhAMKUK-52" vertex="1" connectable="0">
          <mxGeometry x="0.035" y="1" relative="1" as="geometry">
            <mxPoint x="2" y="-1" as="offset" />
          </mxGeometry>
        </mxCell>
        <mxCell id="4nZbFx58Cz5zcJhAMKUK-56" value="Database" style="swimlane;whiteSpace=wrap;html=1;" parent="4nZbFx58Cz5zcJhAMKUK-27" vertex="1">
          <mxGeometry x="1480" y="120" width="200" height="1120" as="geometry">
            <mxRectangle x="400" y="200" width="130" height="30" as="alternateBounds" />
          </mxGeometry>
        </mxCell>
        <mxCell id="4nZbFx58Cz5zcJhAMKUK-57" value="user" style="html=1;dashed=0;whiteSpace=wrap;shape=partialRectangle;right=0;" parent="4nZbFx58Cz5zcJhAMKUK-56" vertex="1">
          <mxGeometry x="40" y="40" width="120" height="40" as="geometry" />
        </mxCell>
        <mxCell id="58ij7AsYlfpfPglQp_S_-9" value="sub comment" style="html=1;dashed=0;whiteSpace=wrap;shape=partialRectangle;right=0;" parent="4nZbFx58Cz5zcJhAMKUK-56" vertex="1">
          <mxGeometry x="40" y="400" width="120" height="40" as="geometry" />
        </mxCell>
        <mxCell id="4nZbFx58Cz5zcJhAMKUK-61" value="comment" style="html=1;dashed=0;whiteSpace=wrap;shape=partialRectangle;right=0;" parent="4nZbFx58Cz5zcJhAMKUK-56" vertex="1">
          <mxGeometry x="40" y="320" width="120" height="40" as="geometry" />
        </mxCell>
        <mxCell id="4nZbFx58Cz5zcJhAMKUK-59" value="statistic" style="html=1;dashed=0;whiteSpace=wrap;shape=partialRectangle;right=0;" parent="4nZbFx58Cz5zcJhAMKUK-56" vertex="1">
          <mxGeometry x="40" y="640" width="120" height="40" as="geometry" />
        </mxCell>
        <mxCell id="4nZbFx58Cz5zcJhAMKUK-58" value="thesis" style="html=1;dashed=0;whiteSpace=wrap;shape=partialRectangle;right=0;" parent="4nZbFx58Cz5zcJhAMKUK-56" vertex="1">
          <mxGeometry x="40" y="720" width="120" height="40" as="geometry" />
        </mxCell>
        <mxCell id="4nZbFx58Cz5zcJhAMKUK-60" value="thesis-storage" style="html=1;dashed=0;whiteSpace=wrap;shape=partialRectangle;right=0;" parent="4nZbFx58Cz5zcJhAMKUK-56" vertex="1">
          <mxGeometry x="40" y="800" width="120" height="40" as="geometry" />
        </mxCell>
        <mxCell id="5X5vawwxVvFnSc0c-8mw-15" value="notice-object" style="html=1;dashed=0;whiteSpace=wrap;shape=partialRectangle;right=0;" parent="4nZbFx58Cz5zcJhAMKUK-56" vertex="1">
          <mxGeometry x="40" y="1039" width="120" height="40" as="geometry" />
        </mxCell>
        <mxCell id="5X5vawwxVvFnSc0c-8mw-16" value="notice" style="html=1;dashed=0;whiteSpace=wrap;shape=partialRectangle;right=0;" parent="4nZbFx58Cz5zcJhAMKUK-56" vertex="1">
          <mxGeometry x="40" y="959" width="120" height="40" as="geometry" />
        </mxCell>
        <mxCell id="5X5vawwxVvFnSc0c-8mw-17" value="notice-reciver" style="html=1;dashed=0;whiteSpace=wrap;shape=partialRectangle;right=0;" parent="4nZbFx58Cz5zcJhAMKUK-56" vertex="1">
          <mxGeometry x="40" y="880" width="120" height="40" as="geometry" />
        </mxCell>
        <mxCell id="4nZbFx58Cz5zcJhAMKUK-62" style="edgeStyle=orthogonalEdgeStyle;rounded=0;orthogonalLoop=1;jettySize=auto;html=1;entryX=0;entryY=0.5;entryDx=0;entryDy=0;" parent="4nZbFx58Cz5zcJhAMKUK-27" source="4nZbFx58Cz5zcJhAMKUK-66" target="4nZbFx58Cz5zcJhAMKUK-29" edge="1">
          <mxGeometry relative="1" as="geometry" />
        </mxCell>
        <mxCell id="4nZbFx58Cz5zcJhAMKUK-64" style="edgeStyle=orthogonalEdgeStyle;rounded=0;orthogonalLoop=1;jettySize=auto;html=1;entryX=0;entryY=0.5;entryDx=0;entryDy=0;" parent="4nZbFx58Cz5zcJhAMKUK-27" source="4nZbFx58Cz5zcJhAMKUK-66" target="4nZbFx58Cz5zcJhAMKUK-32" edge="1">
          <mxGeometry relative="1" as="geometry" />
        </mxCell>
        <mxCell id="4nZbFx58Cz5zcJhAMKUK-65" style="edgeStyle=orthogonalEdgeStyle;rounded=0;orthogonalLoop=1;jettySize=auto;html=1;entryX=0;entryY=0.5;entryDx=0;entryDy=0;" parent="4nZbFx58Cz5zcJhAMKUK-27" source="4nZbFx58Cz5zcJhAMKUK-66" target="4nZbFx58Cz5zcJhAMKUK-31" edge="1">
          <mxGeometry relative="1" as="geometry" />
        </mxCell>
        <mxCell id="4nZbFx58Cz5zcJhAMKUK-66" value="Student" style="html=1;dashed=0;whiteSpace=wrap;" parent="4nZbFx58Cz5zcJhAMKUK-27" vertex="1">
          <mxGeometry x="40" y="320" width="120" height="40" as="geometry" />
        </mxCell>
        <mxCell id="4nZbFx58Cz5zcJhAMKUK-67" style="edgeStyle=orthogonalEdgeStyle;rounded=0;orthogonalLoop=1;jettySize=auto;html=1;entryX=0;entryY=0.5;entryDx=0;entryDy=0;" parent="4nZbFx58Cz5zcJhAMKUK-27" source="4nZbFx58Cz5zcJhAMKUK-32" target="4nZbFx58Cz5zcJhAMKUK-38" edge="1">
          <mxGeometry relative="1" as="geometry">
            <Array as="points">
              <mxPoint x="520" y="260" />
              <mxPoint x="520" y="180" />
            </Array>
          </mxGeometry>
        </mxCell>
        <mxCell id="4nZbFx58Cz5zcJhAMKUK-68" value="Username &amp;amp; Password&lt;div&gt;&lt;div&gt;[Student_id]@rsu.ac.th&lt;/div&gt;&lt;/div&gt;" style="edgeLabel;html=1;align=center;verticalAlign=middle;resizable=0;points=[];" parent="4nZbFx58Cz5zcJhAMKUK-67" vertex="1" connectable="0">
          <mxGeometry x="-0.0738" y="1" relative="1" as="geometry">
            <mxPoint x="1" y="-12" as="offset" />
          </mxGeometry>
        </mxCell>
        <mxCell id="4nZbFx58Cz5zcJhAMKUK-69" style="edgeStyle=orthogonalEdgeStyle;rounded=0;orthogonalLoop=1;jettySize=auto;html=1;entryX=0;entryY=0.25;entryDx=0;entryDy=0;exitX=1;exitY=0.25;exitDx=0;exitDy=0;" parent="4nZbFx58Cz5zcJhAMKUK-27" source="4nZbFx58Cz5zcJhAMKUK-31" target="4nZbFx58Cz5zcJhAMKUK-44" edge="1">
          <mxGeometry relative="1" as="geometry">
            <Array as="points">
              <mxPoint x="440" y="330" />
            </Array>
          </mxGeometry>
        </mxCell>
        <mxCell id="4nZbFx58Cz5zcJhAMKUK-70" value="Username &amp;amp; Password" style="edgeLabel;html=1;align=center;verticalAlign=middle;resizable=0;points=[];" parent="4nZbFx58Cz5zcJhAMKUK-69" vertex="1" connectable="0">
          <mxGeometry x="-0.1119" relative="1" as="geometry">
            <mxPoint x="17" as="offset" />
          </mxGeometry>
        </mxCell>
        <mxCell id="4nZbFx58Cz5zcJhAMKUK-71" style="edgeStyle=orthogonalEdgeStyle;rounded=0;orthogonalLoop=1;jettySize=auto;html=1;entryX=1;entryY=0.75;entryDx=0;entryDy=0;exitX=0;exitY=0.75;exitDx=0;exitDy=0;" parent="4nZbFx58Cz5zcJhAMKUK-27" source="4nZbFx58Cz5zcJhAMKUK-44" target="4nZbFx58Cz5zcJhAMKUK-31" edge="1">
          <mxGeometry relative="1" as="geometry">
            <Array as="points">
              <mxPoint x="440" y="350" />
            </Array>
          </mxGeometry>
        </mxCell>
        <mxCell id="4nZbFx58Cz5zcJhAMKUK-72" value="user_id" style="edgeLabel;html=1;align=center;verticalAlign=middle;resizable=0;points=[];" parent="4nZbFx58Cz5zcJhAMKUK-71" vertex="1" connectable="0">
          <mxGeometry x="-0.1446" y="-1" relative="1" as="geometry">
            <mxPoint x="-17" y="1" as="offset" />
          </mxGeometry>
        </mxCell>
        <mxCell id="4nZbFx58Cz5zcJhAMKUK-73" style="rounded=0;orthogonalLoop=1;jettySize=auto;html=1;entryX=0.5;entryY=0;entryDx=0;entryDy=0;exitX=0.5;exitY=0;exitDx=0;exitDy=0;edgeStyle=orthogonalEdgeStyle;" parent="4nZbFx58Cz5zcJhAMKUK-27" source="4nZbFx58Cz5zcJhAMKUK-38" target="4nZbFx58Cz5zcJhAMKUK-82" edge="1">
          <mxGeometry relative="1" as="geometry">
            <Array as="points">
              <mxPoint x="700" y="80" />
              <mxPoint x="1260" y="80" />
            </Array>
          </mxGeometry>
        </mxCell>
        <mxCell id="4nZbFx58Cz5zcJhAMKUK-74" value="Username &amp;amp; Hash word" style="edgeLabel;html=1;align=center;verticalAlign=middle;resizable=0;points=[];" parent="4nZbFx58Cz5zcJhAMKUK-73" vertex="1" connectable="0">
          <mxGeometry x="0.0683" y="-2" relative="1" as="geometry">
            <mxPoint x="-32" y="-2" as="offset" />
          </mxGeometry>
        </mxCell>
        <mxCell id="4nZbFx58Cz5zcJhAMKUK-75" value="API Database" style="swimlane;whiteSpace=wrap;html=1;" parent="4nZbFx58Cz5zcJhAMKUK-27" vertex="1">
          <mxGeometry x="1160" y="120" width="200" height="1440" as="geometry">
            <mxRectangle x="400" y="200" width="130" height="30" as="alternateBounds" />
          </mxGeometry>
        </mxCell>
        <mxCell id="4nZbFx58Cz5zcJhAMKUK-76" style="edgeStyle=orthogonalEdgeStyle;rounded=0;orthogonalLoop=1;jettySize=auto;html=1;entryX=0;entryY=0.25;entryDx=0;entryDy=0;exitX=1;exitY=0.25;exitDx=0;exitDy=0;" parent="4nZbFx58Cz5zcJhAMKUK-75" edge="1">
          <mxGeometry relative="1" as="geometry">
            <mxPoint x="160" y="50" as="sourcePoint" />
            <Array as="points">
              <mxPoint x="250" y="50" />
              <mxPoint x="250" y="50" />
            </Array>
          </mxGeometry>
        </mxCell>
        <mxCell id="4nZbFx58Cz5zcJhAMKUK-77" value="Username" style="edgeLabel;html=1;align=center;verticalAlign=middle;resizable=0;points=[];" parent="4nZbFx58Cz5zcJhAMKUK-76" vertex="1" connectable="0">
          <mxGeometry x="-0.195" y="1" relative="1" as="geometry">
            <mxPoint x="12" y="1" as="offset" />
          </mxGeometry>
        </mxCell>
        <mxCell id="4nZbFx58Cz5zcJhAMKUK-78" style="edgeStyle=orthogonalEdgeStyle;rounded=0;orthogonalLoop=1;jettySize=auto;html=1;entryX=0.25;entryY=0;entryDx=0;entryDy=0;exitX=0.25;exitY=1;exitDx=0;exitDy=0;" parent="4nZbFx58Cz5zcJhAMKUK-75" edge="1">
          <mxGeometry relative="1" as="geometry">
            <mxPoint x="70" y="80" as="sourcePoint" />
          </mxGeometry>
        </mxCell>
        <mxCell id="4nZbFx58Cz5zcJhAMKUK-79" style="edgeStyle=orthogonalEdgeStyle;rounded=0;orthogonalLoop=1;jettySize=auto;html=1;entryX=0.5;entryY=0;entryDx=0;entryDy=0;" parent="4nZbFx58Cz5zcJhAMKUK-75" edge="1">
          <mxGeometry relative="1" as="geometry">
            <mxPoint x="100" y="160" as="sourcePoint" />
          </mxGeometry>
        </mxCell>
        <mxCell id="4nZbFx58Cz5zcJhAMKUK-80" style="edgeStyle=orthogonalEdgeStyle;rounded=0;orthogonalLoop=1;jettySize=auto;html=1;exitX=1;exitY=0.25;exitDx=0;exitDy=0;" parent="4nZbFx58Cz5zcJhAMKUK-75" edge="1">
          <mxGeometry relative="1" as="geometry">
            <mxPoint x="160" y="140" as="targetPoint" />
            <Array as="points">
              <mxPoint x="180" y="210" />
              <mxPoint x="180" y="140" />
            </Array>
          </mxGeometry>
        </mxCell>
        <mxCell id="4nZbFx58Cz5zcJhAMKUK-81" style="edgeStyle=orthogonalEdgeStyle;rounded=0;orthogonalLoop=1;jettySize=auto;html=1;entryX=0.75;entryY=1;entryDx=0;entryDy=0;exitX=0.75;exitY=0;exitDx=0;exitDy=0;" parent="4nZbFx58Cz5zcJhAMKUK-75" edge="1">
          <mxGeometry relative="1" as="geometry">
            <mxPoint x="130" y="80" as="targetPoint" />
          </mxGeometry>
        </mxCell>
        <mxCell id="4nZbFx58Cz5zcJhAMKUK-82" value="User" style="rounded=1;whiteSpace=wrap;html=1;" parent="4nZbFx58Cz5zcJhAMKUK-75" vertex="1">
          <mxGeometry x="40" y="40" width="120" height="40" as="geometry" />
        </mxCell>
        <mxCell id="4nZbFx58Cz5zcJhAMKUK-83" style="edgeStyle=orthogonalEdgeStyle;rounded=0;orthogonalLoop=1;jettySize=auto;html=1;entryX=0.5;entryY=1;entryDx=0;entryDy=0;" parent="4nZbFx58Cz5zcJhAMKUK-75" source="4nZbFx58Cz5zcJhAMKUK-85" target="4nZbFx58Cz5zcJhAMKUK-86" edge="1">
          <mxGeometry relative="1" as="geometry">
            <Array as="points" />
          </mxGeometry>
        </mxCell>
        <mxCell id="4nZbFx58Cz5zcJhAMKUK-84" value="View count / thesis id" style="edgeLabel;html=1;align=center;verticalAlign=middle;resizable=0;points=[];" parent="4nZbFx58Cz5zcJhAMKUK-83" vertex="1" connectable="0">
          <mxGeometry x="-0.0278" relative="1" as="geometry">
            <mxPoint y="-1" as="offset" />
          </mxGeometry>
        </mxCell>
        <mxCell id="4nZbFx58Cz5zcJhAMKUK-89" style="edgeStyle=orthogonalEdgeStyle;rounded=0;orthogonalLoop=1;jettySize=auto;html=1;entryX=0.5;entryY=0;entryDx=0;entryDy=0;" parent="4nZbFx58Cz5zcJhAMKUK-75" source="4nZbFx58Cz5zcJhAMKUK-87" target="4nZbFx58Cz5zcJhAMKUK-88" edge="1">
          <mxGeometry relative="1" as="geometry" />
        </mxCell>
        <mxCell id="4nZbFx58Cz5zcJhAMKUK-86" value="Statistic" style="rounded=1;whiteSpace=wrap;html=1;" parent="4nZbFx58Cz5zcJhAMKUK-75" vertex="1">
          <mxGeometry x="40" y="640" width="120" height="40" as="geometry" />
        </mxCell>
        <mxCell id="4nZbFx58Cz5zcJhAMKUK-87" value="Trigger monthly" style="rounded=1;whiteSpace=wrap;html=1;" parent="4nZbFx58Cz5zcJhAMKUK-75" vertex="1">
          <mxGeometry x="40" y="480" width="120" height="40" as="geometry" />
        </mxCell>
        <mxCell id="4nZbFx58Cz5zcJhAMKUK-88" value="Update top thesis" style="rounded=1;whiteSpace=wrap;html=1;" parent="4nZbFx58Cz5zcJhAMKUK-75" vertex="1">
          <mxGeometry x="40" y="560" width="120" height="40" as="geometry" />
        </mxCell>
        <mxCell id="YrC-N434iFFY0tVC18DP-6" style="edgeStyle=orthogonalEdgeStyle;rounded=0;orthogonalLoop=1;jettySize=auto;html=1;" parent="4nZbFx58Cz5zcJhAMKUK-75" source="4nZbFx58Cz5zcJhAMKUK-85" target="5X5vawwxVvFnSc0c-8mw-7" edge="1">
          <mxGeometry relative="1" as="geometry" />
        </mxCell>
        <mxCell id="YrC-N434iFFY0tVC18DP-7" value="Notification Thesis Uploaded" style="edgeLabel;html=1;align=center;verticalAlign=middle;resizable=0;points=[];" parent="YrC-N434iFFY0tVC18DP-6" vertex="1" connectable="0">
          <mxGeometry x="-0.0154" y="-1" relative="1" as="geometry">
            <mxPoint x="1" y="-156" as="offset" />
          </mxGeometry>
        </mxCell>
        <mxCell id="4nZbFx58Cz5zcJhAMKUK-85" value="Thesis" style="rounded=1;whiteSpace=wrap;html=1;" parent="4nZbFx58Cz5zcJhAMKUK-75" vertex="1">
          <mxGeometry x="40" y="720" width="120" height="40" as="geometry" />
        </mxCell>
        <mxCell id="4nZbFx58Cz5zcJhAMKUK-176" value="Comment" style="rounded=1;whiteSpace=wrap;html=1;" parent="4nZbFx58Cz5zcJhAMKUK-75" vertex="1">
          <mxGeometry x="40" y="400" width="120" height="40" as="geometry" />
        </mxCell>
        <mxCell id="4nZbFx58Cz5zcJhAMKUK-147" value="Statistics" style="rounded=1;whiteSpace=wrap;html=1;" parent="4nZbFx58Cz5zcJhAMKUK-75" vertex="1">
          <mxGeometry x="-880" y="1360" width="120" height="40" as="geometry" />
        </mxCell>
        <mxCell id="4nZbFx58Cz5zcJhAMKUK-153" value="Get statistic" style="rounded=1;whiteSpace=wrap;html=1;" parent="4nZbFx58Cz5zcJhAMKUK-75" vertex="1">
          <mxGeometry x="-480" y="1360" width="120" height="40" as="geometry" />
        </mxCell>
        <mxCell id="58ij7AsYlfpfPglQp_S_-169" style="edgeStyle=orthogonalEdgeStyle;rounded=0;orthogonalLoop=1;jettySize=auto;html=1;" parent="4nZbFx58Cz5zcJhAMKUK-75" source="4nZbFx58Cz5zcJhAMKUK-147" target="4nZbFx58Cz5zcJhAMKUK-153" edge="1">
          <mxGeometry relative="1" as="geometry" />
        </mxCell>
        <mxCell id="5X5vawwxVvFnSc0c-8mw-11" value="user id" style="edgeLabel;html=1;align=center;verticalAlign=middle;resizable=0;points=[];" parent="58ij7AsYlfpfPglQp_S_-169" vertex="1" connectable="0">
          <mxGeometry x="-0.1612" relative="1" as="geometry">
            <mxPoint x="3" as="offset" />
          </mxGeometry>
        </mxCell>
        <mxCell id="5X5vawwxVvFnSc0c-8mw-5" value="Get student statistic" style="rounded=1;whiteSpace=wrap;html=1;" parent="4nZbFx58Cz5zcJhAMKUK-75" vertex="1">
          <mxGeometry x="40" y="1360" width="120" height="40" as="geometry" />
        </mxCell>
        <mxCell id="5X5vawwxVvFnSc0c-8mw-6" style="edgeStyle=orthogonalEdgeStyle;rounded=0;orthogonalLoop=1;jettySize=auto;html=1;entryX=1;entryY=0.75;entryDx=0;entryDy=0;exitX=0;exitY=0.75;exitDx=0;exitDy=0;" parent="4nZbFx58Cz5zcJhAMKUK-75" source="5X5vawwxVvFnSc0c-8mw-5" target="4nZbFx58Cz5zcJhAMKUK-153" edge="1">
          <mxGeometry relative="1" as="geometry" />
        </mxCell>
        <mxCell id="5X5vawwxVvFnSc0c-8mw-13" value="Statistic data" style="edgeLabel;html=1;align=center;verticalAlign=middle;resizable=0;points=[];" parent="5X5vawwxVvFnSc0c-8mw-6" vertex="1" connectable="0">
          <mxGeometry x="0.5563" y="-2" relative="1" as="geometry">
            <mxPoint x="-9" y="2" as="offset" />
          </mxGeometry>
        </mxCell>
        <mxCell id="5X5vawwxVvFnSc0c-8mw-10" style="edgeStyle=orthogonalEdgeStyle;rounded=0;orthogonalLoop=1;jettySize=auto;html=1;exitX=1;exitY=0.25;exitDx=0;exitDy=0;entryX=0;entryY=0.25;entryDx=0;entryDy=0;" parent="4nZbFx58Cz5zcJhAMKUK-75" source="4nZbFx58Cz5zcJhAMKUK-153" target="5X5vawwxVvFnSc0c-8mw-5" edge="1">
          <mxGeometry relative="1" as="geometry" />
        </mxCell>
        <mxCell id="5X5vawwxVvFnSc0c-8mw-12" value="user id" style="edgeLabel;html=1;align=center;verticalAlign=middle;resizable=0;points=[];" parent="5X5vawwxVvFnSc0c-8mw-10" vertex="1" connectable="0">
          <mxGeometry x="-0.5563" relative="1" as="geometry">
            <mxPoint x="-9" as="offset" />
          </mxGeometry>
        </mxCell>
        <mxCell id="5X5vawwxVvFnSc0c-8mw-7" value="Notify" style="rounded=1;whiteSpace=wrap;html=1;" parent="4nZbFx58Cz5zcJhAMKUK-75" vertex="1">
          <mxGeometry x="40" y="1280" width="120" height="40" as="geometry" />
        </mxCell>
        <mxCell id="4nZbFx58Cz5zcJhAMKUK-90" style="edgeStyle=orthogonalEdgeStyle;rounded=0;orthogonalLoop=1;jettySize=auto;html=1;entryX=0;entryY=0.25;entryDx=0;entryDy=0;exitX=1;exitY=0.25;exitDx=0;exitDy=0;" parent="4nZbFx58Cz5zcJhAMKUK-27" source="4nZbFx58Cz5zcJhAMKUK-82" target="4nZbFx58Cz5zcJhAMKUK-57" edge="1">
          <mxGeometry relative="1" as="geometry">
            <mxPoint x="1420" y="180" as="targetPoint" />
          </mxGeometry>
        </mxCell>
        <mxCell id="4nZbFx58Cz5zcJhAMKUK-91" value="Username &amp;amp; Hash word" style="edgeLabel;html=1;align=center;verticalAlign=middle;resizable=0;points=[];" parent="4nZbFx58Cz5zcJhAMKUK-90" vertex="1" connectable="0">
          <mxGeometry x="-0.1577" relative="1" as="geometry">
            <mxPoint x="12" as="offset" />
          </mxGeometry>
        </mxCell>
        <mxCell id="4nZbFx58Cz5zcJhAMKUK-92" style="edgeStyle=orthogonalEdgeStyle;rounded=0;orthogonalLoop=1;jettySize=auto;html=1;exitX=0;exitY=0.75;exitDx=0;exitDy=0;entryX=1;entryY=0.75;entryDx=0;entryDy=0;" parent="4nZbFx58Cz5zcJhAMKUK-27" source="4nZbFx58Cz5zcJhAMKUK-57" target="4nZbFx58Cz5zcJhAMKUK-82" edge="1">
          <mxGeometry relative="1" as="geometry">
            <mxPoint x="1390" y="360" as="targetPoint" />
          </mxGeometry>
        </mxCell>
        <mxCell id="4nZbFx58Cz5zcJhAMKUK-93" value="List Username" style="edgeLabel;html=1;align=center;verticalAlign=middle;resizable=0;points=[];" parent="4nZbFx58Cz5zcJhAMKUK-92" vertex="1" connectable="0">
          <mxGeometry x="0.1101" relative="1" as="geometry">
            <mxPoint x="9" as="offset" />
          </mxGeometry>
        </mxCell>
        <mxCell id="4nZbFx58Cz5zcJhAMKUK-108" style="edgeStyle=orthogonalEdgeStyle;rounded=0;orthogonalLoop=1;jettySize=auto;html=1;exitX=0;exitY=0.5;exitDx=0;exitDy=0;entryX=1;entryY=0.5;entryDx=0;entryDy=0;" parent="4nZbFx58Cz5zcJhAMKUK-27" source="4nZbFx58Cz5zcJhAMKUK-82" target="4nZbFx58Cz5zcJhAMKUK-41" edge="1">
          <mxGeometry relative="1" as="geometry">
            <mxPoint x="1040" y="170" as="targetPoint" />
            <Array as="points" />
          </mxGeometry>
        </mxCell>
        <mxCell id="4nZbFx58Cz5zcJhAMKUK-109" value="Username" style="edgeLabel;html=1;align=center;verticalAlign=middle;resizable=0;points=[];" parent="4nZbFx58Cz5zcJhAMKUK-108" vertex="1" connectable="0">
          <mxGeometry x="0.3543" relative="1" as="geometry">
            <mxPoint x="35" as="offset" />
          </mxGeometry>
        </mxCell>
        <mxCell id="4nZbFx58Cz5zcJhAMKUK-144" value="API After login" style="swimlane;whiteSpace=wrap;html=1;" parent="4nZbFx58Cz5zcJhAMKUK-27" vertex="1">
          <mxGeometry x="600" y="440" width="440" height="1160" as="geometry" />
        </mxCell>
        <mxCell id="4nZbFx58Cz5zcJhAMKUK-139" value="Comment API" style="swimlane;whiteSpace=wrap;html=1;" parent="4nZbFx58Cz5zcJhAMKUK-144" vertex="1">
          <mxGeometry x="120" y="40" width="200" height="280" as="geometry">
            <mxRectangle x="400" y="200" width="130" height="30" as="alternateBounds" />
          </mxGeometry>
        </mxCell>
        <mxCell id="4nZbFx58Cz5zcJhAMKUK-140" value="Get comment" style="rounded=1;whiteSpace=wrap;html=1;" parent="4nZbFx58Cz5zcJhAMKUK-139" vertex="1">
          <mxGeometry x="40" y="40" width="120" height="40" as="geometry" />
        </mxCell>
        <mxCell id="4nZbFx58Cz5zcJhAMKUK-141" value="Comment edit" style="rounded=1;whiteSpace=wrap;html=1;" parent="4nZbFx58Cz5zcJhAMKUK-139" vertex="1">
          <mxGeometry x="40" y="120" width="120" height="40" as="geometry" />
        </mxCell>
        <mxCell id="4nZbFx58Cz5zcJhAMKUK-142" value="New Comment" style="rounded=1;whiteSpace=wrap;html=1;" parent="4nZbFx58Cz5zcJhAMKUK-139" vertex="1">
          <mxGeometry x="40" y="200" width="120" height="40" as="geometry" />
        </mxCell>
        <mxCell id="4nZbFx58Cz5zcJhAMKUK-112" style="edgeStyle=orthogonalEdgeStyle;rounded=0;orthogonalLoop=1;jettySize=auto;html=1;entryX=0.5;entryY=0;entryDx=0;entryDy=0;" parent="4nZbFx58Cz5zcJhAMKUK-144" source="4nZbFx58Cz5zcJhAMKUK-116" target="4nZbFx58Cz5zcJhAMKUK-29" edge="1">
          <mxGeometry relative="1" as="geometry">
            <Array as="points">
              <mxPoint x="-260" y="380" />
            </Array>
            <mxPoint x="-260" y="210" as="targetPoint" />
          </mxGeometry>
        </mxCell>
        <mxCell id="4nZbFx58Cz5zcJhAMKUK-113" value="PDF File" style="edgeLabel;html=1;align=center;verticalAlign=middle;resizable=0;points=[];" parent="4nZbFx58Cz5zcJhAMKUK-112" vertex="1" connectable="0">
          <mxGeometry x="-0.2924" y="1" relative="1" as="geometry">
            <mxPoint x="79" y="-1" as="offset" />
          </mxGeometry>
        </mxCell>
        <mxCell id="4nZbFx58Cz5zcJhAMKUK-110" style="edgeStyle=orthogonalEdgeStyle;rounded=0;orthogonalLoop=1;jettySize=auto;html=1;exitX=0;exitY=0.5;exitDx=0;exitDy=0;entryX=1;entryY=0.5;entryDx=0;entryDy=0;" parent="4nZbFx58Cz5zcJhAMKUK-144" source="4nZbFx58Cz5zcJhAMKUK-54" target="4nZbFx58Cz5zcJhAMKUK-29" edge="1">
          <mxGeometry relative="1" as="geometry">
            <Array as="points">
              <mxPoint x="40" y="460" />
              <mxPoint x="40" y="460" />
            </Array>
            <mxPoint x="-190" y="140" as="targetPoint" />
          </mxGeometry>
        </mxCell>
        <mxCell id="4nZbFx58Cz5zcJhAMKUK-111" value="Thesis Data" style="edgeLabel;html=1;align=center;verticalAlign=middle;resizable=0;points=[];" parent="4nZbFx58Cz5zcJhAMKUK-110" vertex="1" connectable="0">
          <mxGeometry x="-0.4223" y="2" relative="1" as="geometry">
            <mxPoint x="14" y="-2" as="offset" />
          </mxGeometry>
        </mxCell>
        <mxCell id="4nZbFx58Cz5zcJhAMKUK-106" style="edgeStyle=orthogonalEdgeStyle;rounded=0;orthogonalLoop=1;jettySize=auto;html=1;exitX=0;exitY=0.25;exitDx=0;exitDy=0;entryX=1;entryY=0.5;entryDx=0;entryDy=0;" parent="4nZbFx58Cz5zcJhAMKUK-144" source="4nZbFx58Cz5zcJhAMKUK-55" target="4nZbFx58Cz5zcJhAMKUK-29" edge="1">
          <mxGeometry relative="1" as="geometry">
            <mxPoint x="-170" y="130" as="targetPoint" />
            <Array as="points">
              <mxPoint x="-40" y="530" />
              <mxPoint x="-40" y="460" />
            </Array>
          </mxGeometry>
        </mxCell>
        <mxCell id="4nZbFx58Cz5zcJhAMKUK-107" value="Thesis Data Search" style="edgeLabel;html=1;align=center;verticalAlign=middle;resizable=0;points=[];" parent="4nZbFx58Cz5zcJhAMKUK-106" vertex="1" connectable="0">
          <mxGeometry x="-0.2854" y="3" relative="1" as="geometry">
            <mxPoint x="74" y="-3" as="offset" />
          </mxGeometry>
        </mxCell>
        <mxCell id="4nZbFx58Cz5zcJhAMKUK-94" style="edgeStyle=orthogonalEdgeStyle;rounded=0;orthogonalLoop=1;jettySize=auto;html=1;exitX=0.75;exitY=1;exitDx=0;exitDy=0;entryX=0;entryY=0.75;entryDx=0;entryDy=0;" parent="4nZbFx58Cz5zcJhAMKUK-144" source="4nZbFx58Cz5zcJhAMKUK-29" target="4nZbFx58Cz5zcJhAMKUK-55" edge="1">
          <mxGeometry relative="1" as="geometry">
            <mxPoint x="-130" y="140" as="sourcePoint" />
            <Array as="points">
              <mxPoint x="-230" y="550" />
            </Array>
            <mxPoint x="-20" y="260" as="targetPoint" />
          </mxGeometry>
        </mxCell>
        <mxCell id="4nZbFx58Cz5zcJhAMKUK-95" value="keywork / catagory" style="edgeLabel;html=1;align=center;verticalAlign=middle;resizable=0;points=[];" parent="4nZbFx58Cz5zcJhAMKUK-94" vertex="1" connectable="0">
          <mxGeometry x="0.3746" y="-1" relative="1" as="geometry">
            <mxPoint x="54" y="-1" as="offset" />
          </mxGeometry>
        </mxCell>
        <mxCell id="58ij7AsYlfpfPglQp_S_-156" style="edgeStyle=orthogonalEdgeStyle;rounded=0;orthogonalLoop=1;jettySize=auto;html=1;exitX=0.25;exitY=1;exitDx=0;exitDy=0;entryX=0;entryY=0.5;entryDx=0;entryDy=0;" parent="4nZbFx58Cz5zcJhAMKUK-144" source="4nZbFx58Cz5zcJhAMKUK-29" target="4nZbFx58Cz5zcJhAMKUK-151" edge="1">
          <mxGeometry relative="1" as="geometry" />
        </mxCell>
        <mxCell id="58ij7AsYlfpfPglQp_S_-164" value="user id" style="edgeLabel;html=1;align=center;verticalAlign=middle;resizable=0;points=[];" parent="58ij7AsYlfpfPglQp_S_-156" vertex="1" connectable="0">
          <mxGeometry x="0.6618" relative="1" as="geometry">
            <mxPoint x="19" as="offset" />
          </mxGeometry>
        </mxCell>
        <mxCell id="4nZbFx58Cz5zcJhAMKUK-29" value="Browse" style="rounded=1;whiteSpace=wrap;html=1;" parent="4nZbFx58Cz5zcJhAMKUK-144" vertex="1">
          <mxGeometry x="-320" y="440" width="120" height="40" as="geometry" />
        </mxCell>
        <mxCell id="4nZbFx58Cz5zcJhAMKUK-151" value="Get my thesis" style="rounded=1;whiteSpace=wrap;html=1;" parent="4nZbFx58Cz5zcJhAMKUK-144" vertex="1">
          <mxGeometry x="160" y="600" width="120" height="40" as="geometry" />
        </mxCell>
        <mxCell id="4nZbFx58Cz5zcJhAMKUK-55" value="Get thesis by keyword / Catagory" style="rounded=1;whiteSpace=wrap;html=1;" parent="4nZbFx58Cz5zcJhAMKUK-144" vertex="1">
          <mxGeometry x="160" y="520" width="120" height="40" as="geometry" />
        </mxCell>
        <mxCell id="4nZbFx58Cz5zcJhAMKUK-116" value="Download thesis" style="rounded=1;whiteSpace=wrap;html=1;" parent="4nZbFx58Cz5zcJhAMKUK-144" vertex="1">
          <mxGeometry x="160" y="360" width="120" height="40" as="geometry" />
        </mxCell>
        <mxCell id="4nZbFx58Cz5zcJhAMKUK-54" value="Get Thesis" style="rounded=1;whiteSpace=wrap;html=1;" parent="4nZbFx58Cz5zcJhAMKUK-144" vertex="1">
          <mxGeometry x="160" y="440" width="120" height="40" as="geometry" />
        </mxCell>
        <mxCell id="58ij7AsYlfpfPglQp_S_-162" value="" style="edgeStyle=orthogonalEdgeStyle;rounded=0;orthogonalLoop=1;jettySize=auto;html=1;entryX=0.5;entryY=1;entryDx=0;entryDy=0;exitX=0.5;exitY=0;exitDx=0;exitDy=0;" parent="4nZbFx58Cz5zcJhAMKUK-144" source="4nZbFx58Cz5zcJhAMKUK-151" target="4nZbFx58Cz5zcJhAMKUK-55" edge="1">
          <mxGeometry relative="1" as="geometry">
            <mxPoint x="220" y="560" as="targetPoint" />
          </mxGeometry>
        </mxCell>
        <mxCell id="58ij7AsYlfpfPglQp_S_-163" value="user id" style="edgeLabel;html=1;align=center;verticalAlign=middle;resizable=0;points=[];" parent="58ij7AsYlfpfPglQp_S_-162" vertex="1" connectable="0">
          <mxGeometry x="-0.1618" y="-1" relative="1" as="geometry">
            <mxPoint as="offset" />
          </mxGeometry>
        </mxCell>
        <mxCell id="4nZbFx58Cz5zcJhAMKUK-148" value="API Student" style="swimlane;whiteSpace=wrap;html=1;" parent="4nZbFx58Cz5zcJhAMKUK-144" vertex="1">
          <mxGeometry x="40" y="680" width="360" height="440" as="geometry">
            <mxRectangle x="400" y="200" width="130" height="30" as="alternateBounds" />
          </mxGeometry>
        </mxCell>
        <mxCell id="4nZbFx58Cz5zcJhAMKUK-149" value="Create thesis" style="rounded=1;whiteSpace=wrap;html=1;" parent="4nZbFx58Cz5zcJhAMKUK-148" vertex="1">
          <mxGeometry x="220" y="40" width="120" height="40" as="geometry" />
        </mxCell>
        <mxCell id="4nZbFx58Cz5zcJhAMKUK-150" value="Update thesis" style="rounded=1;whiteSpace=wrap;html=1;" parent="4nZbFx58Cz5zcJhAMKUK-148" vertex="1">
          <mxGeometry x="220" y="120" width="120" height="40" as="geometry" />
        </mxCell>
        <mxCell id="4nZbFx58Cz5zcJhAMKUK-152" value="Delete theis" style="rounded=1;whiteSpace=wrap;html=1;" parent="4nZbFx58Cz5zcJhAMKUK-148" vertex="1">
          <mxGeometry x="220" y="201" width="120" height="40" as="geometry" />
        </mxCell>
        <mxCell id="58ij7AsYlfpfPglQp_S_-157" style="edgeStyle=orthogonalEdgeStyle;rounded=0;orthogonalLoop=1;jettySize=auto;html=1;exitX=1;exitY=0.5;exitDx=0;exitDy=0;entryX=0;entryY=0.5;entryDx=0;entryDy=0;" parent="4nZbFx58Cz5zcJhAMKUK-148" source="58ij7AsYlfpfPglQp_S_-155" target="4nZbFx58Cz5zcJhAMKUK-149" edge="1">
          <mxGeometry relative="1" as="geometry" />
        </mxCell>
        <mxCell id="58ij7AsYlfpfPglQp_S_-166" value="Thesis&lt;div&gt;Data&lt;/div&gt;" style="edgeLabel;html=1;align=center;verticalAlign=middle;resizable=0;points=[];" parent="58ij7AsYlfpfPglQp_S_-157" vertex="1" connectable="0">
          <mxGeometry x="-0.1125" y="2" relative="1" as="geometry">
            <mxPoint x="4" y="2" as="offset" />
          </mxGeometry>
        </mxCell>
        <mxCell id="58ij7AsYlfpfPglQp_S_-158" style="edgeStyle=orthogonalEdgeStyle;rounded=0;orthogonalLoop=1;jettySize=auto;html=1;entryX=0;entryY=0.5;entryDx=0;entryDy=0;" parent="4nZbFx58Cz5zcJhAMKUK-148" source="58ij7AsYlfpfPglQp_S_-155" target="4nZbFx58Cz5zcJhAMKUK-150" edge="1">
          <mxGeometry relative="1" as="geometry">
            <mxPoint x="200" y="110" as="targetPoint" />
            <Array as="points">
              <mxPoint x="80" y="140" />
            </Array>
          </mxGeometry>
        </mxCell>
        <mxCell id="58ij7AsYlfpfPglQp_S_-165" value="Thesis&amp;nbsp;&lt;span style=&quot;background-color: light-dark(#ffffff, var(--ge-dark-color, #121212)); color: light-dark(rgb(0, 0, 0), rgb(255, 255, 255));&quot;&gt;Data&lt;/span&gt;" style="edgeLabel;html=1;align=center;verticalAlign=middle;resizable=0;points=[];" parent="58ij7AsYlfpfPglQp_S_-158" vertex="1" connectable="0">
          <mxGeometry x="0.6312" y="2" relative="1" as="geometry">
            <mxPoint x="-43" y="2" as="offset" />
          </mxGeometry>
        </mxCell>
        <mxCell id="58ij7AsYlfpfPglQp_S_-167" style="edgeStyle=orthogonalEdgeStyle;rounded=0;orthogonalLoop=1;jettySize=auto;html=1;entryX=0;entryY=0.5;entryDx=0;entryDy=0;" parent="4nZbFx58Cz5zcJhAMKUK-148" source="58ij7AsYlfpfPglQp_S_-155" target="4nZbFx58Cz5zcJhAMKUK-152" edge="1">
          <mxGeometry relative="1" as="geometry">
            <Array as="points">
              <mxPoint x="80" y="221" />
            </Array>
          </mxGeometry>
        </mxCell>
        <mxCell id="58ij7AsYlfpfPglQp_S_-168" value="Thesis&amp;nbsp;&lt;span style=&quot;background-color: light-dark(#ffffff, var(--ge-dark-color, #121212)); color: light-dark(rgb(0, 0, 0), rgb(255, 255, 255));&quot;&gt;id&lt;/span&gt;" style="edgeLabel;html=1;align=center;verticalAlign=middle;resizable=0;points=[];" parent="58ij7AsYlfpfPglQp_S_-167" vertex="1" connectable="0">
          <mxGeometry x="0.6722" y="-1" relative="1" as="geometry">
            <mxPoint x="-34" y="-1" as="offset" />
          </mxGeometry>
        </mxCell>
        <mxCell id="58ij7AsYlfpfPglQp_S_-155" value="thesis" style="rounded=1;whiteSpace=wrap;html=1;" parent="4nZbFx58Cz5zcJhAMKUK-148" vertex="1">
          <mxGeometry x="20" y="40" width="120" height="40" as="geometry" />
        </mxCell>
        <mxCell id="58ij7AsYlfpfPglQp_S_-2" value="Notify" style="rounded=1;whiteSpace=wrap;html=1;" parent="4nZbFx58Cz5zcJhAMKUK-148" vertex="1">
          <mxGeometry x="40" y="280" width="120" height="40" as="geometry" />
        </mxCell>
        <mxCell id="58ij7AsYlfpfPglQp_S_-10" style="edgeStyle=orthogonalEdgeStyle;rounded=0;orthogonalLoop=1;jettySize=auto;html=1;exitX=1;exitY=0.75;exitDx=0;exitDy=0;entryX=0;entryY=0.75;entryDx=0;entryDy=0;startArrow=classic;startFill=1;" parent="4nZbFx58Cz5zcJhAMKUK-27" source="4nZbFx58Cz5zcJhAMKUK-176" target="58ij7AsYlfpfPglQp_S_-9" edge="1">
          <mxGeometry relative="1" as="geometry">
            <mxPoint x="1480" y="510" as="targetPoint" />
          </mxGeometry>
        </mxCell>
        <mxCell id="58ij7AsYlfpfPglQp_S_-11" value="Comment Data" style="edgeLabel;html=1;align=center;verticalAlign=middle;resizable=0;points=[];" parent="58ij7AsYlfpfPglQp_S_-10" vertex="1" connectable="0">
          <mxGeometry x="-0.1036" y="1" relative="1" as="geometry">
            <mxPoint x="9" as="offset" />
          </mxGeometry>
        </mxCell>
        <mxCell id="4nZbFx58Cz5zcJhAMKUK-179" style="edgeStyle=orthogonalEdgeStyle;rounded=0;orthogonalLoop=1;jettySize=auto;html=1;entryX=1;entryY=0.25;entryDx=0;entryDy=0;exitX=0;exitY=0.5;exitDx=0;exitDy=0;startArrow=classic;startFill=1;" parent="4nZbFx58Cz5zcJhAMKUK-27" source="4nZbFx58Cz5zcJhAMKUK-61" target="4nZbFx58Cz5zcJhAMKUK-176" edge="1">
          <mxGeometry relative="1" as="geometry">
            <Array as="points" />
            <mxPoint x="1480" y="420" as="sourcePoint" />
          </mxGeometry>
        </mxCell>
        <mxCell id="4nZbFx58Cz5zcJhAMKUK-180" value="Comment Data" style="edgeLabel;html=1;align=center;verticalAlign=middle;resizable=0;points=[];" parent="4nZbFx58Cz5zcJhAMKUK-179" vertex="1" connectable="0">
          <mxGeometry x="0.5929" relative="1" as="geometry">
            <mxPoint x="45" y="-30" as="offset" />
          </mxGeometry>
        </mxCell>
        <mxCell id="4nZbFx58Cz5zcJhAMKUK-123" style="rounded=0;orthogonalLoop=1;jettySize=auto;html=1;entryX=0;entryY=0.75;entryDx=0;entryDy=0;exitX=1;exitY=0.75;exitDx=0;exitDy=0;edgeStyle=orthogonalEdgeStyle;" parent="4nZbFx58Cz5zcJhAMKUK-27" source="4nZbFx58Cz5zcJhAMKUK-140" target="4nZbFx58Cz5zcJhAMKUK-176" edge="1">
          <mxGeometry relative="1" as="geometry">
            <mxPoint x="-320" y="570" as="targetPoint" />
          </mxGeometry>
        </mxCell>
        <mxCell id="4nZbFx58Cz5zcJhAMKUK-124" value="Thesis id" style="edgeLabel;html=1;align=center;verticalAlign=middle;resizable=0;points=[];" parent="4nZbFx58Cz5zcJhAMKUK-123" vertex="1" connectable="0">
          <mxGeometry x="-0.7095" relative="1" as="geometry">
            <mxPoint x="54" as="offset" />
          </mxGeometry>
        </mxCell>
        <mxCell id="4nZbFx58Cz5zcJhAMKUK-117" style="rounded=0;orthogonalLoop=1;jettySize=auto;html=1;exitX=0;exitY=0.25;exitDx=0;exitDy=0;entryX=1;entryY=0.25;entryDx=0;entryDy=0;edgeStyle=orthogonalEdgeStyle;" parent="4nZbFx58Cz5zcJhAMKUK-27" source="4nZbFx58Cz5zcJhAMKUK-176" target="4nZbFx58Cz5zcJhAMKUK-140" edge="1">
          <mxGeometry relative="1" as="geometry">
            <mxPoint x="-320" y="550" as="sourcePoint" />
          </mxGeometry>
        </mxCell>
        <mxCell id="4nZbFx58Cz5zcJhAMKUK-118" value="Comment Data" style="edgeLabel;html=1;align=center;verticalAlign=middle;resizable=0;points=[];" parent="4nZbFx58Cz5zcJhAMKUK-117" vertex="1" connectable="0">
          <mxGeometry x="0.6735" y="1" relative="1" as="geometry">
            <mxPoint x="48" as="offset" />
          </mxGeometry>
        </mxCell>
        <mxCell id="4nZbFx58Cz5zcJhAMKUK-121" style="rounded=0;orthogonalLoop=1;jettySize=auto;html=1;entryX=0;entryY=0.75;entryDx=0;entryDy=0;exitX=1;exitY=0.5;exitDx=0;exitDy=0;edgeStyle=orthogonalEdgeStyle;" parent="4nZbFx58Cz5zcJhAMKUK-27" source="4nZbFx58Cz5zcJhAMKUK-141" target="4nZbFx58Cz5zcJhAMKUK-176" edge="1">
          <mxGeometry relative="1" as="geometry">
            <mxPoint x="-320" y="570" as="targetPoint" />
            <Array as="points">
              <mxPoint x="1080" y="620" />
              <mxPoint x="1080" y="550" />
            </Array>
          </mxGeometry>
        </mxCell>
        <mxCell id="4nZbFx58Cz5zcJhAMKUK-122" value="Edit comment" style="edgeLabel;html=1;align=center;verticalAlign=middle;resizable=0;points=[];" parent="4nZbFx58Cz5zcJhAMKUK-121" vertex="1" connectable="0">
          <mxGeometry x="-0.7517" y="-1" relative="1" as="geometry">
            <mxPoint x="52" y="-1" as="offset" />
          </mxGeometry>
        </mxCell>
        <mxCell id="4nZbFx58Cz5zcJhAMKUK-125" style="rounded=0;orthogonalLoop=1;jettySize=auto;html=1;entryX=0;entryY=0.75;entryDx=0;entryDy=0;edgeStyle=orthogonalEdgeStyle;" parent="4nZbFx58Cz5zcJhAMKUK-27" source="4nZbFx58Cz5zcJhAMKUK-142" target="4nZbFx58Cz5zcJhAMKUK-176" edge="1">
          <mxGeometry relative="1" as="geometry">
            <mxPoint x="-60" y="1010" as="targetPoint" />
            <Array as="points">
              <mxPoint x="1080" y="700" />
              <mxPoint x="1080" y="550" />
            </Array>
          </mxGeometry>
        </mxCell>
        <mxCell id="4nZbFx58Cz5zcJhAMKUK-126" value="Comment" style="edgeLabel;html=1;align=center;verticalAlign=middle;resizable=0;points=[];" parent="4nZbFx58Cz5zcJhAMKUK-125" vertex="1" connectable="0">
          <mxGeometry x="-0.7315" y="3" relative="1" as="geometry">
            <mxPoint x="37" y="3" as="offset" />
          </mxGeometry>
        </mxCell>
        <mxCell id="4nZbFx58Cz5zcJhAMKUK-119" style="rounded=0;orthogonalLoop=1;jettySize=auto;html=1;entryX=0;entryY=0.75;entryDx=0;entryDy=0;exitX=1;exitY=0.75;exitDx=0;exitDy=0;edgeStyle=orthogonalEdgeStyle;" parent="4nZbFx58Cz5zcJhAMKUK-27" source="4nZbFx58Cz5zcJhAMKUK-30" target="4nZbFx58Cz5zcJhAMKUK-140" edge="1">
          <mxGeometry relative="1" as="geometry" />
        </mxCell>
        <mxCell id="4nZbFx58Cz5zcJhAMKUK-120" value="Thesis id" style="edgeLabel;html=1;align=center;verticalAlign=middle;resizable=0;points=[];" parent="4nZbFx58Cz5zcJhAMKUK-119" vertex="1" connectable="0">
          <mxGeometry x="0.47" y="-1" relative="1" as="geometry">
            <mxPoint x="-24" as="offset" />
          </mxGeometry>
        </mxCell>
        <mxCell id="4nZbFx58Cz5zcJhAMKUK-96" style="rounded=0;orthogonalLoop=1;jettySize=auto;html=1;exitX=0;exitY=0.25;exitDx=0;exitDy=0;entryX=1;entryY=0.25;entryDx=0;entryDy=0;edgeStyle=orthogonalEdgeStyle;" parent="4nZbFx58Cz5zcJhAMKUK-27" source="4nZbFx58Cz5zcJhAMKUK-140" target="4nZbFx58Cz5zcJhAMKUK-30" edge="1">
          <mxGeometry relative="1" as="geometry">
            <mxPoint x="-600" y="860" as="sourcePoint" />
          </mxGeometry>
        </mxCell>
        <mxCell id="4nZbFx58Cz5zcJhAMKUK-97" value="Comment Data" style="edgeLabel;html=1;align=center;verticalAlign=middle;resizable=0;points=[];" parent="4nZbFx58Cz5zcJhAMKUK-96" vertex="1" connectable="0">
          <mxGeometry x="-0.2535" y="1" relative="1" as="geometry">
            <mxPoint x="-86" y="-1" as="offset" />
          </mxGeometry>
        </mxCell>
        <mxCell id="4nZbFx58Cz5zcJhAMKUK-98" style="rounded=0;orthogonalLoop=1;jettySize=auto;html=1;entryX=0;entryY=0.5;entryDx=0;entryDy=0;exitX=1;exitY=0.75;exitDx=0;exitDy=0;edgeStyle=orthogonalEdgeStyle;" parent="4nZbFx58Cz5zcJhAMKUK-27" source="4nZbFx58Cz5zcJhAMKUK-30" target="4nZbFx58Cz5zcJhAMKUK-141" edge="1">
          <mxGeometry relative="1" as="geometry">
            <mxPoint x="-1230" y="730" as="sourcePoint" />
          </mxGeometry>
        </mxCell>
        <mxCell id="4nZbFx58Cz5zcJhAMKUK-99" value="Edit comment&amp;nbsp;&lt;div&gt;/ Comment_id&lt;/div&gt;" style="edgeLabel;html=1;align=center;verticalAlign=middle;resizable=0;points=[];" parent="4nZbFx58Cz5zcJhAMKUK-98" vertex="1" connectable="0">
          <mxGeometry x="0.3212" y="-3" relative="1" as="geometry">
            <mxPoint x="36" y="-3" as="offset" />
          </mxGeometry>
        </mxCell>
        <mxCell id="4nZbFx58Cz5zcJhAMKUK-100" style="rounded=0;orthogonalLoop=1;jettySize=auto;html=1;entryX=0;entryY=0.5;entryDx=0;entryDy=0;exitX=1;exitY=0.75;exitDx=0;exitDy=0;edgeStyle=orthogonalEdgeStyle;" parent="4nZbFx58Cz5zcJhAMKUK-27" source="4nZbFx58Cz5zcJhAMKUK-30" target="4nZbFx58Cz5zcJhAMKUK-142" edge="1">
          <mxGeometry relative="1" as="geometry" />
        </mxCell>
        <mxCell id="4nZbFx58Cz5zcJhAMKUK-101" value="Comment" style="edgeLabel;html=1;align=center;verticalAlign=middle;resizable=0;points=[];" parent="4nZbFx58Cz5zcJhAMKUK-100" vertex="1" connectable="0">
          <mxGeometry x="0.3448" y="1" relative="1" as="geometry">
            <mxPoint x="57" y="1" as="offset" />
          </mxGeometry>
        </mxCell>
        <mxCell id="4nZbFx58Cz5zcJhAMKUK-104" style="edgeStyle=orthogonalEdgeStyle;rounded=0;orthogonalLoop=1;jettySize=auto;html=1;entryX=1;entryY=0.5;entryDx=0;entryDy=0;" parent="4nZbFx58Cz5zcJhAMKUK-27" source="4nZbFx58Cz5zcJhAMKUK-85" target="4nZbFx58Cz5zcJhAMKUK-55" edge="1">
          <mxGeometry relative="1" as="geometry">
            <mxPoint x="1230" y="520" as="sourcePoint" />
            <mxPoint x="1050" y="790" as="targetPoint" />
            <Array as="points">
              <mxPoint x="1080" y="850" />
              <mxPoint x="1080" y="980" />
            </Array>
          </mxGeometry>
        </mxCell>
        <mxCell id="4nZbFx58Cz5zcJhAMKUK-105" value="Thesis&amp;nbsp;&lt;span style=&quot;background-color: light-dark(#ffffff, var(--ge-dark-color, #121212)); color: light-dark(rgb(0, 0, 0), rgb(255, 255, 255));&quot;&gt;Data&amp;nbsp;&lt;/span&gt;&lt;span style=&quot;color: light-dark(rgb(0, 0, 0), rgb(255, 255, 255)); background-color: light-dark(#ffffff, var(--ge-dark-color, #121212));&quot;&gt;Search&lt;/span&gt;&amp;nbsp;/ PDF file" style="edgeLabel;html=1;align=center;verticalAlign=middle;resizable=0;points=[];" parent="4nZbFx58Cz5zcJhAMKUK-104" vertex="1" connectable="0">
          <mxGeometry x="0.13" y="1" relative="1" as="geometry">
            <mxPoint x="-84" y="-1" as="offset" />
          </mxGeometry>
        </mxCell>
        <mxCell id="4nZbFx58Cz5zcJhAMKUK-114" style="edgeStyle=orthogonalEdgeStyle;rounded=0;orthogonalLoop=1;jettySize=auto;html=1;entryX=0;entryY=0.5;entryDx=0;entryDy=0;exitX=0.5;exitY=0;exitDx=0;exitDy=0;" parent="4nZbFx58Cz5zcJhAMKUK-27" source="4nZbFx58Cz5zcJhAMKUK-116" target="4nZbFx58Cz5zcJhAMKUK-86" edge="1">
          <mxGeometry relative="1" as="geometry">
            <Array as="points">
              <mxPoint x="820" y="780" />
            </Array>
          </mxGeometry>
        </mxCell>
        <mxCell id="4nZbFx58Cz5zcJhAMKUK-115" value="Thesis id / download count" style="edgeLabel;html=1;align=center;verticalAlign=middle;resizable=0;points=[];" parent="4nZbFx58Cz5zcJhAMKUK-114" vertex="1" connectable="0">
          <mxGeometry x="-0.7394" y="1" relative="1" as="geometry">
            <mxPoint x="108" y="1" as="offset" />
          </mxGeometry>
        </mxCell>
        <mxCell id="4nZbFx58Cz5zcJhAMKUK-131" style="edgeStyle=orthogonalEdgeStyle;rounded=0;orthogonalLoop=1;jettySize=auto;html=1;entryX=1;entryY=0.5;entryDx=0;entryDy=0;" parent="4nZbFx58Cz5zcJhAMKUK-27" source="4nZbFx58Cz5zcJhAMKUK-85" target="4nZbFx58Cz5zcJhAMKUK-116" edge="1">
          <mxGeometry relative="1" as="geometry">
            <Array as="points">
              <mxPoint x="1080" y="850" />
              <mxPoint x="1080" y="820" />
            </Array>
            <mxPoint x="1480" y="700" as="sourcePoint" />
            <mxPoint x="1240" y="720" as="targetPoint" />
          </mxGeometry>
        </mxCell>
        <mxCell id="4nZbFx58Cz5zcJhAMKUK-132" value="PDF file" style="edgeLabel;html=1;align=center;verticalAlign=middle;resizable=0;points=[];" parent="4nZbFx58Cz5zcJhAMKUK-131" vertex="1" connectable="0">
          <mxGeometry x="-0.0643" y="1" relative="1" as="geometry">
            <mxPoint x="-109" y="-1" as="offset" />
          </mxGeometry>
        </mxCell>
        <mxCell id="4nZbFx58Cz5zcJhAMKUK-102" style="edgeStyle=orthogonalEdgeStyle;rounded=0;orthogonalLoop=1;jettySize=auto;html=1;" parent="4nZbFx58Cz5zcJhAMKUK-27" source="4nZbFx58Cz5zcJhAMKUK-85" target="4nZbFx58Cz5zcJhAMKUK-54" edge="1">
          <mxGeometry relative="1" as="geometry">
            <Array as="points">
              <mxPoint x="1080" y="850" />
              <mxPoint x="1080" y="900" />
            </Array>
          </mxGeometry>
        </mxCell>
        <mxCell id="4nZbFx58Cz5zcJhAMKUK-103" value="Thesis&amp;nbsp;&lt;span style=&quot;background-color: light-dark(#ffffff, var(--ge-dark-color, #121212)); color: light-dark(rgb(0, 0, 0), rgb(255, 255, 255));&quot;&gt;Data / PDF file&lt;/span&gt;" style="edgeLabel;html=1;align=center;verticalAlign=middle;resizable=0;points=[];" parent="4nZbFx58Cz5zcJhAMKUK-102" vertex="1" connectable="0">
          <mxGeometry x="0.13" y="1" relative="1" as="geometry">
            <mxPoint x="-64" y="-1" as="offset" />
          </mxGeometry>
        </mxCell>
        <mxCell id="4nZbFx58Cz5zcJhAMKUK-127" style="edgeStyle=orthogonalEdgeStyle;rounded=0;orthogonalLoop=1;jettySize=auto;html=1;entryX=0.5;entryY=0;entryDx=0;entryDy=0;" parent="4nZbFx58Cz5zcJhAMKUK-27" source="4nZbFx58Cz5zcJhAMKUK-88" target="4nZbFx58Cz5zcJhAMKUK-59" edge="1">
          <mxGeometry relative="1" as="geometry">
            <Array as="points">
              <mxPoint x="1580" y="700" />
            </Array>
          </mxGeometry>
        </mxCell>
        <mxCell id="4nZbFx58Cz5zcJhAMKUK-128" value="Thesis id" style="edgeLabel;html=1;align=center;verticalAlign=middle;resizable=0;points=[];" parent="4nZbFx58Cz5zcJhAMKUK-127" vertex="1" connectable="0">
          <mxGeometry x="-0.5991" relative="1" as="geometry">
            <mxPoint x="16" as="offset" />
          </mxGeometry>
        </mxCell>
        <mxCell id="4nZbFx58Cz5zcJhAMKUK-135" style="edgeStyle=orthogonalEdgeStyle;rounded=0;orthogonalLoop=1;jettySize=auto;html=1;entryX=0;entryY=0.5;entryDx=0;entryDy=0;" parent="4nZbFx58Cz5zcJhAMKUK-27" source="4nZbFx58Cz5zcJhAMKUK-86" target="4nZbFx58Cz5zcJhAMKUK-59" edge="1">
          <mxGeometry relative="1" as="geometry">
            <Array as="points">
              <mxPoint x="1360" y="780" />
              <mxPoint x="1360" y="780" />
            </Array>
          </mxGeometry>
        </mxCell>
        <mxCell id="4nZbFx58Cz5zcJhAMKUK-136" value="Thesis id /&lt;div&gt;download count /&lt;/div&gt;&lt;div&gt;View count&lt;/div&gt;" style="edgeLabel;html=1;align=center;verticalAlign=middle;resizable=0;points=[];" parent="4nZbFx58Cz5zcJhAMKUK-135" vertex="1" connectable="0">
          <mxGeometry x="-0.5293" relative="1" as="geometry">
            <mxPoint x="53" as="offset" />
          </mxGeometry>
        </mxCell>
        <mxCell id="4nZbFx58Cz5zcJhAMKUK-129" style="edgeStyle=orthogonalEdgeStyle;rounded=0;orthogonalLoop=1;jettySize=auto;html=1;entryX=0;entryY=0.25;entryDx=0;entryDy=0;exitX=1;exitY=0.25;exitDx=0;exitDy=0;startArrow=classic;startFill=1;endArrow=classic;endFill=1;" parent="4nZbFx58Cz5zcJhAMKUK-27" source="4nZbFx58Cz5zcJhAMKUK-85" target="4nZbFx58Cz5zcJhAMKUK-58" edge="1">
          <mxGeometry relative="1" as="geometry" />
        </mxCell>
        <mxCell id="4nZbFx58Cz5zcJhAMKUK-130" value="Thesis Data" style="edgeLabel;html=1;align=center;verticalAlign=middle;resizable=0;points=[];" parent="4nZbFx58Cz5zcJhAMKUK-129" vertex="1" connectable="0">
          <mxGeometry x="-0.1179" y="-3" relative="1" as="geometry">
            <mxPoint x="12" y="-3" as="offset" />
          </mxGeometry>
        </mxCell>
        <mxCell id="4nZbFx58Cz5zcJhAMKUK-133" style="edgeStyle=orthogonalEdgeStyle;rounded=0;orthogonalLoop=1;jettySize=auto;html=1;exitX=0;exitY=0.75;exitDx=0;exitDy=0;entryX=1;entryY=0.75;entryDx=0;entryDy=0;startArrow=classic;startFill=1;" parent="4nZbFx58Cz5zcJhAMKUK-27" source="4nZbFx58Cz5zcJhAMKUK-60" target="4nZbFx58Cz5zcJhAMKUK-85" edge="1">
          <mxGeometry relative="1" as="geometry">
            <Array as="points">
              <mxPoint x="1400" y="950" />
              <mxPoint x="1400" y="870" />
            </Array>
          </mxGeometry>
        </mxCell>
        <mxCell id="4nZbFx58Cz5zcJhAMKUK-134" value="PDF file" style="edgeLabel;html=1;align=center;verticalAlign=middle;resizable=0;points=[];" parent="4nZbFx58Cz5zcJhAMKUK-133" vertex="1" connectable="0">
          <mxGeometry x="-0.0024" y="-1" relative="1" as="geometry">
            <mxPoint x="39" y="20" as="offset" />
          </mxGeometry>
        </mxCell>
        <mxCell id="58ij7AsYlfpfPglQp_S_-16" style="edgeStyle=orthogonalEdgeStyle;rounded=0;orthogonalLoop=1;jettySize=auto;html=1;exitX=1;exitY=0.5;exitDx=0;exitDy=0;entryX=0;entryY=0.5;entryDx=0;entryDy=0;" parent="4nZbFx58Cz5zcJhAMKUK-27" source="4nZbFx58Cz5zcJhAMKUK-145" target="58ij7AsYlfpfPglQp_S_-155" edge="1">
          <mxGeometry relative="1" as="geometry" />
        </mxCell>
        <mxCell id="58ij7AsYlfpfPglQp_S_-171" value="Thesis&amp;nbsp;&lt;span style=&quot;background-color: light-dark(#ffffff, var(--ge-dark-color, #121212)); color: light-dark(rgb(0, 0, 0), rgb(255, 255, 255));&quot;&gt;Data&lt;/span&gt;" style="edgeLabel;html=1;align=center;verticalAlign=middle;resizable=0;points=[];" parent="58ij7AsYlfpfPglQp_S_-16" vertex="1" connectable="0">
          <mxGeometry x="-0.0474" y="3" relative="1" as="geometry">
            <mxPoint x="-4" y="3" as="offset" />
          </mxGeometry>
        </mxCell>
        <mxCell id="58ij7AsYlfpfPglQp_S_-172" style="edgeStyle=orthogonalEdgeStyle;rounded=0;orthogonalLoop=1;jettySize=auto;html=1;" parent="4nZbFx58Cz5zcJhAMKUK-27" source="4nZbFx58Cz5zcJhAMKUK-149" target="4nZbFx58Cz5zcJhAMKUK-85" edge="1">
          <mxGeometry relative="1" as="geometry">
            <Array as="points">
              <mxPoint x="1120" y="1180" />
              <mxPoint x="1120" y="870" />
            </Array>
          </mxGeometry>
        </mxCell>
        <mxCell id="5X5vawwxVvFnSc0c-8mw-1" value="Thesis&amp;nbsp;&lt;span style=&quot;background-color: light-dark(#ffffff, var(--ge-dark-color, #121212)); color: light-dark(rgb(0, 0, 0), rgb(255, 255, 255));&quot;&gt;Data&lt;/span&gt;" style="edgeLabel;html=1;align=center;verticalAlign=middle;resizable=0;points=[];" parent="58ij7AsYlfpfPglQp_S_-172" vertex="1" connectable="0">
          <mxGeometry x="-0.608" y="-2" relative="1" as="geometry">
            <mxPoint x="-4" y="-2" as="offset" />
          </mxGeometry>
        </mxCell>
        <mxCell id="58ij7AsYlfpfPglQp_S_-173" style="edgeStyle=orthogonalEdgeStyle;rounded=0;orthogonalLoop=1;jettySize=auto;html=1;" parent="4nZbFx58Cz5zcJhAMKUK-27" source="4nZbFx58Cz5zcJhAMKUK-150" target="4nZbFx58Cz5zcJhAMKUK-85" edge="1">
          <mxGeometry relative="1" as="geometry">
            <Array as="points">
              <mxPoint x="1120" y="1260" />
              <mxPoint x="1120" y="870" />
            </Array>
          </mxGeometry>
        </mxCell>
        <mxCell id="5X5vawwxVvFnSc0c-8mw-2" value="Thesis&amp;nbsp;&lt;span style=&quot;background-color: light-dark(#ffffff, var(--ge-dark-color, #121212)); color: light-dark(rgb(0, 0, 0), rgb(255, 255, 255));&quot;&gt;Data&lt;/span&gt;" style="edgeLabel;html=1;align=center;verticalAlign=middle;resizable=0;points=[];" parent="58ij7AsYlfpfPglQp_S_-173" vertex="1" connectable="0">
          <mxGeometry x="-0.6623" relative="1" as="geometry">
            <mxPoint x="-5" as="offset" />
          </mxGeometry>
        </mxCell>
        <mxCell id="58ij7AsYlfpfPglQp_S_-174" style="edgeStyle=orthogonalEdgeStyle;rounded=0;orthogonalLoop=1;jettySize=auto;html=1;" parent="4nZbFx58Cz5zcJhAMKUK-27" source="4nZbFx58Cz5zcJhAMKUK-152" target="4nZbFx58Cz5zcJhAMKUK-85" edge="1">
          <mxGeometry relative="1" as="geometry">
            <Array as="points">
              <mxPoint x="1120" y="1341" />
              <mxPoint x="1120" y="870" />
            </Array>
          </mxGeometry>
        </mxCell>
        <mxCell id="5X5vawwxVvFnSc0c-8mw-3" value="Thesis&amp;nbsp;&lt;span style=&quot;color: light-dark(rgb(0, 0, 0), rgb(255, 255, 255));&quot;&gt;id&lt;/span&gt;" style="edgeLabel;html=1;align=center;verticalAlign=middle;resizable=0;points=[];" parent="58ij7AsYlfpfPglQp_S_-174" vertex="1" connectable="0">
          <mxGeometry x="-0.6782" y="-3" relative="1" as="geometry">
            <mxPoint x="-13" y="-4" as="offset" />
          </mxGeometry>
        </mxCell>
        <mxCell id="5X5vawwxVvFnSc0c-8mw-9" style="edgeStyle=orthogonalEdgeStyle;rounded=0;orthogonalLoop=1;jettySize=auto;html=1;" parent="4nZbFx58Cz5zcJhAMKUK-27" source="4nZbFx58Cz5zcJhAMKUK-59" target="5X5vawwxVvFnSc0c-8mw-5" edge="1">
          <mxGeometry relative="1" as="geometry">
            <Array as="points">
              <mxPoint x="1700" y="780" />
              <mxPoint x="1700" y="1500" />
            </Array>
          </mxGeometry>
        </mxCell>
        <mxCell id="5X5vawwxVvFnSc0c-8mw-14" value="Statistic data" style="edgeLabel;html=1;align=center;verticalAlign=middle;resizable=0;points=[];" parent="5X5vawwxVvFnSc0c-8mw-9" vertex="1" connectable="0">
          <mxGeometry x="0.8824" relative="1" as="geometry">
            <mxPoint x="36" as="offset" />
          </mxGeometry>
        </mxCell>
        <mxCell id="5X5vawwxVvFnSc0c-8mw-8" style="edgeStyle=orthogonalEdgeStyle;rounded=0;orthogonalLoop=1;jettySize=auto;html=1;" parent="4nZbFx58Cz5zcJhAMKUK-27" source="5X5vawwxVvFnSc0c-8mw-7" target="58ij7AsYlfpfPglQp_S_-2" edge="1">
          <mxGeometry relative="1" as="geometry" />
        </mxCell>
        <mxCell id="YrC-N434iFFY0tVC18DP-4" value="Notification Approve Data" style="edgeLabel;html=1;align=center;verticalAlign=middle;resizable=0;points=[];" parent="5X5vawwxVvFnSc0c-8mw-8" vertex="1" connectable="0">
          <mxGeometry x="0.55" y="1" relative="1" as="geometry">
            <mxPoint x="10" y="-1" as="offset" />
          </mxGeometry>
        </mxCell>
        <mxCell id="58ij7AsYlfpfPglQp_S_-170" style="edgeStyle=orthogonalEdgeStyle;rounded=0;orthogonalLoop=1;jettySize=auto;html=1;" parent="4nZbFx58Cz5zcJhAMKUK-27" source="58ij7AsYlfpfPglQp_S_-2" target="58ij7AsYlfpfPglQp_S_-1" edge="1">
          <mxGeometry relative="1" as="geometry" />
        </mxCell>
        <mxCell id="YrC-N434iFFY0tVC18DP-5" value="Notification Approve Data" style="edgeLabel;html=1;align=center;verticalAlign=middle;resizable=0;points=[];" parent="58ij7AsYlfpfPglQp_S_-170" vertex="1" connectable="0">
          <mxGeometry x="0.2929" y="3" relative="1" as="geometry">
            <mxPoint x="21" y="-3" as="offset" />
          </mxGeometry>
        </mxCell>
        <mxCell id="YrC-N434iFFY0tVC18DP-8" style="edgeStyle=orthogonalEdgeStyle;rounded=0;orthogonalLoop=1;jettySize=auto;html=1;" parent="4nZbFx58Cz5zcJhAMKUK-27" source="5X5vawwxVvFnSc0c-8mw-7" target="5X5vawwxVvFnSc0c-8mw-16" edge="1">
          <mxGeometry relative="1" as="geometry">
            <Array as="points">
              <mxPoint x="1420" y="1420" />
              <mxPoint x="1420" y="1099" />
            </Array>
          </mxGeometry>
        </mxCell>
        <mxCell id="YrC-N434iFFY0tVC18DP-9" style="edgeStyle=orthogonalEdgeStyle;rounded=0;orthogonalLoop=1;jettySize=auto;html=1;" parent="4nZbFx58Cz5zcJhAMKUK-27" source="5X5vawwxVvFnSc0c-8mw-7" target="5X5vawwxVvFnSc0c-8mw-15" edge="1">
          <mxGeometry relative="1" as="geometry">
            <Array as="points">
              <mxPoint x="1420" y="1420" />
              <mxPoint x="1420" y="1179" />
            </Array>
          </mxGeometry>
        </mxCell>
        <mxCell id="YrC-N434iFFY0tVC18DP-10" style="edgeStyle=orthogonalEdgeStyle;rounded=0;orthogonalLoop=1;jettySize=auto;html=1;" parent="4nZbFx58Cz5zcJhAMKUK-27" source="5X5vawwxVvFnSc0c-8mw-7" target="5X5vawwxVvFnSc0c-8mw-17" edge="1">
          <mxGeometry relative="1" as="geometry">
            <Array as="points">
              <mxPoint x="1420" y="1420" />
              <mxPoint x="1420" y="1030" />
            </Array>
          </mxGeometry>
        </mxCell>
        <mxCell id="YrC-N434iFFY0tVC18DP-11" value="Update Notification Data" style="edgeLabel;html=1;align=center;verticalAlign=middle;resizable=0;points=[];" parent="YrC-N434iFFY0tVC18DP-10" vertex="1" connectable="0">
          <mxGeometry x="-0.4485" y="-3" relative="1" as="geometry">
            <mxPoint x="-3" y="-37" as="offset" />
          </mxGeometry>
        </mxCell>
        <mxCell id="YrC-N434iFFY0tVC18DP-12" style="edgeStyle=orthogonalEdgeStyle;rounded=0;orthogonalLoop=1;jettySize=auto;html=1;" parent="4nZbFx58Cz5zcJhAMKUK-27" source="5X5vawwxVvFnSc0c-8mw-17" target="5X5vawwxVvFnSc0c-8mw-7" edge="1">
          <mxGeometry relative="1" as="geometry">
            <Array as="points">
              <mxPoint x="1260" y="1010" />
            </Array>
          </mxGeometry>
        </mxCell>
        <mxCell id="YrC-N434iFFY0tVC18DP-13" value="Notification Approve Data" style="edgeLabel;html=1;align=center;verticalAlign=middle;resizable=0;points=[];" parent="YrC-N434iFFY0tVC18DP-12" vertex="1" connectable="0">
          <mxGeometry x="-0.6645" y="-2" relative="1" as="geometry">
            <mxPoint x="9" as="offset" />
          </mxGeometry>
        </mxCell>
        <mxCell id="YrC-N434iFFY0tVC18DP-14" value="Student Structor" style="swimlane;whiteSpace=wrap;html=1;startSize=40;" parent="1" vertex="1">
          <mxGeometry x="2000" y="1080" width="1720" height="1240" as="geometry" />
        </mxCell>
        <mxCell id="YrC-N434iFFY0tVC18DP-15" value="User function" style="swimlane;whiteSpace=wrap;html=1;" parent="YrC-N434iFFY0tVC18DP-14" vertex="1">
          <mxGeometry x="240" y="200" width="200" height="1000" as="geometry">
            <mxRectangle x="400" y="200" width="130" height="30" as="alternateBounds" />
          </mxGeometry>
        </mxCell>
        <mxCell id="YrC-N434iFFY0tVC18DP-16" value="Login" style="rounded=1;whiteSpace=wrap;html=1;" parent="YrC-N434iFFY0tVC18DP-15" vertex="1">
          <mxGeometry x="40" y="40" width="120" height="40" as="geometry" />
        </mxCell>
        <mxCell id="YrC-N434iFFY0tVC18DP-18" value="Comment" style="rounded=1;whiteSpace=wrap;html=1;" parent="YrC-N434iFFY0tVC18DP-15" vertex="1">
          <mxGeometry x="40" y="240" width="120" height="40" as="geometry" />
        </mxCell>
        <mxCell id="YrC-N434iFFY0tVC18DP-19" value="Teacher funtion" style="swimlane;whiteSpace=wrap;html=1;" parent="YrC-N434iFFY0tVC18DP-15" vertex="1">
          <mxGeometry x="20" y="761" width="160" height="199" as="geometry">
            <mxRectangle x="400" y="200" width="130" height="30" as="alternateBounds" />
          </mxGeometry>
        </mxCell>
        <mxCell id="YrC-N434iFFY0tVC18DP-20" value="Approve" style="rounded=1;whiteSpace=wrap;html=1;" parent="YrC-N434iFFY0tVC18DP-19" vertex="1">
          <mxGeometry x="20" y="40" width="120" height="40" as="geometry" />
        </mxCell>
        <mxCell id="YrC-N434iFFY0tVC18DP-21" value="Notification" style="rounded=1;whiteSpace=wrap;html=1;" parent="YrC-N434iFFY0tVC18DP-19" vertex="1">
          <mxGeometry x="20" y="119.5" width="120" height="40" as="geometry" />
        </mxCell>
        <mxCell id="YrC-N434iFFY0tVC18DP-114" value="Browse" style="rounded=1;whiteSpace=wrap;html=1;" parent="YrC-N434iFFY0tVC18DP-15" vertex="1">
          <mxGeometry x="40" y="520" width="120" height="40" as="geometry" />
        </mxCell>
        <mxCell id="YrC-N434iFFY0tVC18DP-22" value="API Before login Server" style="swimlane;whiteSpace=wrap;html=1;" parent="YrC-N434iFFY0tVC18DP-14" vertex="1">
          <mxGeometry x="600" y="120" width="440" height="200" as="geometry">
            <mxRectangle x="400" y="200" width="130" height="30" as="alternateBounds" />
          </mxGeometry>
        </mxCell>
        <mxCell id="YrC-N434iFFY0tVC18DP-28" style="edgeStyle=orthogonalEdgeStyle;rounded=0;orthogonalLoop=1;jettySize=auto;html=1;" parent="YrC-N434iFFY0tVC18DP-22" source="YrC-N434iFFY0tVC18DP-30" target="YrC-N434iFFY0tVC18DP-33" edge="1">
          <mxGeometry relative="1" as="geometry">
            <Array as="points">
              <mxPoint x="370" y="150" />
            </Array>
          </mxGeometry>
        </mxCell>
        <mxCell id="YrC-N434iFFY0tVC18DP-29" value="True /False" style="edgeLabel;html=1;align=center;verticalAlign=middle;resizable=0;points=[];" parent="YrC-N434iFFY0tVC18DP-28" vertex="1" connectable="0">
          <mxGeometry x="0.5032" y="2" relative="1" as="geometry">
            <mxPoint as="offset" />
          </mxGeometry>
        </mxCell>
        <mxCell id="YrC-N434iFFY0tVC18DP-30" value="Compare account" style="rounded=1;whiteSpace=wrap;html=1;" parent="YrC-N434iFFY0tVC18DP-22" vertex="1">
          <mxGeometry x="280" y="40" width="120" height="40" as="geometry" />
        </mxCell>
        <mxCell id="YrC-N434iFFY0tVC18DP-31" style="edgeStyle=orthogonalEdgeStyle;rounded=0;orthogonalLoop=1;jettySize=auto;html=1;entryX=0.25;entryY=1;entryDx=0;entryDy=0;exitX=1;exitY=0.25;exitDx=0;exitDy=0;" parent="YrC-N434iFFY0tVC18DP-22" source="YrC-N434iFFY0tVC18DP-33" target="YrC-N434iFFY0tVC18DP-30" edge="1">
          <mxGeometry relative="1" as="geometry" />
        </mxCell>
        <mxCell id="YrC-N434iFFY0tVC18DP-32" value="Username" style="edgeLabel;html=1;align=center;verticalAlign=middle;resizable=0;points=[];" parent="YrC-N434iFFY0tVC18DP-31" vertex="1" connectable="0">
          <mxGeometry x="-0.6102" relative="1" as="geometry">
            <mxPoint x="15" as="offset" />
          </mxGeometry>
        </mxCell>
        <mxCell id="YrC-N434iFFY0tVC18DP-33" value="Login" style="rounded=1;whiteSpace=wrap;html=1;" parent="YrC-N434iFFY0tVC18DP-22" vertex="1">
          <mxGeometry x="30" y="120" width="120" height="40" as="geometry" />
        </mxCell>
        <mxCell id="YrC-N434iFFY0tVC18DP-34" style="edgeStyle=orthogonalEdgeStyle;rounded=0;orthogonalLoop=1;jettySize=auto;html=1;" parent="YrC-N434iFFY0tVC18DP-22" source="YrC-N434iFFY0tVC18DP-40" target="YrC-N434iFFY0tVC18DP-33" edge="1">
          <mxGeometry relative="1" as="geometry">
            <Array as="points">
              <mxPoint x="60" y="100" />
              <mxPoint x="60" y="100" />
            </Array>
          </mxGeometry>
        </mxCell>
        <mxCell id="YrC-N434iFFY0tVC18DP-35" value="Password" style="edgeLabel;html=1;align=center;verticalAlign=middle;resizable=0;points=[];" parent="YrC-N434iFFY0tVC18DP-34" vertex="1" connectable="0">
          <mxGeometry x="-0.04" y="-1" relative="1" as="geometry">
            <mxPoint as="offset" />
          </mxGeometry>
        </mxCell>
        <mxCell id="YrC-N434iFFY0tVC18DP-36" style="edgeStyle=orthogonalEdgeStyle;rounded=0;orthogonalLoop=1;jettySize=auto;html=1;" parent="YrC-N434iFFY0tVC18DP-22" source="YrC-N434iFFY0tVC18DP-33" target="YrC-N434iFFY0tVC18DP-40" edge="1">
          <mxGeometry relative="1" as="geometry">
            <Array as="points">
              <mxPoint x="120" y="100" />
              <mxPoint x="120" y="100" />
            </Array>
          </mxGeometry>
        </mxCell>
        <mxCell id="YrC-N434iFFY0tVC18DP-37" value="Hash word" style="edgeLabel;html=1;align=center;verticalAlign=middle;resizable=0;points=[];" parent="YrC-N434iFFY0tVC18DP-36" vertex="1" connectable="0">
          <mxGeometry x="-0.02" y="1" relative="1" as="geometry">
            <mxPoint as="offset" />
          </mxGeometry>
        </mxCell>
        <mxCell id="YrC-N434iFFY0tVC18DP-40" value="Hash function" style="rounded=1;whiteSpace=wrap;html=1;" parent="YrC-N434iFFY0tVC18DP-22" vertex="1">
          <mxGeometry x="30" y="40" width="120" height="40" as="geometry" />
        </mxCell>
        <mxCell id="YrC-N434iFFY0tVC18DP-43" value="Database" style="swimlane;whiteSpace=wrap;html=1;" parent="YrC-N434iFFY0tVC18DP-14" vertex="1">
          <mxGeometry x="1480" y="120" width="200" height="1040" as="geometry">
            <mxRectangle x="400" y="200" width="130" height="30" as="alternateBounds" />
          </mxGeometry>
        </mxCell>
        <mxCell id="YrC-N434iFFY0tVC18DP-44" value="user" style="html=1;dashed=0;whiteSpace=wrap;shape=partialRectangle;right=0;" parent="YrC-N434iFFY0tVC18DP-43" vertex="1">
          <mxGeometry x="40" y="40" width="120" height="40" as="geometry" />
        </mxCell>
        <mxCell id="YrC-N434iFFY0tVC18DP-45" value="sub comment" style="html=1;dashed=0;whiteSpace=wrap;shape=partialRectangle;right=0;" parent="YrC-N434iFFY0tVC18DP-43" vertex="1">
          <mxGeometry x="40" y="360" width="120" height="40" as="geometry" />
        </mxCell>
        <mxCell id="YrC-N434iFFY0tVC18DP-46" value="comment" style="html=1;dashed=0;whiteSpace=wrap;shape=partialRectangle;right=0;" parent="YrC-N434iFFY0tVC18DP-43" vertex="1">
          <mxGeometry x="40" y="280" width="120" height="40" as="geometry" />
        </mxCell>
        <mxCell id="YrC-N434iFFY0tVC18DP-47" value="statistic" style="html=1;dashed=0;whiteSpace=wrap;shape=partialRectangle;right=0;" parent="YrC-N434iFFY0tVC18DP-43" vertex="1">
          <mxGeometry x="40" y="560" width="120" height="40" as="geometry" />
        </mxCell>
        <mxCell id="YrC-N434iFFY0tVC18DP-48" value="thesis" style="html=1;dashed=0;whiteSpace=wrap;shape=partialRectangle;right=0;" parent="YrC-N434iFFY0tVC18DP-43" vertex="1">
          <mxGeometry x="40" y="640" width="120" height="40" as="geometry" />
        </mxCell>
        <mxCell id="YrC-N434iFFY0tVC18DP-49" value="thesis-storage" style="html=1;dashed=0;whiteSpace=wrap;shape=partialRectangle;right=0;" parent="YrC-N434iFFY0tVC18DP-43" vertex="1">
          <mxGeometry x="40" y="720" width="120" height="40" as="geometry" />
        </mxCell>
        <mxCell id="YrC-N434iFFY0tVC18DP-50" value="notice-object" style="html=1;dashed=0;whiteSpace=wrap;shape=partialRectangle;right=0;" parent="YrC-N434iFFY0tVC18DP-43" vertex="1">
          <mxGeometry x="40" y="960" width="120" height="40" as="geometry" />
        </mxCell>
        <mxCell id="YrC-N434iFFY0tVC18DP-51" value="notice" style="html=1;dashed=0;whiteSpace=wrap;shape=partialRectangle;right=0;" parent="YrC-N434iFFY0tVC18DP-43" vertex="1">
          <mxGeometry x="40" y="880" width="120" height="40" as="geometry" />
        </mxCell>
        <mxCell id="YrC-N434iFFY0tVC18DP-52" value="notice-reciver" style="html=1;dashed=0;whiteSpace=wrap;shape=partialRectangle;right=0;" parent="YrC-N434iFFY0tVC18DP-43" vertex="1">
          <mxGeometry x="40" y="800" width="120" height="40" as="geometry" />
        </mxCell>
        <mxCell id="YrC-N434iFFY0tVC18DP-53" style="edgeStyle=orthogonalEdgeStyle;rounded=0;orthogonalLoop=1;jettySize=auto;html=1;entryX=0;entryY=0.5;entryDx=0;entryDy=0;" parent="YrC-N434iFFY0tVC18DP-14" source="YrC-N434iFFY0tVC18DP-56" target="YrC-N434iFFY0tVC18DP-114" edge="1">
          <mxGeometry relative="1" as="geometry" />
        </mxCell>
        <mxCell id="YrC-N434iFFY0tVC18DP-55" style="edgeStyle=orthogonalEdgeStyle;rounded=0;orthogonalLoop=1;jettySize=auto;html=1;entryX=0;entryY=0.5;entryDx=0;entryDy=0;" parent="YrC-N434iFFY0tVC18DP-14" source="YrC-N434iFFY0tVC18DP-56" target="YrC-N434iFFY0tVC18DP-16" edge="1">
          <mxGeometry relative="1" as="geometry" />
        </mxCell>
        <mxCell id="YrC-N434iFFY0tVC18DP-56" value="Teacher" style="html=1;dashed=0;whiteSpace=wrap;" parent="YrC-N434iFFY0tVC18DP-14" vertex="1">
          <mxGeometry x="40" y="320" width="120" height="40" as="geometry" />
        </mxCell>
        <mxCell id="YrC-N434iFFY0tVC18DP-59" style="edgeStyle=orthogonalEdgeStyle;rounded=0;orthogonalLoop=1;jettySize=auto;html=1;" parent="YrC-N434iFFY0tVC18DP-14" source="YrC-N434iFFY0tVC18DP-16" target="YrC-N434iFFY0tVC18DP-33" edge="1">
          <mxGeometry relative="1" as="geometry">
            <Array as="points">
              <mxPoint x="460" y="250" />
              <mxPoint x="460" y="250" />
            </Array>
          </mxGeometry>
        </mxCell>
        <mxCell id="YrC-N434iFFY0tVC18DP-60" value="Username &amp;amp; Password" style="edgeLabel;html=1;align=center;verticalAlign=middle;resizable=0;points=[];" parent="YrC-N434iFFY0tVC18DP-59" vertex="1" connectable="0">
          <mxGeometry x="-0.1119" relative="1" as="geometry">
            <mxPoint x="17" as="offset" />
          </mxGeometry>
        </mxCell>
        <mxCell id="YrC-N434iFFY0tVC18DP-61" style="edgeStyle=orthogonalEdgeStyle;rounded=0;orthogonalLoop=1;jettySize=auto;html=1;" parent="YrC-N434iFFY0tVC18DP-14" source="YrC-N434iFFY0tVC18DP-33" target="YrC-N434iFFY0tVC18DP-16" edge="1">
          <mxGeometry relative="1" as="geometry">
            <Array as="points">
              <mxPoint x="420" y="270" />
              <mxPoint x="420" y="270" />
            </Array>
          </mxGeometry>
        </mxCell>
        <mxCell id="YrC-N434iFFY0tVC18DP-62" value="user_id" style="edgeLabel;html=1;align=center;verticalAlign=middle;resizable=0;points=[];" parent="YrC-N434iFFY0tVC18DP-61" vertex="1" connectable="0">
          <mxGeometry x="-0.1446" y="-1" relative="1" as="geometry">
            <mxPoint x="-17" y="1" as="offset" />
          </mxGeometry>
        </mxCell>
        <mxCell id="YrC-N434iFFY0tVC18DP-65" value="API Database" style="swimlane;whiteSpace=wrap;html=1;" parent="YrC-N434iFFY0tVC18DP-14" vertex="1">
          <mxGeometry x="1160" y="120" width="200" height="920" as="geometry">
            <mxRectangle x="400" y="200" width="130" height="30" as="alternateBounds" />
          </mxGeometry>
        </mxCell>
        <mxCell id="YrC-N434iFFY0tVC18DP-66" style="edgeStyle=orthogonalEdgeStyle;rounded=0;orthogonalLoop=1;jettySize=auto;html=1;entryX=0;entryY=0.25;entryDx=0;entryDy=0;exitX=1;exitY=0.25;exitDx=0;exitDy=0;" parent="YrC-N434iFFY0tVC18DP-65" edge="1">
          <mxGeometry relative="1" as="geometry">
            <mxPoint x="160" y="50" as="sourcePoint" />
            <Array as="points">
              <mxPoint x="250" y="50" />
              <mxPoint x="250" y="50" />
            </Array>
          </mxGeometry>
        </mxCell>
        <mxCell id="YrC-N434iFFY0tVC18DP-67" value="Username" style="edgeLabel;html=1;align=center;verticalAlign=middle;resizable=0;points=[];" parent="YrC-N434iFFY0tVC18DP-66" vertex="1" connectable="0">
          <mxGeometry x="-0.195" y="1" relative="1" as="geometry">
            <mxPoint x="12" y="1" as="offset" />
          </mxGeometry>
        </mxCell>
        <mxCell id="YrC-N434iFFY0tVC18DP-68" style="edgeStyle=orthogonalEdgeStyle;rounded=0;orthogonalLoop=1;jettySize=auto;html=1;entryX=0.25;entryY=0;entryDx=0;entryDy=0;exitX=0.25;exitY=1;exitDx=0;exitDy=0;" parent="YrC-N434iFFY0tVC18DP-65" edge="1">
          <mxGeometry relative="1" as="geometry">
            <mxPoint x="70" y="80" as="sourcePoint" />
          </mxGeometry>
        </mxCell>
        <mxCell id="YrC-N434iFFY0tVC18DP-69" style="edgeStyle=orthogonalEdgeStyle;rounded=0;orthogonalLoop=1;jettySize=auto;html=1;entryX=0.5;entryY=0;entryDx=0;entryDy=0;" parent="YrC-N434iFFY0tVC18DP-65" edge="1">
          <mxGeometry relative="1" as="geometry">
            <mxPoint x="100" y="160" as="sourcePoint" />
          </mxGeometry>
        </mxCell>
        <mxCell id="YrC-N434iFFY0tVC18DP-70" style="edgeStyle=orthogonalEdgeStyle;rounded=0;orthogonalLoop=1;jettySize=auto;html=1;exitX=1;exitY=0.25;exitDx=0;exitDy=0;" parent="YrC-N434iFFY0tVC18DP-65" edge="1">
          <mxGeometry relative="1" as="geometry">
            <mxPoint x="160" y="140" as="targetPoint" />
            <Array as="points">
              <mxPoint x="180" y="210" />
              <mxPoint x="180" y="140" />
            </Array>
          </mxGeometry>
        </mxCell>
        <mxCell id="YrC-N434iFFY0tVC18DP-71" style="edgeStyle=orthogonalEdgeStyle;rounded=0;orthogonalLoop=1;jettySize=auto;html=1;entryX=0.75;entryY=1;entryDx=0;entryDy=0;exitX=0.75;exitY=0;exitDx=0;exitDy=0;" parent="YrC-N434iFFY0tVC18DP-65" edge="1">
          <mxGeometry relative="1" as="geometry">
            <mxPoint x="130" y="80" as="targetPoint" />
          </mxGeometry>
        </mxCell>
        <mxCell id="YrC-N434iFFY0tVC18DP-72" value="User" style="rounded=1;whiteSpace=wrap;html=1;" parent="YrC-N434iFFY0tVC18DP-65" vertex="1">
          <mxGeometry x="40" y="40" width="120" height="40" as="geometry" />
        </mxCell>
        <mxCell id="YrC-N434iFFY0tVC18DP-73" style="edgeStyle=orthogonalEdgeStyle;rounded=0;orthogonalLoop=1;jettySize=auto;html=1;entryX=0.5;entryY=1;entryDx=0;entryDy=0;" parent="YrC-N434iFFY0tVC18DP-65" source="YrC-N434iFFY0tVC18DP-81" target="YrC-N434iFFY0tVC18DP-76" edge="1">
          <mxGeometry relative="1" as="geometry">
            <Array as="points" />
          </mxGeometry>
        </mxCell>
        <mxCell id="YrC-N434iFFY0tVC18DP-74" value="View count / thesis id" style="edgeLabel;html=1;align=center;verticalAlign=middle;resizable=0;points=[];" parent="YrC-N434iFFY0tVC18DP-73" vertex="1" connectable="0">
          <mxGeometry x="-0.0278" relative="1" as="geometry">
            <mxPoint y="-1" as="offset" />
          </mxGeometry>
        </mxCell>
        <mxCell id="YrC-N434iFFY0tVC18DP-75" style="edgeStyle=orthogonalEdgeStyle;rounded=0;orthogonalLoop=1;jettySize=auto;html=1;entryX=0.5;entryY=0;entryDx=0;entryDy=0;" parent="YrC-N434iFFY0tVC18DP-65" source="YrC-N434iFFY0tVC18DP-77" target="YrC-N434iFFY0tVC18DP-78" edge="1">
          <mxGeometry relative="1" as="geometry" />
        </mxCell>
        <mxCell id="YrC-N434iFFY0tVC18DP-76" value="Statistic" style="rounded=1;whiteSpace=wrap;html=1;" parent="YrC-N434iFFY0tVC18DP-65" vertex="1">
          <mxGeometry x="40" y="560" width="120" height="40" as="geometry" />
        </mxCell>
        <mxCell id="YrC-N434iFFY0tVC18DP-77" value="Trigger monthly" style="rounded=1;whiteSpace=wrap;html=1;" parent="YrC-N434iFFY0tVC18DP-65" vertex="1">
          <mxGeometry x="40" y="400" width="120" height="40" as="geometry" />
        </mxCell>
        <mxCell id="YrC-N434iFFY0tVC18DP-78" value="Update top thesis" style="rounded=1;whiteSpace=wrap;html=1;" parent="YrC-N434iFFY0tVC18DP-65" vertex="1">
          <mxGeometry x="40" y="480" width="120" height="40" as="geometry" />
        </mxCell>
        <mxCell id="YrC-N434iFFY0tVC18DP-81" value="Thesis" style="rounded=1;whiteSpace=wrap;html=1;" parent="YrC-N434iFFY0tVC18DP-65" vertex="1">
          <mxGeometry x="40" y="640" width="120" height="40" as="geometry" />
        </mxCell>
        <mxCell id="YrC-N434iFFY0tVC18DP-82" value="Comment" style="rounded=1;whiteSpace=wrap;html=1;" parent="YrC-N434iFFY0tVC18DP-65" vertex="1">
          <mxGeometry x="40" y="320" width="120" height="40" as="geometry" />
        </mxCell>
        <mxCell id="YrC-N434iFFY0tVC18DP-92" value="Notify" style="rounded=1;whiteSpace=wrap;html=1;" parent="YrC-N434iFFY0tVC18DP-65" vertex="1">
          <mxGeometry x="40" y="720" width="120" height="40" as="geometry" />
        </mxCell>
        <mxCell id="YrC-N434iFFY0tVC18DP-93" style="edgeStyle=orthogonalEdgeStyle;rounded=0;orthogonalLoop=1;jettySize=auto;html=1;entryX=0;entryY=0.25;entryDx=0;entryDy=0;exitX=1;exitY=0.25;exitDx=0;exitDy=0;" parent="YrC-N434iFFY0tVC18DP-14" source="YrC-N434iFFY0tVC18DP-72" target="YrC-N434iFFY0tVC18DP-44" edge="1">
          <mxGeometry relative="1" as="geometry">
            <mxPoint x="1420" y="180" as="targetPoint" />
          </mxGeometry>
        </mxCell>
        <mxCell id="YrC-N434iFFY0tVC18DP-94" value="Username &amp;amp; Hash word" style="edgeLabel;html=1;align=center;verticalAlign=middle;resizable=0;points=[];" parent="YrC-N434iFFY0tVC18DP-93" vertex="1" connectable="0">
          <mxGeometry x="-0.1577" relative="1" as="geometry">
            <mxPoint x="12" as="offset" />
          </mxGeometry>
        </mxCell>
        <mxCell id="YrC-N434iFFY0tVC18DP-95" style="edgeStyle=orthogonalEdgeStyle;rounded=0;orthogonalLoop=1;jettySize=auto;html=1;exitX=0;exitY=0.75;exitDx=0;exitDy=0;entryX=1;entryY=0.75;entryDx=0;entryDy=0;" parent="YrC-N434iFFY0tVC18DP-14" source="YrC-N434iFFY0tVC18DP-44" target="YrC-N434iFFY0tVC18DP-72" edge="1">
          <mxGeometry relative="1" as="geometry">
            <mxPoint x="1390" y="360" as="targetPoint" />
          </mxGeometry>
        </mxCell>
        <mxCell id="YrC-N434iFFY0tVC18DP-96" value="List Username" style="edgeLabel;html=1;align=center;verticalAlign=middle;resizable=0;points=[];" parent="YrC-N434iFFY0tVC18DP-95" vertex="1" connectable="0">
          <mxGeometry x="0.1101" relative="1" as="geometry">
            <mxPoint x="9" as="offset" />
          </mxGeometry>
        </mxCell>
        <mxCell id="YrC-N434iFFY0tVC18DP-97" style="edgeStyle=orthogonalEdgeStyle;rounded=0;orthogonalLoop=1;jettySize=auto;html=1;exitX=0;exitY=0.5;exitDx=0;exitDy=0;entryX=1;entryY=0.5;entryDx=0;entryDy=0;" parent="YrC-N434iFFY0tVC18DP-14" source="YrC-N434iFFY0tVC18DP-72" target="YrC-N434iFFY0tVC18DP-30" edge="1">
          <mxGeometry relative="1" as="geometry">
            <mxPoint x="1040" y="170" as="targetPoint" />
            <Array as="points" />
          </mxGeometry>
        </mxCell>
        <mxCell id="YrC-N434iFFY0tVC18DP-98" value="Username" style="edgeLabel;html=1;align=center;verticalAlign=middle;resizable=0;points=[];" parent="YrC-N434iFFY0tVC18DP-97" vertex="1" connectable="0">
          <mxGeometry x="0.3543" relative="1" as="geometry">
            <mxPoint x="35" as="offset" />
          </mxGeometry>
        </mxCell>
        <mxCell id="YrC-N434iFFY0tVC18DP-99" value="API After login" style="swimlane;whiteSpace=wrap;html=1;" parent="YrC-N434iFFY0tVC18DP-14" vertex="1">
          <mxGeometry x="600" y="360" width="440" height="840" as="geometry" />
        </mxCell>
        <mxCell id="YrC-N434iFFY0tVC18DP-100" value="Comment API" style="swimlane;whiteSpace=wrap;html=1;" parent="YrC-N434iFFY0tVC18DP-99" vertex="1">
          <mxGeometry x="120" y="40" width="200" height="280" as="geometry">
            <mxRectangle x="400" y="200" width="130" height="30" as="alternateBounds" />
          </mxGeometry>
        </mxCell>
        <mxCell id="YrC-N434iFFY0tVC18DP-101" value="Get comment" style="rounded=1;whiteSpace=wrap;html=1;" parent="YrC-N434iFFY0tVC18DP-100" vertex="1">
          <mxGeometry x="40" y="40" width="120" height="40" as="geometry" />
        </mxCell>
        <mxCell id="YrC-N434iFFY0tVC18DP-102" value="Comment edit" style="rounded=1;whiteSpace=wrap;html=1;" parent="YrC-N434iFFY0tVC18DP-100" vertex="1">
          <mxGeometry x="40" y="120" width="120" height="40" as="geometry" />
        </mxCell>
        <mxCell id="YrC-N434iFFY0tVC18DP-103" value="New Comment" style="rounded=1;whiteSpace=wrap;html=1;" parent="YrC-N434iFFY0tVC18DP-100" vertex="1">
          <mxGeometry x="40" y="200" width="120" height="40" as="geometry" />
        </mxCell>
        <mxCell id="YrC-N434iFFY0tVC18DP-116" value="Get thesis by keyword / Catagory" style="rounded=1;whiteSpace=wrap;html=1;" parent="YrC-N434iFFY0tVC18DP-99" vertex="1">
          <mxGeometry x="160" y="520" width="120" height="40" as="geometry" />
        </mxCell>
        <mxCell id="YrC-N434iFFY0tVC18DP-117" value="Download thesis" style="rounded=1;whiteSpace=wrap;html=1;" parent="YrC-N434iFFY0tVC18DP-99" vertex="1">
          <mxGeometry x="160" y="360" width="120" height="40" as="geometry" />
        </mxCell>
        <mxCell id="YrC-N434iFFY0tVC18DP-118" value="Get Thesis" style="rounded=1;whiteSpace=wrap;html=1;" parent="YrC-N434iFFY0tVC18DP-99" vertex="1">
          <mxGeometry x="160" y="440" width="120" height="40" as="geometry" />
        </mxCell>
        <mxCell id="YrC-N434iFFY0tVC18DP-121" value="API Teacher" style="swimlane;whiteSpace=wrap;html=1;" parent="YrC-N434iFFY0tVC18DP-99" vertex="1">
          <mxGeometry x="40" y="601" width="360" height="199" as="geometry">
            <mxRectangle x="400" y="200" width="130" height="30" as="alternateBounds" />
          </mxGeometry>
        </mxCell>
        <mxCell id="YrC-N434iFFY0tVC18DP-131" value="Approve" style="rounded=1;whiteSpace=wrap;html=1;" parent="YrC-N434iFFY0tVC18DP-121" vertex="1">
          <mxGeometry x="120" y="40" width="120" height="40" as="geometry" />
        </mxCell>
        <mxCell id="YrC-N434iFFY0tVC18DP-132" value="Notify" style="rounded=1;whiteSpace=wrap;html=1;" parent="YrC-N434iFFY0tVC18DP-121" vertex="1">
          <mxGeometry x="120" y="119" width="120" height="40" as="geometry" />
        </mxCell>
        <mxCell id="YrC-N434iFFY0tVC18DP-133" style="edgeStyle=orthogonalEdgeStyle;rounded=0;orthogonalLoop=1;jettySize=auto;html=1;exitX=1;exitY=0.75;exitDx=0;exitDy=0;entryX=0;entryY=0.75;entryDx=0;entryDy=0;startArrow=classic;startFill=1;" parent="YrC-N434iFFY0tVC18DP-14" source="YrC-N434iFFY0tVC18DP-82" target="YrC-N434iFFY0tVC18DP-45" edge="1">
          <mxGeometry relative="1" as="geometry">
            <mxPoint x="1480" y="510" as="targetPoint" />
          </mxGeometry>
        </mxCell>
        <mxCell id="YrC-N434iFFY0tVC18DP-134" value="Comment Data" style="edgeLabel;html=1;align=center;verticalAlign=middle;resizable=0;points=[];" parent="YrC-N434iFFY0tVC18DP-133" vertex="1" connectable="0">
          <mxGeometry x="-0.1036" y="1" relative="1" as="geometry">
            <mxPoint x="9" y="12" as="offset" />
          </mxGeometry>
        </mxCell>
        <mxCell id="YrC-N434iFFY0tVC18DP-135" style="edgeStyle=orthogonalEdgeStyle;rounded=0;orthogonalLoop=1;jettySize=auto;html=1;entryX=1;entryY=0.25;entryDx=0;entryDy=0;exitX=0;exitY=0.5;exitDx=0;exitDy=0;startArrow=classic;startFill=1;" parent="YrC-N434iFFY0tVC18DP-14" source="YrC-N434iFFY0tVC18DP-46" target="YrC-N434iFFY0tVC18DP-82" edge="1">
          <mxGeometry relative="1" as="geometry">
            <Array as="points" />
            <mxPoint x="1480" y="420" as="sourcePoint" />
          </mxGeometry>
        </mxCell>
        <mxCell id="YrC-N434iFFY0tVC18DP-136" value="Comment Data" style="edgeLabel;html=1;align=center;verticalAlign=middle;resizable=0;points=[];" parent="YrC-N434iFFY0tVC18DP-135" vertex="1" connectable="0">
          <mxGeometry x="0.5929" relative="1" as="geometry">
            <mxPoint x="45" y="-30" as="offset" />
          </mxGeometry>
        </mxCell>
        <mxCell id="YrC-N434iFFY0tVC18DP-137" style="rounded=0;orthogonalLoop=1;jettySize=auto;html=1;entryX=0;entryY=0.75;entryDx=0;entryDy=0;exitX=1;exitY=0.75;exitDx=0;exitDy=0;edgeStyle=orthogonalEdgeStyle;" parent="YrC-N434iFFY0tVC18DP-14" source="YrC-N434iFFY0tVC18DP-101" target="YrC-N434iFFY0tVC18DP-82" edge="1">
          <mxGeometry relative="1" as="geometry">
            <mxPoint x="-320" y="570" as="targetPoint" />
          </mxGeometry>
        </mxCell>
        <mxCell id="YrC-N434iFFY0tVC18DP-138" value="Thesis id" style="edgeLabel;html=1;align=center;verticalAlign=middle;resizable=0;points=[];" parent="YrC-N434iFFY0tVC18DP-137" vertex="1" connectable="0">
          <mxGeometry x="-0.7095" relative="1" as="geometry">
            <mxPoint x="54" as="offset" />
          </mxGeometry>
        </mxCell>
        <mxCell id="YrC-N434iFFY0tVC18DP-139" style="rounded=0;orthogonalLoop=1;jettySize=auto;html=1;exitX=0;exitY=0.25;exitDx=0;exitDy=0;entryX=1;entryY=0.25;entryDx=0;entryDy=0;edgeStyle=orthogonalEdgeStyle;" parent="YrC-N434iFFY0tVC18DP-14" source="YrC-N434iFFY0tVC18DP-82" target="YrC-N434iFFY0tVC18DP-101" edge="1">
          <mxGeometry relative="1" as="geometry">
            <mxPoint x="-320" y="550" as="sourcePoint" />
          </mxGeometry>
        </mxCell>
        <mxCell id="YrC-N434iFFY0tVC18DP-140" value="Comment Data" style="edgeLabel;html=1;align=center;verticalAlign=middle;resizable=0;points=[];" parent="YrC-N434iFFY0tVC18DP-139" vertex="1" connectable="0">
          <mxGeometry x="0.6735" y="1" relative="1" as="geometry">
            <mxPoint x="48" as="offset" />
          </mxGeometry>
        </mxCell>
        <mxCell id="YrC-N434iFFY0tVC18DP-141" style="rounded=0;orthogonalLoop=1;jettySize=auto;html=1;edgeStyle=orthogonalEdgeStyle;" parent="YrC-N434iFFY0tVC18DP-14" source="YrC-N434iFFY0tVC18DP-102" target="YrC-N434iFFY0tVC18DP-82" edge="1">
          <mxGeometry relative="1" as="geometry">
            <mxPoint x="-320" y="570" as="targetPoint" />
            <Array as="points">
              <mxPoint x="1080" y="540" />
              <mxPoint x="1080" y="470" />
            </Array>
          </mxGeometry>
        </mxCell>
        <mxCell id="YrC-N434iFFY0tVC18DP-142" value="Edit comment" style="edgeLabel;html=1;align=center;verticalAlign=middle;resizable=0;points=[];" parent="YrC-N434iFFY0tVC18DP-141" vertex="1" connectable="0">
          <mxGeometry x="-0.7517" y="-1" relative="1" as="geometry">
            <mxPoint x="52" y="-1" as="offset" />
          </mxGeometry>
        </mxCell>
        <mxCell id="YrC-N434iFFY0tVC18DP-143" style="rounded=0;orthogonalLoop=1;jettySize=auto;html=1;edgeStyle=orthogonalEdgeStyle;" parent="YrC-N434iFFY0tVC18DP-14" source="YrC-N434iFFY0tVC18DP-103" target="YrC-N434iFFY0tVC18DP-82" edge="1">
          <mxGeometry relative="1" as="geometry">
            <mxPoint x="-60" y="1010" as="targetPoint" />
            <Array as="points">
              <mxPoint x="1080" y="620" />
              <mxPoint x="1080" y="470" />
            </Array>
          </mxGeometry>
        </mxCell>
        <mxCell id="YrC-N434iFFY0tVC18DP-144" value="Comment" style="edgeLabel;html=1;align=center;verticalAlign=middle;resizable=0;points=[];" parent="YrC-N434iFFY0tVC18DP-143" vertex="1" connectable="0">
          <mxGeometry x="-0.7315" y="3" relative="1" as="geometry">
            <mxPoint x="37" y="3" as="offset" />
          </mxGeometry>
        </mxCell>
        <mxCell id="YrC-N434iFFY0tVC18DP-145" style="rounded=0;orthogonalLoop=1;jettySize=auto;html=1;entryX=0;entryY=0.75;entryDx=0;entryDy=0;exitX=1;exitY=0.75;exitDx=0;exitDy=0;edgeStyle=orthogonalEdgeStyle;" parent="YrC-N434iFFY0tVC18DP-14" source="YrC-N434iFFY0tVC18DP-18" target="YrC-N434iFFY0tVC18DP-101" edge="1">
          <mxGeometry relative="1" as="geometry" />
        </mxCell>
        <mxCell id="YrC-N434iFFY0tVC18DP-146" value="Thesis id" style="edgeLabel;html=1;align=center;verticalAlign=middle;resizable=0;points=[];" parent="YrC-N434iFFY0tVC18DP-145" vertex="1" connectable="0">
          <mxGeometry x="0.47" y="-1" relative="1" as="geometry">
            <mxPoint x="-24" as="offset" />
          </mxGeometry>
        </mxCell>
        <mxCell id="YrC-N434iFFY0tVC18DP-147" style="rounded=0;orthogonalLoop=1;jettySize=auto;html=1;exitX=0;exitY=0.25;exitDx=0;exitDy=0;entryX=1;entryY=0.25;entryDx=0;entryDy=0;edgeStyle=orthogonalEdgeStyle;" parent="YrC-N434iFFY0tVC18DP-14" source="YrC-N434iFFY0tVC18DP-101" target="YrC-N434iFFY0tVC18DP-18" edge="1">
          <mxGeometry relative="1" as="geometry">
            <mxPoint x="-600" y="860" as="sourcePoint" />
          </mxGeometry>
        </mxCell>
        <mxCell id="YrC-N434iFFY0tVC18DP-148" value="Comment Data" style="edgeLabel;html=1;align=center;verticalAlign=middle;resizable=0;points=[];" parent="YrC-N434iFFY0tVC18DP-147" vertex="1" connectable="0">
          <mxGeometry x="-0.2535" y="1" relative="1" as="geometry">
            <mxPoint x="-86" y="-1" as="offset" />
          </mxGeometry>
        </mxCell>
        <mxCell id="YrC-N434iFFY0tVC18DP-149" style="rounded=0;orthogonalLoop=1;jettySize=auto;html=1;entryX=0;entryY=0.5;entryDx=0;entryDy=0;exitX=1;exitY=0.75;exitDx=0;exitDy=0;edgeStyle=orthogonalEdgeStyle;" parent="YrC-N434iFFY0tVC18DP-14" source="YrC-N434iFFY0tVC18DP-18" target="YrC-N434iFFY0tVC18DP-102" edge="1">
          <mxGeometry relative="1" as="geometry">
            <mxPoint x="-1230" y="730" as="sourcePoint" />
          </mxGeometry>
        </mxCell>
        <mxCell id="YrC-N434iFFY0tVC18DP-150" value="Edit comment&amp;nbsp;&lt;div&gt;/ Comment_id&lt;/div&gt;" style="edgeLabel;html=1;align=center;verticalAlign=middle;resizable=0;points=[];" parent="YrC-N434iFFY0tVC18DP-149" vertex="1" connectable="0">
          <mxGeometry x="0.3212" y="-3" relative="1" as="geometry">
            <mxPoint x="36" y="-3" as="offset" />
          </mxGeometry>
        </mxCell>
        <mxCell id="YrC-N434iFFY0tVC18DP-151" style="rounded=0;orthogonalLoop=1;jettySize=auto;html=1;entryX=0;entryY=0.5;entryDx=0;entryDy=0;exitX=1;exitY=0.75;exitDx=0;exitDy=0;edgeStyle=orthogonalEdgeStyle;" parent="YrC-N434iFFY0tVC18DP-14" source="YrC-N434iFFY0tVC18DP-18" target="YrC-N434iFFY0tVC18DP-103" edge="1">
          <mxGeometry relative="1" as="geometry" />
        </mxCell>
        <mxCell id="YrC-N434iFFY0tVC18DP-152" value="Comment" style="edgeLabel;html=1;align=center;verticalAlign=middle;resizable=0;points=[];" parent="YrC-N434iFFY0tVC18DP-151" vertex="1" connectable="0">
          <mxGeometry x="0.3448" y="1" relative="1" as="geometry">
            <mxPoint x="57" y="1" as="offset" />
          </mxGeometry>
        </mxCell>
        <mxCell id="YrC-N434iFFY0tVC18DP-153" style="edgeStyle=orthogonalEdgeStyle;rounded=0;orthogonalLoop=1;jettySize=auto;html=1;" parent="YrC-N434iFFY0tVC18DP-14" source="YrC-N434iFFY0tVC18DP-81" target="YrC-N434iFFY0tVC18DP-116" edge="1">
          <mxGeometry relative="1" as="geometry">
            <mxPoint x="1230" y="520" as="sourcePoint" />
            <mxPoint x="1050" y="790" as="targetPoint" />
            <Array as="points">
              <mxPoint x="1080" y="770" />
              <mxPoint x="1080" y="900" />
            </Array>
          </mxGeometry>
        </mxCell>
        <mxCell id="YrC-N434iFFY0tVC18DP-154" value="Thesis&amp;nbsp;&lt;span style=&quot;background-color: light-dark(#ffffff, var(--ge-dark-color, #121212)); color: light-dark(rgb(0, 0, 0), rgb(255, 255, 255));&quot;&gt;Data&amp;nbsp;&lt;/span&gt;&lt;span style=&quot;color: light-dark(rgb(0, 0, 0), rgb(255, 255, 255)); background-color: light-dark(#ffffff, var(--ge-dark-color, #121212));&quot;&gt;Search&lt;/span&gt;&amp;nbsp;/ PDF file" style="edgeLabel;html=1;align=center;verticalAlign=middle;resizable=0;points=[];" parent="YrC-N434iFFY0tVC18DP-153" vertex="1" connectable="0">
          <mxGeometry x="0.13" y="1" relative="1" as="geometry">
            <mxPoint x="-84" y="-1" as="offset" />
          </mxGeometry>
        </mxCell>
        <mxCell id="YrC-N434iFFY0tVC18DP-155" style="edgeStyle=orthogonalEdgeStyle;rounded=0;orthogonalLoop=1;jettySize=auto;html=1;" parent="YrC-N434iFFY0tVC18DP-14" source="YrC-N434iFFY0tVC18DP-117" target="YrC-N434iFFY0tVC18DP-76" edge="1">
          <mxGeometry relative="1" as="geometry">
            <Array as="points">
              <mxPoint x="1120" y="730" />
              <mxPoint x="1120" y="700" />
            </Array>
          </mxGeometry>
        </mxCell>
        <mxCell id="YrC-N434iFFY0tVC18DP-156" value="Thesis id / download count" style="edgeLabel;html=1;align=center;verticalAlign=middle;resizable=0;points=[];" parent="YrC-N434iFFY0tVC18DP-155" vertex="1" connectable="0">
          <mxGeometry x="-0.7394" y="1" relative="1" as="geometry">
            <mxPoint x="108" y="1" as="offset" />
          </mxGeometry>
        </mxCell>
        <mxCell id="YrC-N434iFFY0tVC18DP-157" style="edgeStyle=orthogonalEdgeStyle;rounded=0;orthogonalLoop=1;jettySize=auto;html=1;" parent="YrC-N434iFFY0tVC18DP-14" source="YrC-N434iFFY0tVC18DP-81" target="YrC-N434iFFY0tVC18DP-117" edge="1">
          <mxGeometry relative="1" as="geometry">
            <Array as="points">
              <mxPoint x="1080" y="770" />
              <mxPoint x="1080" y="750" />
            </Array>
            <mxPoint x="1480" y="700" as="sourcePoint" />
            <mxPoint x="1240" y="720" as="targetPoint" />
          </mxGeometry>
        </mxCell>
        <mxCell id="YrC-N434iFFY0tVC18DP-158" value="PDF file" style="edgeLabel;html=1;align=center;verticalAlign=middle;resizable=0;points=[];" parent="YrC-N434iFFY0tVC18DP-157" vertex="1" connectable="0">
          <mxGeometry x="-0.0643" y="1" relative="1" as="geometry">
            <mxPoint x="-87" y="-1" as="offset" />
          </mxGeometry>
        </mxCell>
        <mxCell id="YrC-N434iFFY0tVC18DP-159" style="edgeStyle=orthogonalEdgeStyle;rounded=0;orthogonalLoop=1;jettySize=auto;html=1;" parent="YrC-N434iFFY0tVC18DP-14" source="YrC-N434iFFY0tVC18DP-81" target="YrC-N434iFFY0tVC18DP-118" edge="1">
          <mxGeometry relative="1" as="geometry">
            <Array as="points">
              <mxPoint x="1080" y="770" />
              <mxPoint x="1080" y="820" />
            </Array>
          </mxGeometry>
        </mxCell>
        <mxCell id="YrC-N434iFFY0tVC18DP-160" value="Thesis&amp;nbsp;&lt;span style=&quot;background-color: light-dark(#ffffff, var(--ge-dark-color, #121212)); color: light-dark(rgb(0, 0, 0), rgb(255, 255, 255));&quot;&gt;Data / PDF file&lt;/span&gt;" style="edgeLabel;html=1;align=center;verticalAlign=middle;resizable=0;points=[];" parent="YrC-N434iFFY0tVC18DP-159" vertex="1" connectable="0">
          <mxGeometry x="0.13" y="1" relative="1" as="geometry">
            <mxPoint x="-64" y="-1" as="offset" />
          </mxGeometry>
        </mxCell>
        <mxCell id="YrC-N434iFFY0tVC18DP-161" style="edgeStyle=orthogonalEdgeStyle;rounded=0;orthogonalLoop=1;jettySize=auto;html=1;entryX=0.5;entryY=0;entryDx=0;entryDy=0;" parent="YrC-N434iFFY0tVC18DP-14" source="YrC-N434iFFY0tVC18DP-78" target="YrC-N434iFFY0tVC18DP-47" edge="1">
          <mxGeometry relative="1" as="geometry">
            <Array as="points">
              <mxPoint x="1580" y="620" />
            </Array>
          </mxGeometry>
        </mxCell>
        <mxCell id="YrC-N434iFFY0tVC18DP-162" value="Thesis id" style="edgeLabel;html=1;align=center;verticalAlign=middle;resizable=0;points=[];" parent="YrC-N434iFFY0tVC18DP-161" vertex="1" connectable="0">
          <mxGeometry x="-0.5991" relative="1" as="geometry">
            <mxPoint x="16" as="offset" />
          </mxGeometry>
        </mxCell>
        <mxCell id="YrC-N434iFFY0tVC18DP-163" style="edgeStyle=orthogonalEdgeStyle;rounded=0;orthogonalLoop=1;jettySize=auto;html=1;entryX=0;entryY=0.5;entryDx=0;entryDy=0;" parent="YrC-N434iFFY0tVC18DP-14" source="YrC-N434iFFY0tVC18DP-76" target="YrC-N434iFFY0tVC18DP-47" edge="1">
          <mxGeometry relative="1" as="geometry">
            <Array as="points">
              <mxPoint x="1350" y="700" />
              <mxPoint x="1350" y="700" />
            </Array>
          </mxGeometry>
        </mxCell>
        <mxCell id="YrC-N434iFFY0tVC18DP-164" value="Thesis id /&lt;div&gt;download count /&lt;/div&gt;&lt;div&gt;View count&lt;/div&gt;" style="edgeLabel;html=1;align=center;verticalAlign=middle;resizable=0;points=[];" parent="YrC-N434iFFY0tVC18DP-163" vertex="1" connectable="0">
          <mxGeometry x="-0.5293" relative="1" as="geometry">
            <mxPoint x="53" as="offset" />
          </mxGeometry>
        </mxCell>
        <mxCell id="YrC-N434iFFY0tVC18DP-165" style="edgeStyle=orthogonalEdgeStyle;rounded=0;orthogonalLoop=1;jettySize=auto;html=1;entryX=0;entryY=0.25;entryDx=0;entryDy=0;exitX=1;exitY=0.25;exitDx=0;exitDy=0;startArrow=classic;startFill=1;endArrow=classic;endFill=1;" parent="YrC-N434iFFY0tVC18DP-14" source="YrC-N434iFFY0tVC18DP-81" target="YrC-N434iFFY0tVC18DP-48" edge="1">
          <mxGeometry relative="1" as="geometry" />
        </mxCell>
        <mxCell id="YrC-N434iFFY0tVC18DP-166" value="Thesis Data" style="edgeLabel;html=1;align=center;verticalAlign=middle;resizable=0;points=[];" parent="YrC-N434iFFY0tVC18DP-165" vertex="1" connectable="0">
          <mxGeometry x="-0.1179" y="-3" relative="1" as="geometry">
            <mxPoint x="12" y="-3" as="offset" />
          </mxGeometry>
        </mxCell>
        <mxCell id="YrC-N434iFFY0tVC18DP-167" style="edgeStyle=orthogonalEdgeStyle;rounded=0;orthogonalLoop=1;jettySize=auto;html=1;startArrow=classic;startFill=1;" parent="YrC-N434iFFY0tVC18DP-14" source="YrC-N434iFFY0tVC18DP-49" target="YrC-N434iFFY0tVC18DP-81" edge="1">
          <mxGeometry relative="1" as="geometry">
            <Array as="points">
              <mxPoint x="1400" y="860" />
              <mxPoint x="1400" y="790" />
            </Array>
          </mxGeometry>
        </mxCell>
        <mxCell id="YrC-N434iFFY0tVC18DP-168" value="PDF file" style="edgeLabel;html=1;align=center;verticalAlign=middle;resizable=0;points=[];" parent="YrC-N434iFFY0tVC18DP-167" vertex="1" connectable="0">
          <mxGeometry x="-0.0024" y="-1" relative="1" as="geometry">
            <mxPoint x="39" y="20" as="offset" />
          </mxGeometry>
        </mxCell>
        <mxCell id="YrC-N434iFFY0tVC18DP-169" style="edgeStyle=orthogonalEdgeStyle;rounded=0;orthogonalLoop=1;jettySize=auto;html=1;exitX=1;exitY=0.5;exitDx=0;exitDy=0;entryX=0;entryY=0.5;entryDx=0;entryDy=0;" parent="YrC-N434iFFY0tVC18DP-14" source="YrC-N434iFFY0tVC18DP-20" target="YrC-N434iFFY0tVC18DP-131" edge="1">
          <mxGeometry relative="1" as="geometry" />
        </mxCell>
        <mxCell id="YrC-N434iFFY0tVC18DP-170" value="Y/N , Feedback" style="edgeLabel;html=1;align=center;verticalAlign=middle;resizable=0;points=[];" parent="YrC-N434iFFY0tVC18DP-169" vertex="1" connectable="0">
          <mxGeometry x="-0.0474" y="3" relative="1" as="geometry">
            <mxPoint x="-4" y="3" as="offset" />
          </mxGeometry>
        </mxCell>
        <mxCell id="YrC-N434iFFY0tVC18DP-179" style="edgeStyle=orthogonalEdgeStyle;rounded=0;orthogonalLoop=1;jettySize=auto;html=1;" parent="YrC-N434iFFY0tVC18DP-14" source="YrC-N434iFFY0tVC18DP-92" target="YrC-N434iFFY0tVC18DP-132" edge="1">
          <mxGeometry relative="1" as="geometry">
            <Array as="points">
              <mxPoint x="1120" y="870" />
              <mxPoint x="1120" y="1100" />
            </Array>
          </mxGeometry>
        </mxCell>
        <mxCell id="YrC-N434iFFY0tVC18DP-180" value="Notification Upload Data" style="edgeLabel;html=1;align=center;verticalAlign=middle;resizable=0;points=[];" parent="YrC-N434iFFY0tVC18DP-179" vertex="1" connectable="0">
          <mxGeometry x="0.55" y="1" relative="1" as="geometry">
            <mxPoint x="10" y="-1" as="offset" />
          </mxGeometry>
        </mxCell>
        <mxCell id="YrC-N434iFFY0tVC18DP-181" style="edgeStyle=orthogonalEdgeStyle;rounded=0;orthogonalLoop=1;jettySize=auto;html=1;" parent="YrC-N434iFFY0tVC18DP-14" source="YrC-N434iFFY0tVC18DP-132" target="YrC-N434iFFY0tVC18DP-21" edge="1">
          <mxGeometry relative="1" as="geometry">
            <Array as="points">
              <mxPoint x="690" y="1100" />
              <mxPoint x="690" y="1100" />
            </Array>
          </mxGeometry>
        </mxCell>
        <mxCell id="YrC-N434iFFY0tVC18DP-182" value="Notification Upload Data" style="edgeLabel;html=1;align=center;verticalAlign=middle;resizable=0;points=[];" parent="YrC-N434iFFY0tVC18DP-181" vertex="1" connectable="0">
          <mxGeometry x="0.2929" y="3" relative="1" as="geometry">
            <mxPoint x="21" y="-3" as="offset" />
          </mxGeometry>
        </mxCell>
        <mxCell id="YrC-N434iFFY0tVC18DP-183" style="edgeStyle=orthogonalEdgeStyle;rounded=0;orthogonalLoop=1;jettySize=auto;html=1;" parent="YrC-N434iFFY0tVC18DP-14" source="YrC-N434iFFY0tVC18DP-92" target="YrC-N434iFFY0tVC18DP-51" edge="1">
          <mxGeometry relative="1" as="geometry">
            <Array as="points">
              <mxPoint x="1230" y="1000" />
              <mxPoint x="1450" y="1000" />
              <mxPoint x="1450" y="1020" />
            </Array>
          </mxGeometry>
        </mxCell>
        <mxCell id="YrC-N434iFFY0tVC18DP-184" style="edgeStyle=orthogonalEdgeStyle;rounded=0;orthogonalLoop=1;jettySize=auto;html=1;" parent="YrC-N434iFFY0tVC18DP-14" source="YrC-N434iFFY0tVC18DP-92" target="YrC-N434iFFY0tVC18DP-50" edge="1">
          <mxGeometry relative="1" as="geometry">
            <Array as="points">
              <mxPoint x="1230" y="1000" />
              <mxPoint x="1450" y="1000" />
              <mxPoint x="1450" y="1100" />
            </Array>
          </mxGeometry>
        </mxCell>
        <mxCell id="YrC-N434iFFY0tVC18DP-185" style="edgeStyle=orthogonalEdgeStyle;rounded=0;orthogonalLoop=1;jettySize=auto;html=1;" parent="YrC-N434iFFY0tVC18DP-14" source="YrC-N434iFFY0tVC18DP-92" target="YrC-N434iFFY0tVC18DP-52" edge="1">
          <mxGeometry relative="1" as="geometry">
            <Array as="points">
              <mxPoint x="1230" y="1000" />
              <mxPoint x="1450" y="1000" />
              <mxPoint x="1450" y="950" />
            </Array>
          </mxGeometry>
        </mxCell>
        <mxCell id="YrC-N434iFFY0tVC18DP-186" value="Update Notification Data" style="edgeLabel;html=1;align=center;verticalAlign=middle;resizable=0;points=[];" parent="YrC-N434iFFY0tVC18DP-185" vertex="1" connectable="0">
          <mxGeometry x="-0.4485" y="-3" relative="1" as="geometry">
            <mxPoint x="3" y="-63" as="offset" />
          </mxGeometry>
        </mxCell>
        <mxCell id="YrC-N434iFFY0tVC18DP-187" style="edgeStyle=orthogonalEdgeStyle;rounded=0;orthogonalLoop=1;jettySize=auto;html=1;" parent="YrC-N434iFFY0tVC18DP-14" source="YrC-N434iFFY0tVC18DP-52" target="YrC-N434iFFY0tVC18DP-92" edge="1">
          <mxGeometry relative="1" as="geometry">
            <Array as="points">
              <mxPoint x="1290" y="940" />
            </Array>
          </mxGeometry>
        </mxCell>
        <mxCell id="YrC-N434iFFY0tVC18DP-188" value="Notification Upload Data" style="edgeLabel;html=1;align=center;verticalAlign=middle;resizable=0;points=[];" parent="YrC-N434iFFY0tVC18DP-187" vertex="1" connectable="0">
          <mxGeometry x="-0.6645" y="-2" relative="1" as="geometry">
            <mxPoint x="-67" as="offset" />
          </mxGeometry>
        </mxCell>
        <mxCell id="YrC-N434iFFY0tVC18DP-104" style="edgeStyle=orthogonalEdgeStyle;rounded=0;orthogonalLoop=1;jettySize=auto;html=1;entryX=1;entryY=0.25;entryDx=0;entryDy=0;" parent="YrC-N434iFFY0tVC18DP-14" source="YrC-N434iFFY0tVC18DP-117" target="YrC-N434iFFY0tVC18DP-114" edge="1">
          <mxGeometry relative="1" as="geometry">
            <Array as="points">
              <mxPoint x="550" y="730" />
              <mxPoint x="550" y="730" />
            </Array>
            <mxPoint x="340" y="570" as="targetPoint" />
          </mxGeometry>
        </mxCell>
        <mxCell id="YrC-N434iFFY0tVC18DP-105" value="PDF File" style="edgeLabel;html=1;align=center;verticalAlign=middle;resizable=0;points=[];" parent="YrC-N434iFFY0tVC18DP-104" vertex="1" connectable="0">
          <mxGeometry x="-0.2924" y="1" relative="1" as="geometry">
            <mxPoint x="58" y="-1" as="offset" />
          </mxGeometry>
        </mxCell>
        <mxCell id="YrC-N434iFFY0tVC18DP-106" style="edgeStyle=orthogonalEdgeStyle;rounded=0;orthogonalLoop=1;jettySize=auto;html=1;" parent="YrC-N434iFFY0tVC18DP-14" source="YrC-N434iFFY0tVC18DP-118" target="YrC-N434iFFY0tVC18DP-114" edge="1">
          <mxGeometry relative="1" as="geometry">
            <Array as="points">
              <mxPoint x="560" y="820" />
              <mxPoint x="560" y="750" />
            </Array>
            <mxPoint x="410" y="500" as="targetPoint" />
          </mxGeometry>
        </mxCell>
        <mxCell id="YrC-N434iFFY0tVC18DP-107" value="Thesis Data" style="edgeLabel;html=1;align=center;verticalAlign=middle;resizable=0;points=[];" parent="YrC-N434iFFY0tVC18DP-106" vertex="1" connectable="0">
          <mxGeometry x="-0.4223" y="2" relative="1" as="geometry">
            <mxPoint x="24" y="-2" as="offset" />
          </mxGeometry>
        </mxCell>
        <mxCell id="YrC-N434iFFY0tVC18DP-108" style="edgeStyle=orthogonalEdgeStyle;rounded=0;orthogonalLoop=1;jettySize=auto;html=1;" parent="YrC-N434iFFY0tVC18DP-14" source="YrC-N434iFFY0tVC18DP-116" target="YrC-N434iFFY0tVC18DP-114" edge="1">
          <mxGeometry relative="1" as="geometry">
            <mxPoint x="430" y="490" as="targetPoint" />
            <Array as="points">
              <mxPoint x="560" y="890" />
              <mxPoint x="560" y="750" />
            </Array>
          </mxGeometry>
        </mxCell>
        <mxCell id="YrC-N434iFFY0tVC18DP-109" value="Thesis Data Search" style="edgeLabel;html=1;align=center;verticalAlign=middle;resizable=0;points=[];" parent="YrC-N434iFFY0tVC18DP-108" vertex="1" connectable="0">
          <mxGeometry x="-0.2854" y="3" relative="1" as="geometry">
            <mxPoint x="79" y="-3" as="offset" />
          </mxGeometry>
        </mxCell>
        <mxCell id="YrC-N434iFFY0tVC18DP-110" style="edgeStyle=orthogonalEdgeStyle;rounded=0;orthogonalLoop=1;jettySize=auto;html=1;exitX=0.75;exitY=1;exitDx=0;exitDy=0;entryX=0;entryY=0.75;entryDx=0;entryDy=0;" parent="YrC-N434iFFY0tVC18DP-14" source="YrC-N434iFFY0tVC18DP-114" target="YrC-N434iFFY0tVC18DP-116" edge="1">
          <mxGeometry relative="1" as="geometry">
            <mxPoint x="470" y="500" as="sourcePoint" />
            <Array as="points">
              <mxPoint x="370" y="910" />
            </Array>
            <mxPoint x="580" y="620" as="targetPoint" />
          </mxGeometry>
        </mxCell>
        <mxCell id="YrC-N434iFFY0tVC18DP-111" value="keywork / catagory" style="edgeLabel;html=1;align=center;verticalAlign=middle;resizable=0;points=[];" parent="YrC-N434iFFY0tVC18DP-110" vertex="1" connectable="0">
          <mxGeometry x="0.3746" y="-1" relative="1" as="geometry">
            <mxPoint x="69" y="-1" as="offset" />
          </mxGeometry>
        </mxCell>
        <mxCell id="mqlulFaLEjQ6GGixOVMu-1" style="edgeStyle=orthogonalEdgeStyle;rounded=0;orthogonalLoop=1;jettySize=auto;html=1;" edge="1" parent="YrC-N434iFFY0tVC18DP-14" source="YrC-N434iFFY0tVC18DP-131" target="YrC-N434iFFY0tVC18DP-92">
          <mxGeometry relative="1" as="geometry">
            <Array as="points">
              <mxPoint x="1100" y="1020" />
              <mxPoint x="1100" y="850" />
            </Array>
          </mxGeometry>
        </mxCell>
        <mxCell id="mqlulFaLEjQ6GGixOVMu-2" value="Y/N , Feedback" style="edgeLabel;html=1;align=center;verticalAlign=middle;resizable=0;points=[];" vertex="1" connectable="0" parent="mqlulFaLEjQ6GGixOVMu-1">
          <mxGeometry x="-0.4724" y="2" relative="1" as="geometry">
            <mxPoint x="-25" y="1" as="offset" />
          </mxGeometry>
        </mxCell>
      </root>
    </mxGraphModel>
  </diagram>
</mxfile>
